<svg xmlns="http://www.w3.org/2000/svg" style="display: none;">
  <!-- #region [ Horizon ] LETTER A -->
  <symbol id="a" viewBox="0 0 50 100">
    <path d="M31.6 69.9l-6.7-50.2h-.2l-6.1 50.2h13zm-31.4 30.1l14.3-100h20.1l15.2 100h-14.2l-2.4-17.8h-16.2l-2.1 17.8h-14.7z"/>
  </symbol>
  <symbol id="a-shadow" viewBox="0 0 50 100">
    <path d="M14.5 0l-14.301 100h6.857l13.443-94h15.012l-.912-6h-20.1zm16.199 25.699l-2.383 19.604 3.283 24.598h-6.271l-.729 6h13l-6.699-50.201h-.201zm3.309 62.5l1.592 11.801h5.191l-1.592-11.801h-5.191z"/>
  </symbol>
  <!-- #endregion -->
  <!-- #region [ Horizon ] LETTER B -->
  <symbol id="b" viewBox="0 0 50 100">
    <path d="M45.1 25.7c0 10.8-2.9 17.4-8.7 19.8 7.1 2.4 10.7 10.2 10.7 23.6v2.6c-.1 10-1.8 17.3-5.3 21.7-3.4 4.4-9 6.6-16.8 6.6h-22.1v-100h21.6c7.5 0 12.8 1.7 15.9 5.2 3.1 3.4 4.7 9.2 4.7 17.4v3.1zm-26.9 62.5h5.4c3 0 5.2-1 6.4-3.1 1.2-2.1 1.8-5.8 1.8-11.2v-8.1c0-5.1-.5-8.7-1.5-10.7-1-2.1-2.9-3.2-5.7-3.2h-6.4v36.3zm0-47.7h5.6c2.6 0 4.3-.8 5.1-2.5.8-1.7 1.3-5.1 1.3-10.3v-6c0-3.9-.6-6.4-1.6-7.7-1-1.3-2.8-2-5.3-2h-5.1v28.5z"/>
  </symbol>
  <symbol id="b-shadow" viewBox="0 0 50 100">
    <path d="M2.9 0v100h6v-94h21.6c4.949 0 8.934.745 11.967 2.254-.592-1.172-1.28-2.192-2.066-3.055-3.1-3.5-8.4-5.199-15.9-5.199h-21.6zm27.072 18.025c.147 1.051.227 2.268.227 3.674v6c0 5.2-.499 8.601-1.299 10.301-.757 1.609-2.331 2.403-4.701 2.484v6.016h5.602c2.6 0 4.3-.8 5.1-2.5.8-1.7 1.299-5.101 1.299-10.301v-6c0-3.9-.6-6.399-1.6-7.699-.907-1.179-2.478-1.857-4.627-1.975zm13.305 33.059c-.286.148-.575.291-.877.416.512.173.999.382 1.475.611-.19-.357-.391-.697-.598-1.027zm-12.082 6.846c.403 2.003.605 4.633.605 7.871v8.1c0 5.4-.601 9.099-1.801 11.199-1.117 1.955-3.111 2.945-5.801 3.074v6.025h5.4c3 0 5.2-1 6.4-3.1 1.2-2.1 1.801-5.799 1.801-11.199v-8.1c0-5.1-.5-8.701-1.5-10.701-.926-1.945-2.635-3.02-5.105-3.17z"/>
  </symbol>
  <!-- #endregion -->
  <!-- #region [ Horizon ] LETTER C -->
  <symbol id="c" viewBox="0 0 50 100">
    <path d="M46.2 72.2c0 9.4-1.7 16.4-5.1 21-3.4 4.5-8.7 6.8-15.9 6.8s-12.6-2.4-16.2-7.2c-3.5-4.9-5.2-11.8-5.2-20.9v-42.6c0-14.6 3.8-23.7 11.4-27.3 2.8-1.3 6.2-2 10.2-2 13.8 0 20.6 8.7 20.6 26v13.4h-14.4v-12.5c0-5-.4-8.6-1.3-10.8-.9-2.2-2.5-3.3-5-3.3s-4.2 1.1-5.2 3.4-1.4 5.8-1.4 10.6v45.7c0 5.3.5 9 1.4 11.3.9 2.3 2.6 3.4 5.1 3.4s4.1-1.1 5.1-3.4c.9-2.3 1.4-6.1 1.4-11.4v-14h14.6v13.8z"/>
  </symbol>
  <symbol id="c-shadow" viewBox="0 0 50 100">
    <path d="M25.4 0c-4 0-7.401.7-10.201 2-7.6 3.6-11.398 12.701-11.398 27.301v42.6c0 9.1 1.699 16 5.199 20.9 1.405 1.873 3.088 3.375 5.041 4.518-2.849-4.777-4.24-11.197-4.24-19.418v-42.6c0-14.6 3.798-23.701 11.398-27.301 2.8-1.3 6.201-2 10.201-2 4.286 0 7.894.84 10.836 2.516-3.351-5.667-8.947-8.516-16.836-8.516zm5.9 18.801l-.262.016c.381 2.084.561 4.77.561 8.084v12.5h6v-6.5c0-5-.399-8.601-1.299-10.801-.9-2.2-2.5-3.299-5-3.299zm.398 39.6v14c0 5.3-.498 9.1-1.398 11.4-.975 2.243-2.529 3.335-4.924 3.389.201 1.007.439 1.888.723 2.611.9 2.3 2.6 3.398 5.1 3.398 2.5 0 4.102-1.098 5.102-3.398.9-2.3 1.398-6.1 1.398-11.4v-14h8.602v-6h-14.602z"/>
  </symbol>
  <!-- #endregion -->
  <!-- #region [ Horizon ] LETTER D -->
  <symbol id="d" viewBox="0 0 50 100">
    <path d="M18.5 88.2h5c2.8 0 4.8-.9 6.1-2.7 1.3-1.8 1.9-5.2 1.9-10l-.1-49.4c0-5.2-.6-8.9-1.9-11.1-1.2-2.2-3.4-3.3-6.5-3.3h-4.5v76.5zm-15.2 11.8v-100h22.4c7.3 0 12.7 2.2 16 6.5 3.3 4.3 5 10.7 5 19.1l.1 45.1c0 10.1-1.7 17.5-5 22.2-3.3 4.7-8.8 7-16.5 7h-22z"/>
  </symbol>
  <symbol id="d-shadow" viewBox="0 0 50 100">
    <path d="M3.301 0v99.9h6v-93.9h22.398c4.524 0 8.317.846 11.334 2.512-.412-.713-.855-1.387-1.334-2.012-3.3-4.3-8.7-6.5-16-6.5h-22.398zm27.293 17.822c.543 2.119.807 4.87.807 8.277l.1 49.4c0 4.8-.6 8.2-1.9 10-1.139 1.578-2.817 2.463-5.1 2.658v6.041h5c2.8 0 4.8-.899 6.1-2.699 1.3-1.8 1.9-5.2 1.9-10l-.1-49.4c0-5.2-.6-8.9-1.9-11.1-.981-1.799-2.642-2.85-4.906-3.178z"/>
  </symbol>
  <!-- #endregion -->
  <!-- #region [ Horizon ] LETTER E -->
  <symbol id="e" viewBox="0 0 50 100">
    <path d="M7.9 100v-100h33.5v13.1h-18.3v29.1h17.4v12.9h-17.4v31.8h19v13.1z"/>
  </symbol>
  <symbol id="e-shadow" viewBox="0 0 50 100">
    <path d="M7.9 0v100h6v-94h27.5v-6h-33.5zm21.199 42.199v6h11.4v-6h-11.4zm0 44.701v6h13v-6h-13z"/>
  </symbol>
  <!-- #endregion -->
  <!-- #region [ Horizon ] LETTER F -->
  <symbol id="f" viewBox="0 0 50 100">
    <path d="M7.8 100v-100h34.4v13.2h-19.1v26.6h17.7v13.3h-17.7v46.9z"/>
  </symbol>
  <symbol id="f-shadow" viewBox="0 0 50 100">
    <path d="M7.801 0v100h6v-94h28.398v-6h-34.398zm21.299 39.801v6h11.701v-6h-11.701z"/>
  </symbol>
  <!-- #endregion -->
  <!-- #region [ Horizon ] LETTER H -->
  <symbol id="h" viewBox="0 0 50 100">
    <path d="M3 100v-100h15.2v40.5h13.6v-40.5h15.2v100h-15.2v-46.5h-13.6v46.5z"/>
  </symbol>
  <symbol id="h-shadow" viewBox="0 0 50 100">
    <path d="M3 0v100h6v-94h9.199v-6h-15.199zm28.801 0v40.5h-7.602v6h13.602v-40.5h9.199v-6h-15.199zm0 59.5v40.5h6v-40.5h-6z"/>
  </symbol>
  <!-- #endregion -->
  <!-- #region [ Horizon ] LETTER J -->
  <symbol id="j" viewBox="0 0 50 100">
    <path d="M45.4 74.7c0 8.1-1.8 14.3-5.3 18.8-3.6 4.4-8.6 6.6-15.1 6.6-6.4 0-11.5-1.9-15.1-5.8-3.5-4.1-5.3-9.8-5.3-17.3v-17.6h14.6v16.9c0 5.5.9 8.8 2.6 10 .8.5 1.8.8 2.9.8 2.3 0 3.8-.9 4.5-2.8.7-1.9 1.1-4.8 1.1-8.9v-75.4h15.1v74.7z"/>
  </symbol>
  <symbol id="j-shadow" viewBox="0 0 50 100">
    <path d="M30.301 0v75.4c0 4.1-.402 7-1.102 8.9-.615 1.668-1.846 2.564-3.693 2.758.393 2.69 1.163 4.443 2.295 5.242.8.5 1.798.799 2.898.799 2.3 0 3.8-.899 4.5-2.799.7-1.9 1.102-4.8 1.102-8.9v-75.4h9.1v-6h-15.1zm-25.701 59.4v17.6c0 7.5 1.801 13.201 5.301 17.301 1.18 1.278 2.524 2.337 4.02 3.189-2.194-3.775-3.32-8.57-3.32-14.49v-17.6h8.6v-6h-14.6z"/>
  </symbol>
  <!-- #endregion -->
  <!-- #region [ Horizon ] LETTER K -->
  <symbol id="k" viewBox="0 0 50 100">
    <path d="M1.2 100v-100h15.3v46l15.2-46h15.7l-16.5 49.3 17.9 50.7h-16.1l-16.1-46.7v46.7z"/>
  </symbol>
  <symbol id="k-shadow" viewBox="0 0 50 100">
    <path d="M1.199 0v100h6v-94h9.301v-6h-15.301zm30.5 0l-9.199 27.842v24.158l15.199-46h7.693l2.008-6h-15.701zm-9.1 59.301v11.404l10.1 29.295h3.932l-14.031-40.699z"/>
  </symbol>
  <!-- #endregion -->
  <!-- #region [ Horizon ] LETTER N -->
  <symbol id="n" viewBox="0 0 50 100">
    <path d="M2.1 100v-100h12l21.2 60-1.1-27.3v-32.7h13.7v100h-10.8l-21.8-62.1.9 26.2v35.9z"/>
  </symbol>
  <symbol id="n-shadow" viewBox="0 0 50 100">
    <path d="M2.1 0v100h6v-94h8.119l-2.119-6h-12zm32.1 0v32.699l.602 14.904 6.5 18.396-1.102-27.301v-32.699h7.701v-6h-13.701zm-12.898 43.9l.422 12.293 15.377 43.807h3.895l-19.693-56.1z"/>
  </symbol>
  <!-- #endregion -->
  <!-- #region [ Horizon ] LETTER O -->
  <symbol id="o" viewBox="0 0 50 100">
    <path d="M18.4 71.7c0 5.7.4 9.7 1.3 12 .9 2.3 2.7 3.4 5.4 3.4s4.5-1.1 5.3-3.4c.9-2.3 1.3-6.3 1.3-11.9v-45.6c0-4.6-.4-8-1.3-10.1-.9-2.1-2.6-3.2-5.1-3.2-2.5 0-4.3 1.1-5.3 3.2s-1.5 5.5-1.5 10v45.6zm28.2-.1c0 9.6-1.7 16.7-5.1 21.4-3.4 4.7-8.9 7.1-16.4 7.1-7.5 0-13-2.4-16.5-7.1-3.5-4.7-5.2-11.9-5.2-21.4v-44.7c0-17.9 7.3-26.9 21.9-26.9 7.6 0 13 2.3 16.3 6.8 3.3 4.6 5 11.2 5 20v44.8z"/>
  </symbol>
  <symbol id="o-shadow" viewBox="0 0 50 100">
    <path d="M25.301 0c-14.6 0-21.9 9-21.9 26.9v44.699c0 9.5 1.699 16.7 5.199 21.4 1.349 1.812 2.999 3.28 4.943 4.402-2.783-4.673-4.143-11.318-4.143-19.803v-44.699c0-17.9 7.3-26.9 21.9-26.9 4.599 0 8.386.849 11.396 2.512-.344-.598-.709-1.169-1.098-1.711-3.3-4.5-8.699-6.801-16.299-6.801zm6 18.9l-.113.006c.35 1.93.512 4.365.512 7.293v45.602c0 5.6-.399 9.598-1.299 11.898-.8 2.3-2.601 3.4-5.301 3.4l-.082-.004c.184 1.02.407 1.901.682 2.604.9 2.3 2.7 3.4 5.4 3.4s4.501-1.1 5.301-3.4c.9-2.3 1.299-6.298 1.299-11.898v-45.602c0-4.6-.399-8-1.299-10.1-.9-2.1-2.6-3.199-5.1-3.199z"/>
  </symbol>
  <!-- #endregion -->
  <!-- #region [ Horizon ] LETTER P -->
  <symbol id="p" viewBox="0 0 50 100">
    <path d="M3.3 100v-100h23c7.7 0 13 2.4 15.9 7.1 2.9 4.7 4.4 11.7 4.5 21.1v2.1c0 9.9-1.4 17.5-4.3 22.6-2.8 5.1-8 7.7-15.7 7.7h-8.2v39.4h-15.2zm15.2-52h5.2c3.2 0 5.3-1.2 6.3-3.7s1.5-7.2 1.5-14.2v-1.9c0-5.9-.6-10.1-1.6-12.7-1-2.5-3-3.8-6-3.8h-5.3v36.3z"/>
  </symbol>
  <symbol id="p-shadow" viewBox="0 0 50 100">
    <path d="M3.301 0v100h6v-94h23c4.225 0 7.722.727 10.502 2.156-.195-.363-.394-.718-.604-1.057-2.9-4.7-8.198-7.1-15.898-7.1h-23zm27.268 17.736c.593 2.556.932 6.028.932 10.463v1.9c0 7-.5 11.701-1.5 14.201-.902 2.255-2.708 3.441-5.4 3.654v6.045h5.1c3.2 0 5.301-1.199 6.301-3.699s1.5-7.201 1.5-14.201v-1.9c0-5.9-.6-10.099-1.6-12.699-.923-2.306-2.707-3.578-5.332-3.764z"/>
  </symbol>
  <!-- #endregion -->
  <!-- #region [ Horizon ] LETTER R -->
  <symbol id="r" viewBox="0 0 50 100">
    <path d="M23.2 53l-4.9-.2v47.2h-15.3v-100h25.2c5.2 0 9.1 1.1 11.7 3.2 2.6 2.1 4.3 5 5.1 8.8.8 3.8 1.3 8.7 1.3 14.8 0 6.1-.6 10.7-1.9 13.9-1.3 3.2-3.7 5.3-7.2 6.4 3.4.6 5.9 2.9 7.2 7 1.4 4.1 2 12.5 2 25.3s.2 19.7.6 20.6h-15.3c-.4-.8-.6-12.7-.6-35.9 0-4.4-.5-7.4-1.6-8.8-1-1.4-3.1-2.2-6.3-2.3zm-4.9-12h6.1c1.9 0 3.4-.4 4.3-1.3.9-.9 1.6-2.4 1.9-4.5.4-2.1.6-5.4.6-9.7v-.6c0-5.4-.5-9-1.4-10.6-.9-1.7-3-2.5-6.3-2.5h-5.2v29.2z"/>
  </symbol>
  <symbol id="r-shadow" viewBox="0 0 50 100">
    <path d="M3 0v100h6v-94h25.199c3.811 0 6.918.596 9.332 1.738-.905-1.797-2.109-3.31-3.631-4.539-2.6-2.1-6.501-3.199-11.701-3.199h-25.199zm27.785 17.85c.269 1.825.414 4.174.414 7.051v.6c0 4.3-.2 7.599-.6 9.699-.3 2.1-1 3.6-1.9 4.5-.9.9-2.399 1.301-4.299 1.301h-.1v6h6.1c1.9 0 3.399-.401 4.299-1.301.9-.9 1.6-2.4 1.9-4.5.4-2.1.6-5.399.6-9.699v-.6c0-5.4-.498-9-1.398-10.6-.777-1.467-2.452-2.26-5.016-2.451zm13.143 34.984c-.241.09-.476.186-.729.266.314.055.613.14.912.225l-.184-.49zm-13.135 6.293c.203 1.379.307 3.031.307 4.973 0 23.2.2 35.1.6 35.9h5.648c-.158-5.7-.248-15.301-.248-29.9 0-4.4-.5-7.399-1.6-8.799-.822-1.151-2.399-1.889-4.707-2.174z"/>
  </symbol>
  <!-- #endregion -->
  <!-- #region [ Horizon ] LETTER S -->
  <symbol id="s" viewBox="0 0 50 100">
    <path d="M4.4 71.4v-8.7h14.1v9.8c0 5.4.5 9.3 1.4 11.5.9 2.2 2.7 3.3 5.2 3.3 2.6 0 4.2-.9 5.1-2.7.9-1.8 1.3-4.8 1.3-8.9 0-4.1-.7-7.7-2.2-10.7-1.5-3.1-3.8-6.3-7.1-9.6l-7.2-7.5c-3.4-3.5-6-7.2-7.9-10.9-1.8-3.8-2.8-8.1-2.8-13.1 0-8.1 1.6-14.1 4.7-18 3.1-3.9 8.4-5.9 16-5.9s12.7 2.3 15.4 6.9c2.7 4.6 4.1 11.2 4.1 20v6.1h-13.8v-7c0-4.7-.4-8.1-1.2-10.2-.8-2.1-2.4-3.1-4.7-3.1-2.3 0-4 .8-5 2.3-1 1.6-1.5 3.9-1.5 7s.5 5.6 1.6 7.4c1 1.9 2.9 4.2 5.6 7.1l8.1 8.7c4 4.4 7.1 8.8 9.1 13.3 2.1 4.5 3.1 9.4 3.1 14.7 0 9.1-1.5 15.9-4.6 20.3-3.1 4.4-8.5 6.6-16.2 6.6-7.7 0-13-2.4-16-7.3-3.1-5-4.6-12.1-4.6-21.4z"/>
  </symbol>
  <symbol id="s-shadow" viewBox="0 0 50 100">
    <path d="M25 0c-7.6 0-12.9 2-16 5.9-3.1 3.9-4.699 9.9-4.699 18 0 5 .999 9.3 2.799 13.1 1.9 3.7 4.5 7.4 7.9 10.9l7.199 7.5c3.3 3.3 5.602 6.5 7.102 9.6 1.5 3 2.199 6.599 2.199 10.699s-.401 7.1-1.301 8.9c-.893 1.786-2.478 2.686-5.043 2.699.205 1.07.451 1.985.744 2.701.9 2.2 2.699 3.301 5.199 3.301 2.6 0 4.2-.901 5.1-2.701.9-1.8 1.301-4.8 1.301-8.9 0-4.1-.699-7.699-2.199-10.699-1.5-3.1-3.802-6.3-7.102-9.6l-7.199-7.5c-3.4-3.5-6-7.2-7.9-10.9-1.8-3.8-2.799-8.1-2.799-13.1 0-8.1 1.599-14.1 4.699-18 3.1-3.9 8.4-5.9 16-5.9 4.002 0 7.303.645 9.934 1.92-.176-.342-.344-.697-.533-1.02-2.7-4.6-7.8-6.9-15.4-6.9zm5.801 18.699l-.568.027c.311 1.92.467 4.343.467 7.273v7h6v-1c0-4.7-.399-8.099-1.199-10.199-.8-2.1-2.399-3.102-4.699-3.102zm-26.4 44v8.701c0 9.3 1.5 16.4 4.6 21.4 1.354 2.212 3.18 3.909 5.48 5.111-2.747-4.94-4.08-11.748-4.08-20.512v-8.701h8.1v-6h-14.1z"/>
  </symbol>
  <!-- #endregion -->
  <!-- #region [ Horizon ] LETTER T -->
  <symbol id="t" viewBox="0 0 50 100">
    <path d="M17.6 100v-86.8h-11.7v-13.2h38.2v13.2h-11.3v86.8z"/>
  </symbol>
  <symbol id="t-shadow" viewBox="0 0 50 100">
    <path d="M5.9 0v13.199h6v-7.199h32.199v-6h-38.199zm11.699 19.199v80.801h6v-80.801h-6z"/>
  </symbol>
  <!-- #endregion -->
  <!-- #region [ Horizon ] LETTER U -->
  <symbol id="u" viewBox="0 0 50 100">
    <path d="M46.8 73.5c0 9.1-1.7 15.8-5.2 20.1-3.4 4.3-9 6.4-16.6 6.4-7.6 0-13.1-2.2-16.6-6.5-3.4-4.3-5.2-11-5.2-20v-73.5h15v73.2c0 5.2.2 8.4.7 9.5.5 1.1 1.1 2.2 1.7 3.1.7.9 2.2 1.3 4.3 1.3 2.2 0 3.7-.6 4.7-1.9.9-1.3 1.5-2.8 1.7-4.7.2-1.9.3-4.3.3-7.3v-73.2h15v73.5z"/>
  </symbol>
  <symbol id="u-shadow" viewBox="0 0 50 100">
    <path d="M3.199 0v73.5c0 9 1.801 15.7 5.201 20 1.25 1.536 2.76 2.797 4.525 3.793-2.44-4.258-3.727-10.204-3.727-17.793v-73.5h9v-6h-15zm28.4 0v73.199c0 3-.099 5.401-.299 7.301-.2 1.9-.801 3.399-1.701 4.699-1 1.3-2.499 1.9-4.699 1.9l-.363-.02c.099.707.213 1.289.363 1.619.5 1.1 1.099 2.202 1.699 3.102.7.9 2.201 1.299 4.301 1.299 2.2 0 3.699-.6 4.699-1.9.9-1.3 1.501-2.799 1.701-4.699.2-1.9.299-4.301.299-7.301v-73.199h9v-6h-15z"/>
  </symbol>
  <!-- #endregion -->
</svg>