<svg xmlns="http://www.w3.org/2000/svg" style="display: none;">
  <!-- ABOUT -->
  <symbol id="about" viewBox="0 0 255 100">
    <path d="M229.15 98.89V14.047h-11.452V1.166H255v12.882h-11.007v84.841H229.15ZM188.568 100c-5.078 0-9.21-.944-12.397-2.832-3.188-1.925-5.522-4.812-7.005-8.662-1.482-3.886-2.224-8.791-2.224-14.714V1.166h14.899v72.349c0 2.739.111 5.145.334 7.218.259 2.073.852 3.683 1.779 4.83.926 1.148 2.446 1.722 4.558 1.722 2.113 0 3.632-.555 4.559-1.666.963-1.147 1.556-2.758 1.779-4.83.222-2.073.333-4.498.333-7.274V1.166h14.899v72.626c0 5.923-.741 10.828-2.224 14.714-1.445 3.85-3.762 6.737-6.949 8.662-3.15 1.888-7.264 2.832-12.341 2.832Zm-55.926 0c-5.077 0-9.228-1.073-12.452-3.22-3.188-2.147-5.541-5.33-7.06-9.55-1.52-4.22-2.28-9.44-2.28-15.659V26.874c0-5.627.742-10.439 2.224-14.436 1.482-3.998 3.836-7.07 7.06-9.218C123.358 1.073 127.583 0 132.809 0c3.929 0 7.246.61 9.951 1.832s4.892 2.999 6.56 5.33c1.668 2.296 2.872 5.109 3.613 8.44.779 3.295 1.168 7.052 1.168 11.272v44.697c0 6.22-.741 11.438-2.224 15.658-1.445 4.22-3.743 7.404-6.893 9.55-3.151 2.148-7.264 3.221-12.342 3.221Zm0-12.882c1.853 0 3.243-.555 4.17-1.665.926-1.111 1.538-2.795 1.834-5.053.334-2.295.501-5.183.501-8.662v-45.53c0-4.257-.408-7.533-1.223-9.828-.779-2.332-2.484-3.498-5.115-3.498-2.705 0-4.54 1.129-5.504 3.387-.963 2.22-1.445 5.515-1.445 9.883v45.586c0 3.553.148 6.478.445 8.773.333 2.258.982 3.924 1.946 4.997 1 1.074 2.464 1.61 4.391 1.61ZM57.37 98.89V1.165h21.181c4.93 0 8.858.759 11.786 2.277 2.927 1.48 5.04 3.85 6.337 7.107 1.334 3.22 2.001 7.459 2.001 12.715v2.998c0 5.071-.667 9.254-2 12.549-1.298 3.257-3.485 5.534-6.56 6.83 2.556.85 4.595 2.387 6.114 4.608 1.557 2.184 2.669 4.867 3.336 8.05.667 3.147 1 6.608 1 10.384v2.499c-.037 6.515-.796 11.826-2.279 15.935-1.482 4.072-3.799 7.052-6.949 8.94s-7.264 2.831-12.341 2.831H57.37Zm14.9-11.55h5.28c1.965 0 3.521-.425 4.67-1.277 1.186-.888 2.038-2.35 2.557-4.386.52-2.036.779-4.812.779-8.329v-7.884c0-4.739-.464-8.181-1.39-10.328-.89-2.184-2.761-3.276-5.615-3.276H72.27v35.48Zm0-46.64h5.503c1.297 0 2.353-.186 3.169-.556.815-.37 1.445-1 1.89-1.887.444-.926.74-2.203.89-3.832.184-1.628.277-3.701.277-6.218V22.32c0-2.628-.24-4.627-.723-5.997-.481-1.37-1.223-2.295-2.223-2.776-.964-.481-2.224-.722-3.78-.722h-5.004V40.7ZM0 98.89 13.954 1.165h19.68L48.475 98.89H34.578l-2.335-17.435H16.455l-2.112 17.434H0Zm17.9-29.373h12.787l-6.56-49.084h-.223l-6.003 49.084Z"/>
  </symbol>
  <symbol id="about-shadow" viewBox="0 0 255 100">
    <path d="M150.3,8.6c-.5-.3-1-.5-1.5-.8-2.7-1.2-6-1.8-10-1.8s-9.5,1.1-12.7,3.2-5.6,5.2-7.1,9.2c-1.5,4-2.2,8.8-2.2,14.4v44.7c0,6.2.8,11.4,2.3,15.7.5,1.4,1.1,2.8,1.9,4.1-.3-.2-.6-.3-.9-.5-3.2-2.1-5.5-5.3-7.1-9.6-1.5-4.2-2.3-9.4-2.3-15.7V26.9c0-5.6.7-10.4,2.2-14.4,1.5-4,3.8-7.1,7.1-9.2,3.2-2.1,7.4-3.2,12.7-3.2s7.2.6,10,1.8c2.7,1.2,4.9,3,6.6,5.3.3.5.6.9.9,1.4ZM136.8,85.5c-.9,1.1-2.3,1.7-4.2,1.7s-.2,0-.2,0c.4,2,1,3.4,1.8,4.4,1,1.1,2.5,1.6,4.4,1.6s3.2-.6,4.2-1.7c.9-1.1,1.5-2.8,1.8-5.1.3-2.3.5-5.2.5-8.7v-45.5c0-4.3-.4-7.5-1.2-9.8-.8-2.3-2.5-3.5-5.1-3.5s-.2,0-.2,0c.4,2,.6,4.4.6,7.3v45.5c0,3.5-.2,6.4-.5,8.7-.3,2.3-.9,3.9-1.8,5.1h0ZM176.5,97.4c-.1,0-.2-.1-.4-.2-3.2-1.9-5.5-4.8-7-8.7-1.5-3.9-2.2-8.8-2.2-14.7V1.2h14.9v6h-8.9v72.6c0,5.9.7,10.8,2.2,14.7.4,1,.8,2,1.4,2.9h0ZM210.1,7.2V1.2h-14.9v72.3c0,2.8-.1,5.2-.3,7.3-.2,2.1-.8,3.7-1.8,4.8-.9,1.1-2.4,1.7-4.6,1.7s-.2,0-.3,0c.3,1.8.9,3.2,1.7,4.3.9,1.1,2.4,1.7,4.6,1.7s3.6-.6,4.6-1.7c1-1.1,1.6-2.8,1.8-4.8.2-2.1.3-4.5.3-7.3V7.2s8.9,0,8.9,0ZM229.1,20v78.8h6V20h-6ZM255,7.2V1.2h-37.3v12.9h6v-6.9h31.3ZM57.4,98.9V1.2h21.2c4.9,0,8.9.8,11.8,2.3,2.6,1.3,4.5,3.3,5.8,5.9-2.9-1.4-6.8-2.2-11.6-2.2h-21.2v91.7h-6ZM97.4,52.1c-.2-.3-.3-.6-.5-.9-.3.1-.5.3-.8.4.4.1.9.3,1.3.5ZM78.3,87.3v6h5.3c2,0,3.5-.4,4.7-1.3,1.2-.9,2-2.3,2.6-4.4.5-2,.8-4.8.8-8.3v-7.9c0-4.7-.5-8.2-1.4-10.3-.8-2.1-2.6-3.2-5.2-3.3.4,2,.6,4.5.6,7.6v7.9c0,3.5-.3,6.3-.8,8.3s-1.4,3.5-2.6,4.4c-1,.7-2.3,1.2-3.9,1.3ZM78.3,40.7v6h5.5c1.3,0,2.4-.2,3.2-.6.8-.4,1.4-1,1.9-1.9.4-.9.7-2.2.9-3.8.2-1.6.3-3.7.3-6.2v-5.9c0-2.6-.2-4.6-.7-6-.5-1.4-1.2-2.3-2.2-2.8-.8-.4-1.9-.7-3.2-.7.1,1,.2,2.2.2,3.5v5.9c0,2.5,0,4.6-.3,6.2-.1,1.6-.4,2.9-.9,3.8-.4.9-1.1,1.5-1.9,1.9-.7.3-1.6.5-2.7.5h0ZM14,1.2L0,98.9h6.9L20,7.2h14.6l-.9-6H14h0ZM33,87.5l1.5,11.4h5.2l-1.5-11.4s-5.2,0-5.2,0ZM24.6,69.5h6.1l-3.2-23.6,2.4-19.4h.2l6.6,49.1h-12.8l.7-6h0Z"/>
  </symbol>
  <!-- ARCHVIZ -->
  <symbol id="archviz" viewBox="0 0 338 100">
    <path d="M302.117 98.889V85.667l20.274-71.723H303.95V1.111H338v12.056l-20.274 72.889h19.83v12.833h-35.439Zm-26.051 0V1.11h14.886v97.78h-14.886Zm-42.049 0L218.853 1.11h14.164l6.388 44.167 3.944 31.11h.389l3.388-31.11 5.333-44.167h13.886l-13.942 97.78h-18.386Zm-67.711 0V1.11h14.886v39.556h13.332V1.11h14.886v97.78h-14.886V53.444h-13.332V98.89h-14.886ZM132.478 100c-4.74 0-8.684-1.093-11.831-3.278-3.148-2.185-5.518-5.37-7.11-9.555-1.555-4.223-2.333-9.315-2.333-15.278V29.278c0-4.482.37-8.519 1.111-12.111.741-3.593 1.944-6.667 3.61-9.223 1.667-2.555 3.889-4.518 6.666-5.888C125.368.686 128.794 0 132.867 0c3.703 0 6.851.611 9.443 1.833 2.629 1.186 4.758 2.908 6.388 5.167 1.666 2.26 2.87 5 3.61 8.222.778 3.185 1.167 6.778 1.167 10.778v13.444h-14.387v-12.5c0-4.814-.407-8.351-1.222-10.61-.814-2.297-2.444-3.445-4.888-3.445-2.703 0-4.518 1.24-5.443 3.722-.889 2.445-1.334 5.87-1.334 10.278v45.667c0 3.407.186 6.203.556 8.389.407 2.148 1.074 3.74 2 4.777.925 1 2.221 1.5 3.888 1.5 2.518 0 4.221-1.185 5.11-3.555.889-2.37 1.333-6.13 1.333-11.278v-14h14.609v13.833c0 6.185-.722 11.352-2.166 15.5-1.445 4.111-3.74 7.185-6.888 9.223-3.111 2.037-7.166 3.055-12.165 3.055Zm-75.154-1.111V1.11H81.93c5.11 0 8.924 1 11.443 3 2.518 2 4.166 4.926 4.943 8.778.815 3.852 1.222 8.555 1.222 14.111 0 5.74-.592 10.26-1.777 13.556-1.148 3.259-3.518 5.444-7.11 6.555 1.703.296 3.129 1 4.277 2.111 1.148 1.074 2.074 2.667 2.777 4.778.704 2.074 1.204 4.76 1.5 8.056.333 3.259.5 7.259.5 12v9.166l.11 6.89c.038 2.295.093 4.258.168 5.888.074 1.63.166 2.593.277 2.889H85.375c-.111-.185-.204-1.13-.278-2.833-.037-1.741-.092-3.945-.166-6.611a4665.98 4665.98 0 0 1-.112-8.612v-17c0-2.926-.222-5.13-.666-6.61-.407-1.52-1.185-2.575-2.333-3.167-1.111-.593-2.722-.945-4.833-1.056l-4.777-.278V98.89H57.324Zm14.942-57.722h5.943c1.815 0 3.185-.408 4.11-1.223.964-.814 1.612-2.314 1.945-4.5.37-2.185.555-5.333.555-9.444v-.611c0-3.445-.166-6.093-.5-7.945-.333-1.851-1.036-3.13-2.11-3.833-1.037-.704-2.666-1.055-4.888-1.055h-5.055v28.61ZM0 98.889 13.942 1.11h19.664l14.83 97.778H34.55l-2.333-17.444H16.442L14.33 98.889H0ZM17.886 69.5h12.776l-6.555-49.111h-.222l-6 49.111Z"/>
  </symbol>
  <symbol id="archviz-shadow" viewBox="0 0 338 100">
    <path d="M121.6,97.3c-.3-.2-.6-.4-.9-.6-3.1-2.2-5.5-5.4-7.1-9.6-1.6-4.2-2.3-9.3-2.3-15.3V29.3c0-4.5.4-8.5,1.1-12.1.7-3.6,1.9-6.7,3.6-9.2,1.7-2.6,3.9-4.5,6.7-5.9,2.8-1.4,6.2-2.1,10.3-2.1s6.9.6,9.4,1.8c2.6,1.2,4.8,2.9,6.4,5.2.4.5.7,1,1,1.6-.5-.3-.9-.5-1.4-.7-2.6-1.2-5.7-1.8-9.4-1.8s-7.5.7-10.3,2.1c-2.8,1.4-5,3.3-6.7,5.9-1.7,2.6-2.9,5.6-3.6,9.2-.7,3.6-1.1,7.6-1.1,12.1v42.6c0,6,.8,11.1,2.3,15.3.5,1.4,1.2,2.8,2,4.2h0ZM145.1,39.4v-6.5c0-4.8-.4-8.4-1.2-10.6-.8-2.3-2.4-3.4-4.9-3.4s-.3,0-.5,0c.4,2.1.6,4.8.6,8v12.5h6ZM132.8,87.2c2.4,0,4.1-1.2,4.9-3.6.9-2.4,1.3-6.1,1.3-11.3v-14h14.6v6h-8.6v14c0,5.1-.4,8.9-1.3,11.3-.9,2.4-2.6,3.6-5.1,3.6s-3-.5-3.9-1.5c-.9-1-1.5-2.5-1.9-4.5h0ZM166.3,98.9V1.1h14.9v6h-8.9v91.8h-6ZM194.5,59.4v39.4h6v-39.4h-6ZM209.4,7.1V1.1h-14.9v39.6h-7.3v6h13.3V7.1h8.9ZM218.9,1.1l15.2,97.8h5.1l-14.2-91.8h9l-.9-6h-14.2ZM246,55.8l3.4,26.6h.4l3.4-31.1,5.3-44.2h7l.9-6h-13.9l-5.3,44.2-1.1,10.5h0ZM276.1,98.9V1.1h14.9v6h-8.9v91.8h-6ZM302.1,98.9v-13.2l18.6-65.7h7.7l-20.3,71.7v7.2h-6ZM337.6,92.1v-6h-12.2l-1.7,6h13.8ZM338,7.1V1.1h-34v12.8h6v-6.8h28ZM57.3,98.9V1.1h24.6c5.1,0,8.9,1,11.4,3,1.5,1.2,2.7,2.7,3.6,4.5-2.3-1-5.3-1.6-9-1.6h-24.6v91.8h-6ZM84.8,63.8c0-1.9,0-3.4-.3-4.7,1.4.2,2.4.5,3.3.9,1.1.6,1.9,1.6,2.3,3.2.4,1.5.7,3.7.7,6.6v17c0,3.1,0,5.9.1,8.6,0,1.2,0,2.4,0,3.4h-5.6c-.1-.2-.2-1.1-.3-2.8,0-1.7,0-3.9-.2-6.6,0-2.9,0-5.7-.1-8.6v-17h0ZM97.3,52.9c0,.1.1.3.2.4-.3,0-.5-.1-.8-.2.2,0,.4-.1.6-.2ZM78.3,41.2v6h5.9c1.8,0,3.2-.4,4.1-1.2,1-.8,1.6-2.3,1.9-4.5.4-2.2.6-5.3.6-9.4v-.6c0-3.4-.2-6.1-.5-7.9-.3-1.9-1-3.1-2.1-3.8-.8-.6-2.1-.9-3.7-1,.2,1.7.3,4,.3,6.8v.6c0,4.1-.2,7.3-.6,9.4-.3,2.2-1,3.7-1.9,4.5-.9.8-2.3,1.2-4.1,1.2ZM13.9,1.1L0,98.9h6.9L19.9,7.1h14.6l-.9-6H13.9ZM34.5,98.9h5.2l-1.5-11.4h-5.2l1.5,11.4h0ZM24.6,69.5h6l-3.2-23.6,2.4-19.5h.2l6.6,49.1h-12.8l.7-6Z"/>
  </symbol>
  <!-- COMMERCIAL -->
  <symbol id="commercial" viewBox="0 0 537 100">
    <path d="M503.288 98.89V1.165h14.885V86.23H537v12.66h-33.712Zm-57.315 0 13.94-97.724h19.66l14.829 97.724h-13.884l-2.333-17.435h-15.773l-2.11 17.434h-14.329Zm17.883-29.373h12.774l-6.554-49.084h-.222l-5.998 49.084ZM421.869 98.89V1.165h14.884V98.89h-14.884ZM387.713 100c-4.739 0-8.682-1.092-11.83-3.276-3.147-2.184-5.516-5.367-7.109-9.55-1.555-4.22-2.332-9.31-2.332-15.27V29.317c0-4.479.37-8.514 1.111-12.104.74-3.59 1.943-6.663 3.61-9.217 1.666-2.555 3.887-4.516 6.664-5.886C380.604.74 384.029.056 388.102.056c3.702 0 6.849.61 9.441 1.832 2.629 1.184 4.758 2.906 6.387 5.164 1.666 2.258 2.87 4.997 3.61 8.217.778 3.184 1.166 6.774 1.166 10.772v13.437h-14.384V26.985c0-4.812-.407-8.347-1.222-10.605-.814-2.295-2.443-3.443-4.887-3.443-2.703 0-4.517 1.24-5.443 3.72-.889 2.444-1.333 5.867-1.333 10.273v45.64c0 3.406.185 6.201.556 8.385.407 2.147 1.073 3.739 1.999 4.775.926 1 2.221 1.5 3.888 1.5 2.517 0 4.221-1.185 5.109-3.554.889-2.37 1.333-6.127 1.333-11.272V58.412h14.607v13.826c0 6.181-.722 11.345-2.166 15.491-1.444 4.109-3.74 7.181-6.887 9.217-3.11 2.036-7.165 3.054-12.163 3.054Zm-75.143-1.11V1.165h24.603c5.11 0 8.923 1 11.441 2.998 2.518 2 4.165 4.924 4.943 8.773.815 3.85 1.222 8.551 1.222 14.104 0 5.737-.593 10.253-1.777 13.548-1.148 3.257-3.518 5.441-7.109 6.552 1.703.296 3.128.999 4.276 2.11 1.148 1.073 2.074 2.665 2.777 4.775.703 2.072 1.203 4.756 1.5 8.05.333 3.258.499 7.256.499 11.994v9.161l.111 6.886c.038 2.295.093 4.257.167 5.885.074 1.629.167 2.591.278 2.888h-14.884c-.112-.186-.204-1.13-.278-2.832-.037-1.74-.093-3.943-.167-6.608a4697.49 4697.49 0 0 1-.111-8.606V63.854c0-2.925-.222-5.127-.666-6.608-.408-1.518-1.185-2.573-2.333-3.165-1.111-.592-2.721-.944-4.832-1.055l-4.776-.278V98.89H312.57Zm14.939-57.69h5.943c1.814 0 3.184-.408 4.11-1.222.963-.815 1.611-2.314 1.944-4.498.37-2.184.555-5.33.555-9.439v-.61c0-3.443-.166-6.09-.5-7.94-.333-1.851-1.036-3.129-2.11-3.832-1.037-.703-2.666-1.055-4.888-1.055h-5.054V41.2Zm-59.37 57.69V1.165h32.768v12.826h-17.884V42.42h16.995v12.548h-16.995v31.094h18.55V98.89h-33.434Zm-78.753 0V1.165h18.494l13.885 71.405 13.051-71.405h18.605V98.89h-13.273V62.465l.555-33.426-13.163 69.406h-11.829L201.993 29.04l.555 33.426V98.89h-13.162Zm-78.754 0V1.165h18.495l13.884 71.405 13.052-71.405h18.605V98.89h-13.274V62.465l.556-33.426-13.163 69.406h-11.83L123.24 29.04l.555 33.426V98.89h-13.163ZM75.643 100c-5.072 0-9.22-1.073-12.44-3.22-3.185-2.147-5.536-5.33-7.054-9.55-1.518-4.22-2.277-9.44-2.277-15.659V26.874c0-5.627.74-10.439 2.222-14.436 1.48-3.998 3.832-7.07 7.053-9.218C66.368 1.073 70.59 0 75.81 0c3.924 0 7.238.61 9.941 1.832 2.703 1.222 4.887 2.999 6.554 5.33 1.666 2.296 2.87 5.109 3.61 8.44.777 3.295 1.166 7.052 1.166 11.272v44.697c0 6.22-.74 11.438-2.222 15.658-1.444 4.22-3.74 7.404-6.886 9.55-3.147 2.148-7.257 3.221-12.33 3.221Zm0-12.882c1.852 0 3.24-.555 4.166-1.665.925-1.111 1.536-2.795 1.832-5.053.334-2.295.5-5.183.5-8.662v-45.53c0-4.257-.407-7.533-1.222-9.828-.777-2.332-2.48-3.498-5.11-3.498-2.702 0-4.535 1.129-5.498 3.387-.962 2.22-1.444 5.515-1.444 9.883v45.586c0 3.553.149 6.478.445 8.773.333 2.258.981 3.924 1.944 4.997 1 1.074 2.462 1.61 4.387 1.61ZM21.271 100c-4.74 0-8.682-1.092-11.83-3.276-3.147-2.184-5.516-5.367-7.108-9.55C.778 82.954 0 77.864 0 71.904V29.317c0-4.479.37-8.514 1.11-12.104.741-3.59 1.945-6.663 3.61-9.217C6.388 5.44 8.609 3.48 11.386 2.11S17.587.056 21.66.056c3.703 0 6.85.61 9.442 1.832 2.628 1.184 4.757 2.906 6.386 5.164 1.666 2.258 2.87 4.997 3.61 8.217.778 3.184 1.167 6.774 1.167 10.772v13.437H27.88V26.985c0-4.812-.407-8.347-1.222-10.605-.814-2.295-2.443-3.443-4.887-3.443-2.703 0-4.517 1.24-5.443 3.72-.888 2.444-1.333 5.867-1.333 10.273v45.64c0 3.406.186 6.201.556 8.385.407 2.147 1.074 3.739 2 4.775.925 1 2.22 1.5 3.887 1.5 2.518 0 4.22-1.185 5.11-3.554.888-2.37 1.332-6.127 1.332-11.272V58.412h14.607v13.826c0 6.181-.722 11.345-2.166 15.491-1.444 4.109-3.74 7.181-6.887 9.217C30.324 98.982 26.27 100 21.271 100Z"/>
  </symbol>
  <symbol id="commercial-shadow" viewBox="0 0 537 100">
    <path d="M64.1,97.3c-.3-.2-.6-.4-.9-.5-3.2-2.1-5.5-5.3-7.1-9.6s-2.3-9.4-2.3-15.7V26.9c0-5.6.7-10.4,2.2-14.4,1.5-4,3.8-7.1,7.1-9.2,3.2-2.1,7.4-3.2,12.7-3.2s7.2.6,9.9,1.8c2.7,1.2,4.9,3,6.6,5.3.3.5.6.9.9,1.4-.5-.3-1-.5-1.5-.8-2.7-1.2-6-1.8-9.9-1.8s-9.4,1.1-12.7,3.2-5.6,5.2-7.1,9.2c-1.5,4-2.2,8.8-2.2,14.4v44.7c0,6.2.8,11.4,2.3,15.7.5,1.4,1.1,2.8,1.9,4.1ZM75.6,87.1c1.9,0,3.2-.6,4.2-1.7.9-1.1,1.5-2.8,1.8-5.1.3-2.3.5-5.2.5-8.7V26.2c0-2.9-.2-5.3-.6-7.3,0,0,.2,0,.2,0,2.6,0,4.3,1.2,5.1,3.5.8,2.3,1.2,5.6,1.2,9.8v45.5c0,3.5-.2,6.4-.5,8.7-.3,2.3-.9,3.9-1.8,5.1-.9,1.1-2.3,1.7-4.2,1.7s-3.4-.5-4.4-1.6c-.9-1-1.5-2.4-1.8-4.4h.2ZM376.8,97.3c-.3-.2-.6-.4-.9-.6-3.1-2.2-5.5-5.4-7.1-9.6-1.6-4.2-2.3-9.3-2.3-15.3V29.3c0-4.5.4-8.5,1.1-12.1.7-3.6,1.9-6.7,3.6-9.2,1.7-2.6,3.9-4.5,6.7-5.9,2.8-1.4,6.2-2.1,10.3-2.1s6.8.6,9.4,1.8c2.6,1.2,4.8,2.9,6.4,5.2.4.5.7,1,1,1.6-.5-.3-.9-.5-1.4-.7-2.6-1.2-5.7-1.8-9.4-1.8s-7.5.7-10.3,2.1-5,3.3-6.7,5.9c-1.7,2.6-2.9,5.6-3.6,9.2-.7,3.6-1.1,7.6-1.1,12.1v42.6c0,6,.8,11.1,2.3,15.3.5,1.4,1.2,2.8,2,4.1ZM400.3,39.5v-6.5c0-4.8-.4-8.3-1.2-10.6-.8-2.3-2.4-3.4-4.9-3.4-.2,0-.3,0-.5,0,.4,2.1.6,4.8.6,8v12.5h6ZM388,87.2c2.4,0,4.1-1.2,4.9-3.6.9-2.4,1.3-6.1,1.3-11.3v-14h14.6v6h-8.6v14c0,5.1-.4,8.9-1.3,11.3s-2.6,3.6-5.1,3.6-3-.5-3.9-1.5c-.9-1-1.5-2.5-1.9-4.5h0ZM421.9,98.9V1.2h14.9v6h-8.9v91.7h-6ZM459.9,1.2l-13.9,97.7h6.9l13.1-91.7h14.6l-.9-6h-19.7,0ZM485.7,98.9l-1.5-11.4h-5.2l1.5,11.4h5.2ZM470.6,69.5h6l-3.2-23.6,2.4-19.5h.2l6.6,49.1h-12.8l.7-6h0ZM503.3,1.2v97.7h6V7.2h8.9V1.2h-14.9ZM524.2,86.2v6h12.8v-6h-12.8ZM312.6,98.9V1.2h24.6c5.1,0,8.9,1,11.4,3,1.5,1.2,2.7,2.7,3.6,4.6-2.3-1-5.3-1.6-9-1.6h-24.6v91.7h-6ZM339.8,59.2c.2,1.3.3,2.8.3,4.7v17c0,3.1,0,5.9.1,8.6,0,2.7.1,4.9.2,6.6,0,1.7.2,2.6.3,2.8h5.6c0-1.1,0-2.3,0-3.4,0-2.9,0-5.7-.1-8.6v-17c0-2.9-.2-5.1-.7-6.6-.4-1.5-1.2-2.6-2.3-3.2-.8-.4-1.9-.7-3.3-.9ZM352.7,53.3c0-.1-.1-.3-.2-.4-.2,0-.4.1-.6.2.3,0,.5.1.8.2ZM333.5,41.2v6h5.9c1.8,0,3.2-.4,4.1-1.2,1-.8,1.6-2.3,1.9-4.5.4-2.2.6-5.3.6-9.4v-.6c0-3.4-.2-6.1-.5-7.9-.3-1.9-1-3.1-2.1-3.8-.8-.6-2.1-.9-3.7-1,.2,1.7.3,4,.3,6.8v.6c0,4.1-.2,7.3-.6,9.4-.3,2.2-1,3.7-1.9,4.5-.9.8-2.3,1.2-4.1,1.2h0ZM268.1,1.2v97.7h6V7.2h26.8V1.2h-32.8ZM289,42.4v6h11v-6h-11ZM301.6,92.1v-6h-12.5v6h12.5ZM189.4,98.9V1.2h18.5l1.2,6h-13.7v91.7h-6ZM208.4,61.6l-.4-26.6,12.5,63.4h-4.8l-7.3-36.8ZM240.1,69.6l6.6-34.6-.6,33.4v30.4h-6v-29.3ZM253.4,1.2v6h-12.6l-13.1,71.4-3.7-18.8L234.8,1.2h18.6,0ZM110.6,1.2v97.7h6V7.2h13.7l-1.2-6h-18.5,0ZM129.7,61.6l-.4-26.6,12.5,63.4h-4.8l-7.3-36.8ZM161.4,69.6l6.6-34.6-.6,33.4v30.4h-6v-29.3ZM156.1,1.2l-10.7,58.6,3.7,18.8,13.1-71.4h12.6V1.2h-18.6ZM10.4,97.3c-.3-.2-.6-.4-.9-.6-3.1-2.2-5.5-5.4-7.1-9.6-1.6-4.2-2.3-9.3-2.3-15.3V29.3c0-4.5.4-8.5,1.1-12.1.7-3.6,1.9-6.7,3.6-9.2,1.7-2.6,3.9-4.5,6.7-5.9S17.6,0,21.7,0s6.9.6,9.4,1.8c2.6,1.2,4.8,2.9,6.4,5.2.4.5.7,1,1,1.6-.5-.3-.9-.5-1.4-.7-2.6-1.2-5.7-1.8-9.4-1.8s-7.5.7-10.3,2.1-5,3.3-6.7,5.9c-1.7,2.6-2.9,5.6-3.6,9.2-.7,3.6-1.1,7.6-1.1,12.1v42.6c0,6,.8,11.1,2.3,15.3.5,1.4,1.2,2.8,2,4.1ZM33.9,39.5v-6.5c0-4.8-.4-8.3-1.2-10.6-.8-2.3-2.4-3.4-4.9-3.4-.2,0-.3,0-.5,0,.4,2.1.6,4.8.6,8v12.5h6ZM42.5,64.4h-8.6v14c0,5.1-.4,8.9-1.3,11.3-.9,2.4-2.6,3.6-5.1,3.6s-3-.5-3.9-1.5c-.9-1-1.5-2.5-1.9-4.5,2.4,0,4.1-1.2,4.9-3.6.9-2.4,1.3-6.1,1.3-11.3v-14h14.6v6Z"/>
  </symbol>
  <!-- CONTACT -->
  <symbol id="contact" viewBox="0 0 343 100">
    <path d="M317.171 98.89V14.047h-11.443V1.166H343v12.882h-10.998v84.841h-14.831ZM278.233 100c-4.74 0-8.684-1.092-11.832-3.276-3.147-2.184-5.517-5.367-7.11-9.55-1.555-4.22-2.333-9.31-2.333-15.27V29.317c0-4.479.371-8.514 1.111-12.104.741-3.59 1.944-6.663 3.611-9.217 1.666-2.555 3.888-4.516 6.665-5.886C271.123.74 274.548.056 278.622.056c3.703 0 6.85.61 9.442 1.832 2.63 1.184 4.759 2.906 6.388 5.164 1.667 2.258 2.87 4.997 3.611 8.217.777 3.184 1.166 6.774 1.166 10.772v13.437h-14.386V26.985c0-4.812-.408-8.347-1.222-10.605-.815-2.295-2.444-3.443-4.888-3.443-2.704 0-4.518 1.24-5.444 3.72-.889 2.444-1.333 5.867-1.333 10.273v45.64c0 3.406.185 6.201.555 8.385.408 2.147 1.074 3.739 2 4.775.926 1 2.222 1.5 3.888 1.5 2.518 0 4.222-1.185 5.111-3.554.888-2.37 1.333-6.127 1.333-11.272V58.412h14.609v13.826c0 6.181-.723 11.345-2.167 15.491-1.444 4.109-3.74 7.181-6.888 9.217-3.11 2.036-7.165 3.054-12.164 3.054Zm-77.377-1.11 13.943-97.724h19.663l14.831 97.724h-13.887l-2.333-17.435h-15.775l-2.111 17.434h-14.331Zm17.886-29.373h12.776l-6.554-49.084h-.223l-5.999 49.084ZM175.194 98.89V14.047h-11.443V1.166h37.272v12.882h-10.998v84.841h-14.831Zm-64.545 0V1.165h11.665L143.032 59.8l-1.055-26.652V1.166h13.387V98.89H144.81L123.536 38.2l.833 25.652V98.89h-13.72ZM75.654 100c-5.073 0-9.22-1.073-12.442-3.22-3.185-2.147-5.536-5.33-7.054-9.55-1.519-4.22-2.278-9.44-2.278-15.659V26.874c0-5.627.74-10.439 2.222-14.436 1.481-3.998 3.833-7.07 7.054-9.218C66.378 1.073 70.6 0 75.821 0c3.925 0 7.24.61 9.943 1.832 2.703 1.222 4.888 2.999 6.554 5.33 1.667 2.296 2.87 5.109 3.61 8.44.779 3.295 1.167 7.052 1.167 11.272v44.697c0 6.22-.74 11.438-2.221 15.658-1.445 4.22-3.74 7.404-6.888 9.55C84.838 98.928 80.728 100 75.654 100Zm0-12.882c1.852 0 3.24-.555 4.166-1.665.926-1.111 1.537-2.795 1.833-5.053.334-2.295.5-5.183.5-8.662v-45.53c0-4.257-.407-7.533-1.222-9.828-.777-2.332-2.48-3.498-5.11-3.498-2.703 0-4.536 1.129-5.5 3.387-.962 2.22-1.443 5.515-1.443 9.883v45.586c0 3.553.148 6.478.444 8.773.333 2.258.981 3.924 1.944 4.997 1 1.074 2.463 1.61 4.388 1.61ZM21.274 100c-4.74 0-8.683-1.092-11.831-3.276-3.148-2.184-5.518-5.367-7.11-9.55C.778 82.954 0 77.864 0 71.904V29.317c0-4.479.37-8.514 1.11-12.104.742-3.59 1.945-6.663 3.611-9.217C6.388 5.44 8.61 3.48 11.387 2.11 14.164.74 17.59.056 21.663.056c3.703 0 6.85.61 9.443 1.832 2.63 1.184 4.759 2.906 6.388 5.164 1.666 2.258 2.87 4.997 3.61 8.217.778 3.184 1.167 6.774 1.167 10.772v13.437H27.884V26.985c0-4.812-.407-8.347-1.222-10.605-.814-2.295-2.444-3.443-4.888-3.443-2.703 0-4.518 1.24-5.443 3.72-.89 2.444-1.333 5.867-1.333 10.273v45.64c0 3.406.185 6.201.555 8.385.407 2.147 1.074 3.739 2 4.775.925 1 2.222 1.5 3.888 1.5 2.518 0 4.222-1.185 5.11-3.554.889-2.37 1.333-6.127 1.333-11.272V58.412h14.61v13.826c0 6.181-.723 11.345-2.167 15.491-1.444 4.109-3.74 7.181-6.888 9.217-3.11 2.036-7.166 3.054-12.165 3.054Z"/>
  </symbol>
  <symbol id="contact-shadow" viewBox="0 0 343 100">
    <path d="M64.1,97.3c-.3-.2-.6-.4-.9-.5-3.2-2.1-5.5-5.3-7.1-9.6-1.5-4.2-2.3-9.4-2.3-15.7V26.9c0-5.6.7-10.4,2.2-14.4,1.5-4,3.8-7.1,7.1-9.2,3.2-2.1,7.4-3.2,12.7-3.2s7.2.6,9.9,1.8c2.7,1.2,4.9,3,6.6,5.3.3.5.6.9.9,1.4-.5-.3-1-.5-1.5-.8-2.7-1.2-6-1.8-9.9-1.8s-9.4,1.1-12.7,3.2c-3.2,2.1-5.6,5.2-7.1,9.2-1.5,4-2.2,8.8-2.2,14.4v44.7c0,6.2.8,11.4,2.3,15.7.5,1.4,1.1,2.8,1.9,4.1h0ZM75.7,87.1c1.9,0,3.2-.6,4.2-1.7.9-1.1,1.5-2.8,1.8-5.1.3-2.3.5-5.2.5-8.7V26.2c0-2.9-.2-5.3-.6-7.3,0,0,.2,0,.2,0,2.6,0,4.3,1.2,5.1,3.5.8,2.3,1.2,5.6,1.2,9.8v45.5c0,3.5-.2,6.4-.5,8.7-.3,2.3-.9,3.9-1.8,5.1-.9,1.1-2.3,1.7-4.2,1.7s-3.4-.5-4.4-1.6c-.9-1-1.5-2.4-1.8-4.4h.2ZM267.3,97.3c-.3-.2-.6-.4-.9-.6-3.1-2.2-5.5-5.4-7.1-9.6-1.6-4.2-2.3-9.3-2.3-15.3V29.3c0-4.5.4-8.5,1.1-12.1.7-3.6,1.9-6.7,3.6-9.2,1.7-2.6,3.9-4.5,6.7-5.9,2.8-1.4,6.2-2.1,10.3-2.1s6.9.6,9.4,1.8c2.6,1.2,4.8,2.9,6.4,5.2.4.5.7,1,1,1.6-.5-.3-.9-.5-1.4-.7-2.6-1.2-5.7-1.8-9.4-1.8s-7.5.7-10.3,2.1c-2.8,1.4-5,3.3-6.7,5.9-1.7,2.6-2.9,5.6-3.6,9.2-.7,3.6-1.1,7.6-1.1,12.1v42.6c0,6,.8,11.1,2.3,15.3.5,1.4,1.2,2.8,2,4.1h0ZM299.5,64.4v-6h-14.6v14c0,5.1-.4,8.9-1.3,11.3-.9,2.3-2.5,3.5-4.9,3.6.4,2,1.1,3.5,1.9,4.5.9,1,2.2,1.5,3.9,1.5,2.5,0,4.2-1.2,5.1-3.6.9-2.4,1.3-6.1,1.3-11.3v-14h8.6ZM284.3,19c.4,2.1.6,4.8.6,8v12.5h6v-6.5c0-4.8-.4-8.3-1.2-10.6-.8-2.3-2.4-3.4-4.9-3.4s-.3,0-.5,0h0ZM317.2,20v78.8h6V20h-6ZM343,7.2V1.2h-37.3v12.9h6v-6.9h31.3ZM214.8,1.2l-13.9,97.7h6.9l13.1-91.7h14.6l-.9-6h-19.7ZM233.9,87.5l1.5,11.4h5.2l-1.5-11.4h-5.2ZM225.5,69.5h6l-3.2-23.6,2.4-19.5h.2l6.6,49.1h-12.8l.7-6h0ZM175.2,20v78.8h6V20h-6ZM169.8,14v-6.9h31.3V1.2h-37.3v12.9s6,0,6,0ZM110.6,1.2v97.7h6V7.2h7.8l-2.1-6h-11.7ZM129.9,56.5l14.9,42.4h3.9l-19.2-54.7.4,12.3h0ZM142,33.1l.6,14.3,6.5,18.4-1.1-26.7V7.2h7.4V1.2h-13.4v32ZM10.4,97.3c-.3-.2-.6-.4-.9-.6-3.1-2.2-5.5-5.4-7.1-9.6-1.6-4.2-2.3-9.3-2.3-15.3V29.3c0-4.5.4-8.5,1.1-12.1.7-3.6,1.9-6.7,3.6-9.2,1.7-2.6,3.9-4.5,6.7-5.9C14.2.7,17.6,0,21.7,0s6.9.6,9.4,1.8c2.6,1.2,4.8,2.9,6.4,5.2.4.5.7,1,1,1.6-.5-.3-.9-.5-1.4-.7-2.6-1.2-5.7-1.8-9.4-1.8s-7.5.7-10.3,2.1-5,3.3-6.7,5.9c-1.7,2.6-2.9,5.6-3.6,9.2-.7,3.6-1.1,7.6-1.1,12.1v42.6c0,6,.8,11.1,2.3,15.3.5,1.4,1.2,2.8,2,4.1h0ZM42.5,64.4h-8.6v14c0,5.1-.4,8.9-1.3,11.3s-2.6,3.6-5.1,3.6-3-.5-3.9-1.5c-.9-1-1.5-2.5-1.9-4.5,2.4,0,4.1-1.2,4.9-3.6.9-2.4,1.3-6.1,1.3-11.3v-14h14.6v6h0ZM27.3,19c.4,2.1.6,4.8.6,8v12.5h6v-6.5c0-4.8-.4-8.3-1.2-10.6-.8-2.3-2.4-3.4-4.9-3.4-.2,0-.3,0-.5,0h0Z"/>
  </symbol>
  <!-- DASHBOARD -->
  <symbol id="dashboard" viewBox="0 0 473 100">
    <path d="M430.535 98.89V1.165h21.926c4.959 0 8.937 1 11.935 2.998 2.998 1.962 5.162 4.812 6.495 8.551 1.369 3.739 2.053 8.255 2.053 13.548L473 70.35c0 6.404-.703 11.734-2.109 15.99-1.37 4.22-3.59 7.367-6.662 9.44-3.071 2.073-7.16 3.11-12.267 3.11h-21.427Zm14.877-11.55h4.884c1.74 0 3.183-.351 4.33-1.055 1.184-.703 2.054-1.943 2.609-3.72.592-1.814.888-4.368.888-7.662l-.055-48.251c0-4.997-.611-8.588-1.832-10.772-1.221-2.184-3.368-3.276-6.439-3.276h-4.385V87.34Zm-69.943 11.55V1.165h24.591c5.107 0 8.919 1 11.435 2.998 2.516 2 4.163 4.924 4.94 8.773.815 3.85 1.222 8.551 1.222 14.104 0 5.737-.592 10.253-1.777 13.548-1.147 3.257-3.515 5.441-7.105 6.552 1.702.296 3.127.999 4.274 2.11 1.148 1.073 2.073 2.665 2.776 4.775.703 2.072 1.202 4.756 1.499 8.05.333 3.258.499 7.256.499 11.994v9.161l.111 6.886c.037 2.295.093 4.257.167 5.885.074 1.629.166 2.591.277 2.888h-14.876c-.111-.186-.204-1.13-.278-2.832a1047.8 1047.8 0 0 0-.166-6.608 4697.49 4697.49 0 0 1-.111-8.606V63.854c0-2.925-.223-5.127-.667-6.608-.407-1.518-1.184-2.573-2.331-3.165-1.11-.592-2.72-.944-4.829-1.055l-4.774-.278V98.89h-14.877Zm14.932-57.69h5.94c1.813 0 3.182-.408 4.108-1.222.962-.815 1.609-2.314 1.942-4.498.37-2.184.556-5.33.556-9.439v-.61c0-3.443-.167-6.09-.5-7.94-.333-1.851-1.036-3.129-2.109-3.832-1.037-.703-2.665-1.055-4.885-1.055h-5.052V41.2Zm-72.218 57.69 13.933-97.724h19.65l14.821 97.724H352.71l-2.331-17.435h-15.765l-2.11 17.434h-14.321Zm17.874-29.373h12.767l-6.55-49.084h-.222l-5.995 49.084ZM288.985 100c-5.07 0-9.215-1.073-12.435-3.22-3.182-2.147-5.532-5.33-7.049-9.55-1.518-4.22-2.276-9.44-2.276-15.659V26.874c0-5.627.74-10.439 2.22-14.436 1.48-3.998 3.83-7.07 7.05-9.218C279.714 1.073 283.933 0 289.151 0c3.923 0 7.235.61 9.936 1.832 2.702 1.222 4.885 2.999 6.551 5.33 1.665 2.296 2.868 5.109 3.608 8.44.777 3.295 1.165 7.052 1.165 11.272v44.697c0 6.22-.74 11.438-2.22 15.658-1.443 4.22-3.738 7.404-6.883 9.55-3.146 2.148-7.253 3.221-12.323 3.221Zm0-12.882c1.85 0 3.238-.555 4.163-1.665.925-1.111 1.536-2.795 1.832-5.053.333-2.295.499-5.183.499-8.662v-45.53c0-4.257-.407-7.533-1.221-9.828-.777-2.332-2.479-3.498-5.107-3.498-2.701 0-4.533 1.129-5.495 3.387-.963 2.22-1.444 5.515-1.444 9.883v45.586c0 3.553.148 6.478.445 8.773.333 2.258.98 3.924 1.942 4.997 1 1.074 2.461 1.61 4.386 1.61ZM213.824 98.89V1.165h21.149c4.922 0 8.845.759 11.769 2.277 2.923 1.48 5.032 3.85 6.328 7.107 1.332 3.22 1.998 7.459 1.998 12.715v2.998c0 5.071-.666 9.254-1.998 12.549-1.296 3.257-3.479 5.534-6.55 6.83 2.553.85 4.588 2.387 6.106 4.608 1.554 2.184 2.664 4.867 3.33 8.05.666 3.147.999 6.608.999 10.384v2.499c-.037 6.515-.795 11.826-2.275 15.935-1.481 4.072-3.794 7.052-6.939 8.94-3.146 1.888-7.254 2.831-12.323 2.831h-21.594Zm14.877-11.55h5.273c1.962 0 3.516-.425 4.663-1.277 1.184-.888 2.036-2.35 2.554-4.386.518-2.036.777-4.812.777-8.329v-7.884c0-4.739-.463-8.181-1.388-10.328-.888-2.184-2.757-3.276-5.607-3.276h-6.272v35.48Zm0-46.64h5.495c1.296 0 2.35-.186 3.164-.556.815-.37 1.444-1 1.888-1.887.444-.926.74-2.203.888-3.832.185-1.628.277-3.701.277-6.218V22.32c0-2.628-.24-4.627-.721-5.997s-1.221-2.295-2.221-2.776c-.962-.481-2.22-.722-3.774-.722h-4.996V40.7Zm-72.607 58.19V1.165h14.877V40.7h13.322V1.166h14.877V98.89h-14.877V53.47h-13.322v45.42h-14.877ZM125.286 100c-4.071 0-7.475-.63-10.214-1.888-2.701-1.295-4.848-3.165-6.439-5.608-1.554-2.48-2.665-5.478-3.331-8.995-.666-3.553-.999-7.588-.999-12.104v-8.718h14.1v9.828c0 5.257.444 9.032 1.332 11.327.888 2.295 2.646 3.443 5.273 3.443 1.777 0 3.109-.407 3.997-1.222.925-.851 1.536-2.184 1.832-3.998.333-1.85.499-4.256.499-7.218 0-3.664-.777-7.014-2.331-10.05-1.517-3.035-3.83-6.181-6.939-9.439l-7.216-7.44a54.304 54.304 0 0 1-5.44-6.608c-1.591-2.332-2.868-4.923-3.83-7.773-.925-2.887-1.388-6.108-1.388-9.661 0-5.146.629-9.495 1.887-13.049 1.259-3.553 3.387-6.237 6.384-8.05C115.461.924 119.568 0 124.786 0c3.923 0 7.143.61 9.659 1.832 2.553 1.185 4.533 2.943 5.94 5.275 1.443 2.295 2.461 5.108 3.053 8.44.592 3.294.888 7.07.888 11.327v6.052h-13.711V25.93c0-2.961-.167-5.423-.5-7.385-.296-1.962-.869-3.424-1.721-4.386-.851-1-2.09-1.5-3.719-1.5-1.554 0-2.812.352-3.774 1.056-.963.666-1.666 1.72-2.11 3.165-.407 1.406-.61 3.239-.61 5.497 0 2.035.259 3.794.777 5.274.518 1.481 1.313 2.906 2.387 4.276 1.073 1.37 2.405 2.906 3.996 4.608l8.049 8.718c3.849 4.145 6.847 8.458 8.993 12.937 2.146 4.479 3.22 9.476 3.22 14.992 0 5.848-.63 10.771-1.888 14.77-1.258 3.96-3.367 6.958-6.328 8.994-2.96 2.036-6.994 3.054-12.101 3.054Zm-75.105-1.11L64.114 1.165h19.65L98.587 98.89H84.708l-2.331-17.435H66.612l-2.11 17.434H50.181Zm17.874-29.373h12.767l-6.55-49.084h-.222l-5.995 49.084ZM0 98.89V1.165h21.926c4.96 0 8.938 1 11.935 2.998 2.998 1.962 5.163 4.812 6.495 8.551 1.369 3.739 2.054 8.255 2.054 13.548l.055 44.087c0 6.404-.703 11.734-2.11 15.99-1.368 4.22-3.589 7.367-6.66 9.44-3.072 2.073-7.161 3.11-12.268 3.11H0Zm14.877-11.55h4.885c1.739 0 3.182-.351 4.33-1.055 1.184-.703 2.053-1.943 2.608-3.72.592-1.814.888-4.368.888-7.662l-.055-48.251c0-4.997-.61-8.588-1.832-10.772-1.221-2.184-3.367-3.276-6.44-3.276h-4.384V87.34Z"/>
  </symbol>
  <symbol id="dashboard-shadow" viewBox="0 0 473 100">
    <path d="M114.1,97.6c-1.3-2.3-2.2-5-2.8-8.1-.7-3.6-1-7.6-1-12.1v-8.7h8.1v-6h-14.1v8.7c0,4.5.3,8.6,1,12.1.7,3.5,1.8,6.5,3.3,9,1.4,2.1,3.3,3.9,5.5,5.1ZM130.1,18.7c.2,0,.4,0,.5,0,1.6,0,2.9.5,3.7,1.5.9,1,1.4,2.4,1.7,4.4.3,2,.5,4.4.5,7.4v1h-6v-7c0-2.9-.2-5.3-.5-7.3h0ZM141,8.1c-.2,0-.3-.2-.5-.2-2.5-1.2-5.7-1.8-9.7-1.8s-9.3.9-12.3,2.8c-3,1.8-5.1,4.5-6.4,8.1-1.3,3.6-1.9,7.9-1.9,13s.5,6.8,1.4,9.7c1,2.9,2.2,5.4,3.8,7.8,1.6,2.3,3.5,4.6,5.4,6.6l7.2,7.4c3.1,3.3,5.4,6.4,6.9,9.4,1.6,3,2.3,6.4,2.3,10.1s-.2,5.4-.5,7.2c-.3,1.8-.9,3.1-1.8,4-.9.8-2.2,1.2-4,1.2-2.6,0-4.4-1.1-5.3-3.4-.3-.7-.5-1.6-.7-2.6,1.8,0,3.1-.4,4-1.2.9-.9,1.5-2.2,1.8-4,.3-1.8.5-4.3.5-7.2s-.8-7-2.3-10.1c-1.5-3-3.8-6.2-6.9-9.4l-7.2-7.4c-2-2.1-3.8-4.3-5.4-6.6-1.6-2.3-2.9-4.9-3.8-7.8-.9-2.9-1.4-6.1-1.4-9.7,0-5.1.6-9.5,1.9-13,1.3-3.6,3.4-6.2,6.4-8.1,3-1.9,7.1-2.8,12.3-2.8s7.1.6,9.7,1.8c2.6,1.2,4.5,2.9,5.9,5.3.2.3.4.6.6,1h0ZM277.4,97.3c-.3-.2-.6-.4-.9-.5-3.2-2.1-5.5-5.3-7-9.6-1.5-4.2-2.3-9.4-2.3-15.7V26.9c0-5.6.7-10.4,2.2-14.4,1.5-4,3.8-7.1,7-9.2,3.2-2.1,7.4-3.2,12.7-3.2s7.2.6,9.9,1.8c2.7,1.2,4.9,3,6.6,5.3.3.5.6.9.9,1.4-.5-.3-1-.5-1.5-.8-2.7-1.2-6-1.8-9.9-1.8s-9.4,1.1-12.7,3.2c-3.2,2.1-5.6,5.2-7,9.2-1.5,4-2.2,8.8-2.2,14.4v44.7c0,6.2.8,11.4,2.3,15.7.5,1.4,1.1,2.8,1.9,4.1ZM289,87.1c1.9,0,3.2-.6,4.2-1.7.9-1.1,1.5-2.8,1.8-5.1.3-2.3.5-5.2.5-8.7V26.2c0-2.9-.2-5.3-.6-7.3,0,0,.2,0,.2,0,2.6,0,4.3,1.2,5.1,3.5.8,2.3,1.2,5.6,1.2,9.8v45.5c0,3.5-.2,6.4-.5,8.7-.3,2.3-.9,3.9-1.8,5.1-.9,1.1-2.3,1.7-4.2,1.7s-3.4-.5-4.4-1.6c-.9-1-1.5-2.4-1.8-4.4h.2s0,0,0,0ZM332.1,1.2l-13.9,97.7h6.9l13.1-91.7h14.6l-.9-6h-19.7ZM357.9,98.9l-1.5-11.4h-5.2l1.5,11.4h5.2ZM342.8,69.5h6l-3.1-23.6,2.4-19.5h.2l6.5,49.1h-12.8l.7-6h0ZM375.5,98.9V1.2h24.6c5.1,0,8.9,1,11.4,3,1.5,1.2,2.7,2.7,3.6,4.6-2.3-1-5.3-1.5-9-1.5h-24.6v91.7h-6ZM402.7,59.2c.2,1.3.3,2.8.3,4.7v17c0,3.1,0,5.9.1,8.6,0,2.7.1,4.9.2,6.6,0,1.7.2,2.6.3,2.8h5.6c0-1,0-2.2,0-3.4,0-2.9,0-5.7-.1-8.6v-17c0-2.9-.2-5.1-.7-6.6-.4-1.5-1.2-2.6-2.3-3.2-.8-.4-1.9-.7-3.3-.9h0ZM415.6,53.3c0-.1-.1-.3-.2-.4-.2,0-.4.1-.6.2.3,0,.5.1.8.2h0ZM396.4,41.2v6h5.9c1.8,0,3.2-.4,4.1-1.2,1-.8,1.6-2.3,1.9-4.5.4-2.2.6-5.3.6-9.4v-.6c0-3.4-.2-6.1-.5-7.9-.3-1.9-1-3.1-2.1-3.8-.8-.6-2.1-.9-3.7-1,.2,1.7.3,4,.3,6.8v.6c0,4.1-.2,7.3-.6,9.4-.3,2.2-1,3.7-1.9,4.5-.9.8-2.3,1.2-4,1.2h0ZM430.5,98.9V1.2h21.9c5,0,8.9,1,11.9,3,2.1,1.4,3.8,3.2,5.1,5.4-2.9-1.6-6.5-2.4-11-2.4h-21.9v91.7h-6ZM451.4,87.3v6.1h4.9c1.7,0,3.2-.4,4.3-1.1,1.2-.7,2.1-1.9,2.6-3.7.6-1.8.9-4.4.9-7.7v-48.3c0-5-.7-8.6-1.9-10.8-1-1.8-2.7-2.9-4.9-3.2.5,2.1.8,4.7.8,8v48.2c0,3.3-.2,5.8-.8,7.7-.6,1.8-1.4,3-2.6,3.7-.9.5-2,.9-3.2,1ZM213.8,1.2v97.7h6V7.2h21.1c4.8,0,8.7.7,11.6,2.2-1.3-2.6-3.2-4.6-5.8-5.9-2.9-1.5-6.8-2.3-11.8-2.3h-21.1ZM253.8,52.1c-.2-.3-.3-.6-.5-.9-.3.1-.5.2-.8.4.4.1.9.3,1.3.5ZM234.7,87.3c1.6,0,2.9-.5,3.9-1.3,1.2-.9,2-2.3,2.6-4.4s.8-4.8.8-8.3v-7.9c0-3.1-.2-5.6-.6-7.6,2.6,0,4.4,1.2,5.2,3.3.9,2.1,1.4,5.6,1.4,10.3v7.9c0,3.5-.3,6.3-.8,8.3-.5,2-1.4,3.5-2.6,4.4-1.1.9-2.7,1.3-4.7,1.3h-5.3v-6h0ZM234.7,40.7c1.1,0,2-.2,2.7-.5.8-.4,1.4-1,1.9-1.9.4-.9.7-2.2.9-3.8.2-1.6.3-3.7.3-6.2v-5.9c0-1.3,0-2.5-.2-3.5,1.3,0,2.4.3,3.2.7,1,.5,1.7,1.4,2.2,2.8.5,1.4.7,3.4.7,6v5.9c0,2.5,0,4.6-.3,6.2-.1,1.6-.4,2.9-.9,3.8-.4.9-1.1,1.5-1.9,1.9-.8.4-1.9.6-3.2.6h-5.5v-6h0ZM156.1,98.9V1.2h14.9v6h-8.9v91.7h-6ZM184.3,59.5v39.4h6v-39.4h-6ZM177,40.7v6h13.3V7.2h8.9V1.2h-14.9v39.5h-7.3ZM50.2,98.9L64.1,1.2h19.7l.9,6h-14.6l-13.1,91.7h-6.9ZM83.2,87.5l1.5,11.4h5.2l-1.5-11.4h-5.2ZM74.8,69.5h6l-3.2-23.6,2.4-19.5h.2l6.6,49.1h-12.8l.7-6ZM0,1.2v97.7h6V7.2h21.9c4.5,0,8.1.8,11,2.4-1.3-2.2-3-4.1-5.1-5.4-3-2-7-3-11.9-3,0,0-21.9,0-21.9,0ZM20.9,87.3c1.2-.1,2.3-.5,3.2-1,1.2-.7,2.1-1.9,2.6-3.7.6-1.8.9-4.4.9-7.7V26.7c0-3.2-.3-5.9-.8-8,2.3.3,3.9,1.4,4.9,3.2,1.2,2.2,1.8,5.8,1.8,10.8v48.3c0,3.3-.2,5.8-.8,7.7-.6,1.8-1.4,3-2.6,3.7-1.1.7-2.6,1.1-4.3,1.1h-4.9s0-6.1,0-6.1Z"/>
  </symbol>
  <!-- GLOB3D -->
  <symbol id="glob3d" viewBox="0 0 303 100">
    <path d="M260.57 98.89V1.165h21.908c4.955 0 8.93 1 11.925 2.998 2.995 1.962 5.158 4.812 6.489 8.551 1.368 3.739 2.053 8.255 2.053 13.548L303 70.35c0 6.404-.703 11.734-2.108 15.99-1.368 4.22-3.586 7.367-6.655 9.44-3.069 2.073-7.155 3.11-12.258 3.11H260.57Zm14.864-11.55h4.881c1.738 0 3.18-.351 4.326-1.055 1.184-.703 2.053-1.943 2.607-3.72.592-1.814.888-4.368.888-7.662l-.056-48.251c0-4.997-.61-8.588-1.83-10.772-1.22-2.184-3.365-3.276-6.434-3.276h-4.382V87.34ZM226.016 100c-7.58 0-12.849-2.258-15.807-6.774-2.921-4.553-4.382-11.438-4.382-20.655v-6.386h13.922v6.775c0 3.294.147 5.996.443 8.106.296 2.11.925 3.665 1.886 4.664.961 1 2.44 1.5 4.437 1.5 1.96 0 3.439-.593 4.437-1.778.999-1.221 1.664-3.035 1.997-5.44.37-2.444.555-5.48.555-9.107 0-4.257-.241-7.7-.721-10.328-.481-2.665-1.369-4.608-2.663-5.83-1.294-1.221-3.161-1.832-5.602-1.832h-4.215V41.588h4.104c2.367 0 4.197-.518 5.491-1.555 1.332-1.073 2.256-2.757 2.774-5.052.554-2.333.832-5.386.832-9.162 0-3.48-.259-6.145-.777-7.996-.518-1.85-1.276-3.128-2.274-3.83-.998-.741-2.2-1.111-3.605-1.111-1.664 0-2.977.444-3.938 1.332-.961.852-1.645 2.24-2.052 4.165-.37 1.887-.555 4.405-.555 7.551v2.943h-14.365v-3.054c0-8.736 1.534-15.214 4.603-19.434 3.069-4.22 8.394-6.33 15.974-6.33 7.395 0 12.812 2.147 16.251 6.441 3.439 4.294 5.158 10.735 5.158 19.323 0 5.145-.795 9.587-2.385 13.326-1.59 3.702-4.141 6.2-7.654 7.496 2.589 1.184 4.622 2.924 6.101 5.22 1.479 2.294 2.533 5.052 3.162 8.272.628 3.184.943 6.793.943 10.828 0 9.513-1.683 16.731-5.048 21.654-3.327 4.923-9.003 7.385-17.027 7.385Zm-73.268-1.11V1.165h21.132c4.918 0 8.837.759 11.758 2.277 2.921 1.48 5.029 3.85 6.323 7.107 1.331 3.22 1.997 7.459 1.997 12.715v2.998c0 5.071-.666 9.254-1.997 12.549-1.294 3.257-3.476 5.534-6.545 6.83 2.552.85 4.585 2.387 6.101 4.608 1.553 2.184 2.663 4.867 3.328 8.05.666 3.147.999 6.608.999 10.384v2.499c-.037 6.515-.795 11.826-2.275 15.935-1.479 4.072-3.79 7.052-6.933 8.94-3.142 1.888-7.247 2.831-12.313 2.831h-21.575Zm14.864-11.55h5.269c1.96 0 3.513-.425 4.659-1.277 1.184-.888 2.034-2.35 2.552-4.386.517-2.036.776-4.812.776-8.329v-7.884c0-4.739-.462-8.181-1.386-10.328-.888-2.184-2.755-3.276-5.602-3.276h-6.268v35.48Zm0-46.64h5.491c1.294 0 2.348-.186 3.162-.556.813-.37 1.442-1 1.885-1.887.444-.926.74-2.203.888-3.832.185-1.628.277-3.701.277-6.218V22.32c0-2.628-.24-4.627-.721-5.997-.48-1.37-1.22-2.295-2.218-2.776-.962-.481-2.219-.722-3.772-.722h-4.992V40.7ZM117.806 100c-5.066 0-9.207-1.073-12.424-3.22-3.18-2.147-5.528-5.33-7.044-9.55-1.516-4.22-2.274-9.44-2.274-15.659V26.874c0-5.627.74-10.439 2.218-14.436 1.48-3.998 3.827-7.07 7.044-9.218C108.543 1.073 112.758 0 117.972 0c3.919 0 7.229.61 9.928 1.832 2.699 1.222 4.881 2.999 6.545 5.33 1.664 2.296 2.865 5.109 3.605 8.44.776 3.295 1.165 7.052 1.165 11.272v44.697c0 6.22-.74 11.438-2.219 15.658-1.442 4.22-3.734 7.404-6.877 9.55-3.143 2.148-7.248 3.221-12.313 3.221Zm0-12.882c1.848 0 3.235-.555 4.159-1.665.925-1.111 1.535-2.795 1.831-5.053.332-2.295.499-5.183.499-8.662v-45.53c0-4.257-.407-7.533-1.22-9.828-.777-2.332-2.478-3.498-5.103-3.498-2.699 0-4.53 1.129-5.491 3.387-.961 2.22-1.442 5.515-1.442 9.883v45.586c0 3.553.148 6.478.444 8.773.332 2.258.98 3.924 1.941 4.997.998 1.074 2.459 1.61 4.382 1.61ZM56.684 98.89V1.165H71.55V86.23h18.8v12.66H56.684Zm-37.105.999c-5.88 0-10.612-2.314-14.199-6.94C1.793 88.283 0 80.732 0 70.293V27.818c0-4.368.407-8.273 1.22-11.716.85-3.442 2.145-6.348 3.883-8.717 1.775-2.406 4.067-4.22 6.877-5.442C14.79.685 18.174.056 22.13.056c4.29 0 7.784.647 10.483 1.943 2.7 1.258 4.77 3.11 6.212 5.552 1.479 2.406 2.496 5.368 3.05 8.884.555 3.517.832 7.496.832 11.938v6.94H28.841V25.098c0-4.405-.462-7.533-1.386-9.384-.888-1.85-2.589-2.776-5.103-2.776-2.773 0-4.696 1.092-5.768 3.276-1.073 2.147-1.609 5.978-1.609 11.494v42.365c0 6.145.444 10.55 1.331 13.215.925 2.628 2.83 3.942 5.713 3.942 2.81 0 4.789-1.35 5.935-4.053 1.183-2.74 1.775-7.292 1.775-13.66V56.359H22.24V45.53h20.466v53.36h-6.655l-2.274-9.606c-.814 3.368-2.552 5.978-5.214 7.829-2.625 1.85-5.62 2.776-8.985 2.776Z"/>
  </symbol>
  <symbol id="glob3d-shadow" viewBox="0 0 303 100">
    <path d="M135.4,8.6c-.5-.3-1-.5-1.5-.8-2.7-1.2-6-1.8-9.9-1.8s-9.4,1.1-12.6,3.2c-3.2,2.1-5.6,5.2-7,9.2-1.5,4-2.2,8.8-2.2,14.4v44.7c0,6.2.8,11.4,2.3,15.7.5,1.4,1.1,2.8,1.9,4.1-.3-.2-.6-.4-.9-.6-3.2-2.1-5.5-5.3-7-9.6s-2.3-9.4-2.3-15.7V26.9c0-5.6.7-10.4,2.2-14.4,1.5-4,3.8-7.1,7-9.2,3.2-2.1,7.4-3.2,12.6-3.2s7.2.6,9.9,1.8c2.7,1.2,4.9,3,6.5,5.3.3.5.6.9.9,1.4h0ZM122,85.5c-.9,1.1-2.3,1.7-4.2,1.7s-.2,0-.2,0c.4,2,1,3.4,1.8,4.4,1,1.1,2.5,1.6,4.4,1.6s3.2-.6,4.2-1.7c.9-1.1,1.5-2.8,1.8-5.1.3-2.3.5-5.2.5-8.7v-45.5c0-4.3-.4-7.5-1.2-9.8-.8-2.3-2.5-3.5-5.1-3.5,0,0-.2,0-.2,0,.4,2,.6,4.4.6,7.3v45.5c0,3.5-.2,6.4-.5,8.7-.3,2.3-.9,3.9-1.8,5.1h0ZM215.4,97.9c-2.4-4.5-3.6-10.9-3.6-19.3v-6.4h7.9v-6h-13.9v6.4c0,9.2,1.5,16.1,4.4,20.7,1.3,2,3,3.5,5.2,4.6ZM244.7,53c-.3-.1-.5-.3-.8-.4.2,0,.3-.1.5-.2.1.2.2.4.3.6h0ZM244.3,8.7c-3.1-1.8-7-2.6-11.7-2.6-7.6,0-12.9,2.1-16,6.3-2.7,3.7-4.2,9.2-4.5,16.5h-6.1v-3.1c0-8.7,1.5-15.2,4.6-19.4C213.6,2.2,218.9,0,226.5,0s12.8,2.1,16.3,6.4c.6.7,1.1,1.4,1.5,2.2h0ZM226.5,87.2c-.1,0-.2,0-.3,0,.3,2,.9,3.5,1.9,4.5,1,1,2.4,1.5,4.4,1.5s3.4-.6,4.4-1.8c1-1.2,1.7-3,2-5.4.4-2.4.6-5.5.6-9.1s-.2-7.7-.7-10.3c-.5-2.7-1.4-4.6-2.7-5.8-.9-.9-2.2-1.4-3.7-1.7.1.5.2,1,.3,1.5.5,2.6.7,6.1.7,10.3s-.2,6.7-.6,9.1c-.3,2.4-1,4.2-2,5.4-1,1.2-2.5,1.8-4.4,1.8h0ZM224.5,52.9c.6,0,1.2,0,1.8.1v-5.5h4.1c2.4,0,4.2-.5,5.5-1.6,1.3-1.1,2.3-2.8,2.8-5.1.6-2.3.8-5.4.8-9.2s-.3-6.1-.8-8c-.5-1.9-1.3-3.1-2.3-3.8-1-.7-2.1-1.1-3.5-1.1.4,1.8.5,4.1.5,6.9s-.3,6.8-.8,9.2c-.5,2.3-1.4,4-2.8,5.1-1.3,1-3.1,1.6-5.5,1.6h-4.1v11.3h4.2ZM260.6,1.2v97.7h6V7.2h21.9c4.5,0,8.1.8,11,2.4-1.3-2.2-3-4.1-5.1-5.4-3-2-7-3-11.9-3h-21.9ZM281.4,87.3c1.2-.1,2.3-.5,3.2-1,1.2-.7,2.1-1.9,2.6-3.7.6-1.8.9-4.4.9-7.7V26.7c0-3.2-.3-5.9-.8-8,2.3.3,3.9,1.4,4.9,3.2,1.2,2.2,1.8,5.8,1.8,10.8v48.2c0,3.3-.2,5.8-.8,7.7-.6,1.8-1.4,3-2.6,3.7-1.1.7-2.6,1.1-4.3,1.1h-4.9v-6.1ZM152.7,98.9V1.2h21.1c4.9,0,8.8.8,11.8,2.3,2.5,1.3,4.5,3.3,5.8,5.9-2.9-1.4-6.7-2.2-11.5-2.2h-21.1v91.7h-6ZM192.7,52.1c-.2-.3-.3-.6-.5-.9-.3.1-.5.2-.8.4.4.1.9.3,1.3.5ZM173.6,87.3v6h5.3c2,0,3.5-.4,4.7-1.3,1.2-.9,2-2.3,2.6-4.4.5-2,.8-4.8.8-8.3v-7.9c0-4.7-.5-8.2-1.4-10.3-.8-2.1-2.6-3.2-5.2-3.3.4,2,.6,4.5.6,7.6v7.9c0,3.5-.3,6.3-.8,8.3-.5,2-1.4,3.5-2.6,4.4-1,.7-2.3,1.2-3.9,1.3ZM173.6,40.7v6h5.5c1.3,0,2.3-.2,3.2-.6.8-.4,1.4-1,1.9-1.9.4-.9.7-2.2.9-3.8.2-1.6.3-3.7.3-6.2v-5.9c0-2.6-.2-4.6-.7-6-.5-1.4-1.2-2.3-2.2-2.8-.9-.4-1.9-.7-3.2-.7.1,1,.2,2.2.2,3.5v5.9c0,2.5,0,4.6-.3,6.2-.1,1.6-.4,2.9-.9,3.8-.4.9-1.1,1.5-1.9,1.9-.7.3-1.6.5-2.7.5h0ZM56.7,98.9V1.2h14.9v6h-8.9v91.7h-6ZM90.3,92.2v-6h-12.8v6h12.8ZM33.8,89.5v-.2c0,.2-.1.4-.2.6-1.2,2.2-3,3.4-5.6,3.4s-4.8-1.3-5.7-3.9c-.2-.7-.4-1.4-.5-2.1h.2c2.8,0,4.8-1.3,5.9-4.1,1.2-2.7,1.8-7.3,1.8-13.7v-7.2h6v13.2c0,6.4-.6,10.9-1.8,13.7,0,0,0,.2-.1.3ZM10.4,97.5c-1.9-1.1-3.5-2.6-5-4.5-3.6-4.7-5.4-12.2-5.4-22.7V27.8c0-4.4.4-8.3,1.2-11.7.9-3.4,2.1-6.3,3.9-8.7,1.8-2.4,4.1-4.2,6.9-5.4C14.8.7,18.2,0,22.1,0s7.8.6,10.5,1.9c2.7,1.3,4.8,3.1,6.2,5.6.2.3.3.5.5.8-.2-.1-.4-.2-.7-.3-2.7-1.3-6.2-1.9-10.5-1.9s-7.3.6-10.1,1.9c-2.8,1.2-5.1,3-6.9,5.4-1.7,2.4-3,5.3-3.9,8.7-.8,3.4-1.2,7.3-1.2,11.7v42.5c0,9.4,1.5,16.5,4.4,21.2ZM34.8,35.3v-4.2c0-4.4-.5-7.5-1.4-9.4-.9-1.8-2.6-2.8-5-2.8.3,1.7.4,3.7.4,6.2v10.2h6ZM38.4,98.9c.6-1.1,1.1-2.3,1.4-3.6l.9,3.6h-2.2ZM42.7,51.5v-6h-20.5v10.8h6v-4.8h14.5Z"/>
  </symbol>
  <!-- HYDRAPP -->
  <symbol id="hydrapp" viewBox="0 0 372 100">
    <path d="M328.736 100V0h22.938c3.974 0 7.267.606 9.879 1.818 2.65 1.212 4.732 3.012 6.246 5.398 1.514 2.386 2.592 5.34 3.236 8.863.643 3.485.965 7.52.965 12.103v2.102c0 6.44-.568 11.932-1.703 16.477-1.098 4.508-3.085 7.936-5.962 10.284-2.876 2.349-6.927 3.523-12.15 3.523h-8.233V100h-15.216Zm15.216-51.989h5.224c2.233 0 3.899-.568 4.996-1.704 1.098-1.137 1.817-3.012 2.158-5.625.378-2.652.567-6.174.567-10.568v-1.932c-.037-5.417-.511-9.508-1.419-12.273-.908-2.803-2.971-4.205-6.189-4.205h-5.337v36.307ZM275.139 100V0h22.938c3.974 0 7.267.606 9.879 1.818 2.65 1.212 4.731 3.012 6.245 5.398 1.515 2.386 2.593 5.34 3.237 8.863.643 3.485.965 7.52.965 12.103v2.102c0 6.44-.568 11.932-1.703 16.477-1.098 4.508-3.085 7.936-5.962 10.284-2.877 2.349-6.927 3.523-12.15 3.523h-8.233V100h-15.216Zm15.216-51.989h5.224c2.233 0 3.898-.568 4.996-1.704 1.098-1.137 1.817-3.012 2.158-5.625.378-2.652.567-6.174.567-10.568v-1.932c-.037-5.417-.511-9.508-1.419-12.273-.908-2.803-2.971-4.205-6.189-4.205h-5.337v36.307ZM216.546 100 230.797 0h20.099l15.159 100h-14.194l-2.385-17.84h-16.124L231.194 100h-14.648Zm18.282-30.057h13.058l-6.699-50.227h-.227l-6.132 50.227ZM166.128 100V0h25.152c5.224 0 9.122 1.023 11.696 3.068 2.574 2.046 4.258 5.038 5.053 8.978.833 3.939 1.249 8.75 1.249 14.431 0 5.872-.605 10.493-1.816 13.864-1.174 3.333-3.596 5.568-7.268 6.704 1.741.303 3.199 1.023 4.372 2.16 1.173 1.098 2.12 2.727 2.839 4.886.719 2.121 1.23 4.867 1.533 8.239.34 3.333.511 7.424.511 12.272v9.375l.113 7.046c.038 2.348.095 4.356.171 6.023.075 1.666.17 2.651.283 2.954H194.8c-.113-.19-.208-1.155-.284-2.898a993.09 993.09 0 0 0-.17-6.761c-.038-2.727-.076-5.663-.113-8.807V64.148c0-2.993-.228-5.246-.682-6.762-.416-1.553-1.211-2.632-2.384-3.238-1.136-.606-2.782-.966-4.94-1.08l-4.883-.284V100h-15.216Zm15.273-59.034h6.075c1.855 0 3.255-.417 4.202-1.25.984-.833 1.646-2.367 1.987-4.602.378-2.235.568-5.455.568-9.66v-.625c0-3.522-.171-6.23-.511-8.125-.341-1.893-1.06-3.2-2.158-3.92-1.06-.72-2.725-1.08-4.996-1.08h-5.167v29.262ZM108.897 100V0h22.427c5.072 0 9.141 1.023 12.207 3.068 3.066 2.008 5.28 4.924 6.643 8.75 1.4 3.826 2.101 8.447 2.101 13.864l.057 45.114c0 6.552-.72 12.007-2.158 16.363-1.4 4.318-3.672 7.538-6.813 9.66-3.142 2.12-7.324 3.181-12.548 3.181h-21.916Zm15.217-11.818h4.996c1.779 0 3.255-.36 4.428-1.08 1.212-.72 2.101-1.988 2.669-3.806.606-1.857.908-4.47.908-7.842l-.056-49.374c0-5.114-.625-8.788-1.874-11.023-1.249-2.235-3.444-3.353-6.586-3.353h-4.485v76.478ZM69.267 100V60.057L52.518 0h14.535l9.88 37.386h.226L85.96 0h14.479L84.484 60.057V100H69.267ZM0 100V0h15.216v40.455h13.627V0h15.216v100H28.843V53.523H15.216V100H0Z"/>
  </symbol>
  <symbol id="hydrapp-shadow" viewBox="0 0 372 100">
    <path d="M0,0v100h6V6h9.2V0H0ZM21.2,40.5v6h13.6V6h9.2V0h-15.2v40.5h-7.6ZM34.8,100v-40.5h-6v40.5h6ZM69.3,100v-39.9L52.5,0h14.5l1.6,6h-10.1l16.7,60.1v33.9h-6ZM98.8,6l1.6-6h-14.5l-6.8,29,3.8,14.4h.2l8.8-37.4h6.9,0ZM108.9,0v100h6V6h22.4c4.6,0,8.4.8,11.3,2.5-1.3-2.3-3-4.1-5.1-5.5-3.1-2-7.1-3.1-12.2-3.1h-22.4ZM130.1,88.1c1.3-.1,2.5-.5,3.4-1,1.2-.7,2.1-2,2.7-3.8.6-1.9.9-4.5.9-7.8V26.1c0-3.4-.3-6.1-.9-8.3,2.3.3,3.9,1.4,4.9,3.2,1.2,2.2,1.9,5.9,1.9,11v49.4c0,3.4-.2,6-.9,7.8-.6,1.8-1.5,3.1-2.7,3.8-1.2.7-2.6,1.1-4.4,1.1h-5v-6h0ZM166.1,100V0h25.2c5.2,0,9.1,1,11.7,3.1,1.5,1.2,2.7,2.7,3.6,4.6-2.4-1.1-5.5-1.6-9.3-1.6h-25.2v94h-6,0ZM193.9,59.2c.2,1.3.3,3,.3,4.9v17.4c0,3.1,0,6.1.1,8.8,0,2.7.1,5,.2,6.8,0,1.7.2,2.7.3,2.9h5.6c0-1.1,0-2.3,0-3.7,0-2.9,0-5.9-.1-8.8v-17.4c0-3-.2-5.2-.7-6.8-.4-1.6-1.2-2.6-2.4-3.2-.8-.4-1.9-.7-3.2-.9h0ZM207.1,53.2c0-.2-.1-.3-.2-.4-.2,0-.5.2-.7.2.3,0,.6.1.9.2ZM187.4,41h0c1.9,0,3.3-.4,4.2-1.2,1-.8,1.6-2.4,2-4.6.4-2.2.6-5.5.6-9.7v-.6c0-2.9-.1-5.3-.4-7.1,1.6.1,2.8.5,3.7,1,1.1.7,1.8,2,2.2,3.9.3,1.9.5,4.6.5,8.1v.6c0,4.2-.2,7.4-.6,9.7-.3,2.2-1,3.8-2,4.6-.9.8-2.3,1.2-4.2,1.2h-6.1v-6h0ZM230.8,0l-14.3,100h6.9l13.4-94h15l-.9-6h-20.1,0ZM257.1,100l-1.6-11.8h-5.2l1.6,11.8h5.2ZM241.6,69.9h6.3l-3.3-24.8,2.4-19.5h.2l6.7,50.2h-13.1l.7-6h0ZM275.1,100V0h22.9c4,0,7.3.6,9.9,1.8,2.6,1.2,4.7,3,6.2,5.4.2.3.4.7.6,1-.3-.1-.6-.3-.8-.4-2.6-1.2-5.9-1.8-9.9-1.8h-22.9v94h-6ZM296.4,48v6h5.2c2.2,0,3.9-.6,5-1.7,1.1-1.1,1.8-3,2.2-5.6.4-2.7.6-6.2.6-10.6v-1.9c0-5.4-.5-9.5-1.4-12.3-.8-2.6-2.7-4-5.5-4.2.6,2.6.9,6.1.9,10.5v1.9c0,4.4-.2,7.9-.6,10.6-.3,2.6-1.1,4.5-2.2,5.6-1,1-2.4,1.6-4.2,1.7ZM328.7,100V0h22.9c4,0,7.3.6,9.9,1.8,2.6,1.2,4.7,3,6.2,5.4.2.3.4.7.6,1-.3-.1-.6-.3-.8-.4-2.6-1.2-5.9-1.8-9.9-1.8h-22.9v94h-6ZM350,48v6h5.2c2.2,0,3.9-.6,5-1.7,1.1-1.1,1.8-3,2.2-5.6.4-2.7.6-6.2.6-10.6v-1.9c0-5.4-.5-9.5-1.4-12.3-.8-2.6-2.7-4-5.5-4.2.6,2.6.9,6.1.9,10.5v1.9c0,4.4-.2,7.9-.6,10.6-.3,2.6-1.1,4.5-2.2,5.6-1,1-2.4,1.6-4.2,1.7Z"/>
  </symbol>
  <!-- OTHER -->
  <symbol id="other" viewBox="0 0 248 100">
    <path d="M15.4 72.2c0 5.9.4 10 1.3 12.3.9 2.3 2.7 3.5 5.5 3.5s4.6-1.2 5.5-3.5c.9-2.4 1.3-6.5 1.3-12.2v-46.7c0-4.7-.5-8.2-1.4-10.3-.9-2.2-2.6-3.3-5.3-3.3-2.6 0-4.4 1.1-5.5 3.3-1 2.2-1.5 5.6-1.5 10.3v46.6zm27.8-.6c0 9.5-1.7 16.7-5.1 21.4-3.4 4.7-8.9 7.1-16.4 7.1-7.5 0-13-2.4-16.5-7.1-3.5-4.8-5.2-11.9-5.2-21.4v-44.7c0-17.9 7.3-26.9 21.9-26.9 7.6 0 13 2.3 16.3 6.8 3.3 4.6 5 11.2 5 20v44.8zm20 28.4v-86.8h-11.7v-13.2h38.2v13.2h-11.3v86.8h-15.2zm34.9 0v-100h15.2v40.5h13.7v-40.5h15.2v100h-15.2v-46.5h-13.6v46.5h-15.3zm59.2 0v-100h33.5v13.1h-18.3v29.1h17.4v12.8h-17.4v31.8h19v13.2h-34.2zm66.9-47l-4.9-.2v47.2h-15.3v-100h25.2c5.2 0 9.1 1.1 11.7 3.2 2.6 2.1 4.3 5 5.1 8.8.8 3.8 1.3 8.7 1.3 14.8 0 6.1-.6 10.7-1.9 13.9-1.3 3.2-3.7 5.3-7.2 6.4 3.4.6 5.9 2.9 7.2 7 1.4 4.1 2 12.5 2 25.3s.2 19.7.6 20.6h-15.2c-.4-.8-.6-12.7-.6-35.9 0-4.4-.5-7.4-1.6-8.8-1.1-1.4-3.2-2.2-6.4-2.3zm-5.2-12h6.1c1.9 0 3.4-.4 4.3-1.3.9-.9 1.6-2.4 1.9-4.5.4-2.1.6-5.4.6-9.7v-.6c0-5.4-.5-9-1.4-10.6-.9-1.7-3-2.5-6.3-2.5h-5.2v29.2z"/>
  </symbol>
  <symbol id="other-shadow" viewBox="0 0 248 100">
    <path d="M21.9 0c-14.6 0-21.9 9-21.9 26.9v44.699c0 9.5 1.699 16.6 5.199 21.4 1.355 1.82 3.014 3.292 4.969 4.416-2.799-4.73-4.168-11.308-4.168-19.816v-44.699c0-17.9 7.3-26.9 21.9-26.9 4.6 0 8.388.849 11.398 2.512-.344-.598-.711-1.169-1.1-1.711-3.3-4.5-8.699-6.801-16.299-6.801zm29.6 0v13.199h6v-7.199h32.199v-6h-38.199zm46.6 0v100h6v-94h9.201v-6h-15.201zm28.9 0v40.5h-7.699v6h13.699v-40.5h9.199v-6h-15.199zm30.301 0v100h6v-94h27.5v-6h-33.5zm46.699 0v100h6v-94h25.199c3.811 0 6.918.596 9.332 1.738-.905-1.797-2.109-3.31-3.631-4.539-2.6-2.1-6.501-3.199-11.701-3.199h-25.199zm27.484 17.85c.269 1.825.416 4.174.416 7.051v.6c0 4.3-.2 7.599-.6 9.699-.3 2.1-1 3.6-1.9 4.5-.9.9-2.401 1.301-4.301 1.301h-.1v6h6.1c1.9 0 3.401-.401 4.301-1.301.9-.9 1.6-2.4 1.9-4.5.4-2.1.6-5.399.6-9.699v-.6c0-5.4-.5-9-1.4-10.6-.777-1.467-2.452-2.26-5.016-2.451zm-203.098.154c.397 1.989.613 4.532.613 7.596v46.701c0 5.7-.401 9.799-1.301 12.199-.9 2.3-2.7 3.5-5.5 3.5l-.16-.01c.181.985.396 1.835.66 2.51.9 2.3 2.7 3.5 5.5 3.5s4.6-1.2 5.5-3.5c.9-2.4 1.301-6.499 1.301-12.199v-46.701c0-4.7-.5-8.199-1.4-10.299-.89-2.176-2.565-3.273-5.213-3.297zm34.813 1.195v80.801h6v-80.801h-6zm115.301 23v6h11.4v-6h-11.4zm66.428 10.635c-.241.09-.476.186-.729.266.314.055.613.14.912.225l-.184-.49zm-13.033 6.307c.202 1.377.305 3.023.305 4.959 0 23.2.202 35.1.602 35.9h5.646c-.158-5.7-.248-15.301-.248-29.9 0-4.4-.5-7.399-1.6-8.799-.891-1.134-2.45-1.866-4.705-2.16zm-104.895.359v40.5h6v-40.5h-6zm51.5 27.301v6h13v-6h-13z"/>
  </symbol>
  <!-- PORTFOLIO -->
  <symbol id="portfolio" viewBox="0 0 416 100">
    <path d="M394.556 100c-5.075 0-9.223-1.073-12.445-3.22-3.185-2.147-5.537-5.33-7.055-9.55-1.519-4.22-2.278-9.44-2.278-15.659V26.874c0-5.627.74-10.439 2.222-14.436 1.481-3.998 3.833-7.07 7.056-9.218C385.278 1.073 389.5 0 394.722 0c3.926 0 7.241.61 9.945 1.832 2.703 1.222 4.889 2.999 6.555 5.33 1.667 2.296 2.871 5.109 3.611 8.44.778 3.295 1.167 7.052 1.167 11.272v44.697c0 6.22-.741 11.438-2.222 15.658-1.445 4.22-3.741 7.404-6.889 9.55-3.148 2.148-7.259 3.221-12.333 3.221Zm0-12.882c1.851 0 3.24-.555 4.166-1.665.926-1.111 1.537-2.795 1.834-5.053.333-2.295.5-5.183.5-8.662v-45.53c0-4.257-.408-7.533-1.223-9.828-.777-2.332-2.481-3.498-5.111-3.498-2.703 0-4.537 1.129-5.5 3.387-.963 2.22-1.444 5.515-1.444 9.883v45.586c0 3.553.148 6.478.444 8.773.334 2.258.982 3.924 1.945 4.997 1 1.074 2.463 1.61 4.389 1.61ZM344.111 98.89V1.165H359V98.89h-14.889Zm-42.111 0V1.165h14.889V86.23h18.833v12.66H302ZM267 100c-5.074 0-9.222-1.073-12.444-3.22-3.186-2.147-5.537-5.33-7.056-9.55-1.519-4.22-2.278-9.44-2.278-15.659V26.874c0-5.627.741-10.439 2.222-14.436 1.482-3.998 3.834-7.07 7.056-9.218C257.722 1.073 261.944 0 267.167 0c3.926 0 7.24.61 9.944 1.832 2.704 1.222 4.889 2.999 6.556 5.33 1.666 2.296 2.87 5.109 3.611 8.44.778 3.295 1.166 7.052 1.166 11.272v44.697c0 6.22-.74 11.438-2.222 15.658-1.444 4.22-3.741 7.404-6.889 9.55C276.185 98.928 272.074 100 267 100Zm0-12.882c1.852 0 3.241-.555 4.167-1.665.926-1.111 1.537-2.795 1.833-5.053.333-2.295.5-5.183.5-8.662v-45.53c0-4.257-.407-7.533-1.222-9.828-.778-2.332-2.482-3.498-5.111-3.498-2.704 0-4.537 1.129-5.5 3.387-.963 2.22-1.445 5.515-1.445 9.883v45.586c0 3.553.148 6.478.445 8.773.333 2.258.981 3.924 1.944 4.997 1 1.074 2.463 1.61 4.389 1.61ZM202.444 98.89V1.165H236v12.937h-18.667V40.09h17.334v12.993h-17.334V98.89h-14.889Zm-34.222 0V14.047h-11.444V1.166h37.278v12.882h-11v84.841h-14.834Zm-60.222 0V1.165h24.611c5.111 0 8.926 1 11.445 2.998 2.518 2 4.166 4.924 4.944 8.773.815 3.85 1.222 8.551 1.222 14.104 0 5.737-.592 10.253-1.778 13.548-1.148 3.257-3.518 5.441-7.111 6.552 1.704.296 3.13.999 4.278 2.11 1.148 1.073 2.074 2.665 2.778 4.775.704 2.072 1.204 4.756 1.5 8.05.333 3.258.5 7.256.5 11.994v9.161l.111 6.886c.037 2.295.093 4.257.167 5.885.074 1.629.166 2.591.277 2.888h-14.888c-.112-.186-.204-1.13-.278-2.832-.037-1.74-.093-3.943-.167-6.608a4697.49 4697.49 0 0 1-.111-8.606V63.854c0-2.925-.222-5.127-.667-6.608-.407-1.518-1.185-2.573-2.333-3.165-1.111-.592-2.722-.944-4.833-1.055l-4.778-.278V98.89H108Zm14.944-57.69h5.945c1.815 0 3.185-.408 4.111-1.222.963-.815 1.611-2.314 1.944-4.498.371-2.184.556-5.33.556-9.439v-.61c0-3.443-.167-6.09-.5-7.94-.333-1.851-1.037-3.129-2.111-3.832-1.037-.703-2.667-1.055-4.889-1.055h-5.056V41.2ZM73 100c-5.074 0-9.222-1.073-12.444-3.22-3.186-2.147-5.537-5.33-7.056-9.55-1.519-4.22-2.278-9.44-2.278-15.659V26.874c0-5.627.741-10.439 2.222-14.436 1.482-3.998 3.834-7.07 7.056-9.218C63.722 1.073 67.944 0 73.167 0c3.926 0 7.24.61 9.944 1.832 2.704 1.222 4.889 2.999 6.556 5.33 1.666 2.296 2.87 5.109 3.61 8.44.778 3.295 1.167 7.052 1.167 11.272v44.697c0 6.22-.74 11.438-2.222 15.658-1.444 4.22-3.74 7.404-6.889 9.55C82.185 98.928 78.074 100 73 100Zm0-12.882c1.852 0 3.24-.555 4.167-1.665.926-1.111 1.537-2.795 1.833-5.053.333-2.295.5-5.183.5-8.662v-45.53c0-4.257-.407-7.533-1.222-9.828-.778-2.332-2.482-3.498-5.111-3.498-2.704 0-4.537 1.129-5.5 3.387-.963 2.22-1.445 5.515-1.445 9.883v45.586c0 3.553.148 6.478.445 8.773.333 2.258.981 3.924 1.944 4.997 1 1.074 2.463 1.61 4.389 1.61ZM0 98.89V1.165h22.444c3.89 0 7.112.592 9.667 1.777 2.593 1.184 4.63 2.943 6.111 5.275 1.482 2.332 2.537 5.219 3.167 8.662.63 3.405.944 7.347.944 11.826v2.055c0 6.293-.555 11.66-1.666 16.102-1.074 4.405-3.019 7.755-5.834 10.05-2.814 2.295-6.777 3.442-11.889 3.442H14.89V98.89H0Zm14.889-50.806H20c2.185 0 3.815-.555 4.889-1.665 1.074-1.11 1.778-2.943 2.111-5.497.37-2.591.556-6.034.556-10.328v-1.888c-.038-5.293-.5-9.29-1.39-11.993-.888-2.74-2.907-4.109-6.055-4.109H14.89v35.48Z"/>
  </symbol>
  <symbol id="portfolio-shadow" viewBox="0 0 416 100">
    <path d="M61.4,97.3c-.3-.2-.6-.4-.9-.5-3.2-2.1-5.5-5.3-7.1-9.6s-2.3-9.4-2.3-15.7V26.9c0-5.6.7-10.4,2.2-14.4,1.5-4,3.8-7.1,7.1-9.2,3.2-2.1,7.4-3.2,12.7-3.2s7.2.6,9.9,1.8c2.7,1.2,4.9,3,6.6,5.3.3.5.6.9.9,1.4-.5-.3-1-.5-1.5-.8-2.7-1.2-6-1.8-9.9-1.8s-9.4,1.1-12.7,3.2-5.6,5.2-7.1,9.2c-1.5,4-2.2,8.8-2.2,14.4v44.7c0,6.2.8,11.4,2.3,15.7.5,1.4,1.1,2.8,1.9,4.1ZM73,87.1c1.9,0,3.2-.6,4.2-1.7.9-1.1,1.5-2.8,1.8-5.1.3-2.3.5-5.2.5-8.7V26.2c0-2.9-.2-5.3-.6-7.3,0,0,.2,0,.2,0,2.6,0,4.3,1.2,5.1,3.5.8,2.3,1.2,5.6,1.2,9.8v45.5c0,3.5-.2,6.4-.5,8.7-.3,2.3-.9,3.9-1.8,5.1-.9,1.1-2.3,1.7-4.2,1.7s-3.4-.5-4.4-1.6c-.9-1-1.5-2.4-1.8-4.4h.2ZM255.4,97.3c-.3-.2-.6-.4-.9-.5-3.2-2.1-5.5-5.3-7.1-9.6s-2.3-9.4-2.3-15.7V26.9c0-5.6.7-10.4,2.2-14.4,1.5-4,3.8-7.1,7.1-9.2,3.2-2.1,7.4-3.2,12.7-3.2s7.2.6,9.9,1.8c2.7,1.2,4.9,3,6.6,5.3.3.5.6.9.9,1.4-.5-.3-1-.5-1.5-.8-2.7-1.2-6-1.8-9.9-1.8s-9.4,1.1-12.7,3.2-5.6,5.2-7.1,9.2c-1.5,4-2.2,8.8-2.2,14.4v44.7c0,6.2.8,11.4,2.3,15.7.5,1.4,1.1,2.8,1.9,4.1ZM267,87.1c1.9,0,3.2-.6,4.2-1.7.9-1.1,1.5-2.8,1.8-5.1.3-2.3.5-5.2.5-8.7V26.2c0-2.9-.2-5.3-.6-7.3,0,0,.2,0,.2,0,2.6,0,4.3,1.2,5.1,3.5.8,2.3,1.2,5.6,1.2,9.8v45.5c0,3.5-.2,6.4-.5,8.7-.3,2.3-.9,3.9-1.8,5.1-.9,1.1-2.3,1.7-4.2,1.7s-3.4-.5-4.4-1.6c-.9-1-1.5-2.4-1.8-4.4h.2s0,0,0,0ZM383,97.3c-.3-.2-.6-.4-.9-.5-3.2-2.1-5.5-5.3-7.1-9.6-1.5-4.2-2.3-9.4-2.3-15.7V26.9c0-5.6.7-10.4,2.2-14.4,1.5-4,3.8-7.1,7.1-9.2,3.2-2.1,7.4-3.2,12.7-3.2s7.2.6,9.9,1.8c2.7,1.2,4.9,3,6.6,5.3.3.5.6.9.9,1.4-.5-.3-1-.5-1.5-.8-2.7-1.2-6-1.8-9.9-1.8s-9.4,1.1-12.7,3.2c-3.2,2.1-5.6,5.2-7.1,9.2-1.5,4-2.2,8.8-2.2,14.4v44.7c0,6.2.8,11.4,2.3,15.7.5,1.4,1.1,2.8,1.9,4.1ZM394.6,87.1c1.9,0,3.2-.6,4.2-1.7.9-1.1,1.5-2.8,1.8-5.1.3-2.3.5-5.2.5-8.7V26.2c0-2.9-.2-5.3-.6-7.3,0,0,.2,0,.2,0,2.6,0,4.3,1.2,5.1,3.5.8,2.3,1.2,5.6,1.2,9.8v45.5c0,3.5-.2,6.4-.5,8.7-.3,2.3-.9,3.9-1.8,5.1-.9,1.1-2.3,1.7-4.2,1.7s-3.4-.5-4.4-1.6c-.9-1-1.5-2.4-1.8-4.4h.2s0,0,0,0ZM344.1,98.9V1.2h14.9v6h-8.9v91.7h-6ZM302,1.2v97.7h6V7.2h8.9V1.2h-14.9ZM335.7,92.2v-6h-12.8v6h12.8ZM202.4,1.2v97.7h6V7.2h27.6V1.2h-33.6ZM223.3,40.1v6h11.3v-6h-11.3ZM168.2,20v78.8h6V20h-6ZM162.8,14v-6.9h31.3V1.2h-37.3v12.9h6ZM108,1.2v97.7h6V7.2h24.6c3.7,0,6.7.5,9,1.6-.9-1.8-2.1-3.4-3.6-4.6-2.5-2-6.3-3-11.4-3h-24.6ZM135.2,59.2c.2,1.3.3,2.8.3,4.7v17c0,3.1,0,5.9.1,8.6,0,2.7.1,4.9.2,6.6,0,1.7.2,2.6.3,2.8h5.6c0-1.1,0-2.3,0-3.4,0-2.9,0-5.7-.1-8.6v-17c0-2.9-.2-5.1-.7-6.6-.4-1.5-1.2-2.6-2.3-3.2-.8-.4-1.9-.7-3.3-.9h0ZM148.1,53.3c0-.1-.1-.3-.2-.4-.2,0-.4.2-.6.2.3,0,.5.1.8.2h0ZM128.9,41.2c1.8,0,3.1-.4,4.1-1.2,1-.8,1.6-2.3,1.9-4.5.4-2.2.6-5.3.6-9.4v-.6c0-2.8-.1-5-.3-6.8,1.6.1,2.9.4,3.7,1,1.1.7,1.8,2,2.1,3.8s.5,4.5.5,7.9v.6c0,4.1-.2,7.3-.6,9.4-.3,2.2-1,3.7-1.9,4.5-.9.8-2.3,1.2-4.1,1.2h-5.9v-6h0ZM0,1.2v97.7h6V7.2h22.4c3.9,0,7.1.6,9.7,1.8.3.1.5.2.8.4-.2-.4-.4-.7-.6-1.1-1.5-2.3-3.5-4.1-6.1-5.3-2.6-1.2-5.8-1.8-9.7-1.8H0ZM26.7,18.6c2.8.2,4.7,1.5,5.5,4.1.9,2.7,1.4,6.7,1.4,12v1.9c0,4.3-.2,7.7-.6,10.3-.3,2.6-1,4.4-2.1,5.5-1.1,1.1-2.7,1.7-4.9,1.7h-5.1v-6c1.7-.1,3.1-.7,4-1.6,1.1-1.1,1.8-2.9,2.1-5.5.4-2.6.6-6,.6-10.3v-1.9c0-4.2-.3-7.5-.9-10.1Z"/>
  </symbol>
  <!-- QUOTES -->
  <symbol id="quotes" viewBox="0 0 299 100">
    <path d="M42.2 82.6c.6-3.2 1-6.9 1-11.1v-44.6c0-8.8-1.7-15.5-5-20-3.3-4.6-8.7-6.9-16.3-6.9-14.6 0-21.9 9-21.9 26.9v44.7c0 9.5 1.7 16.6 5.2 21.4 3.5 4.7 9 7.1 16.5 7.1 6.9 0 12.1-2 15.5-6l6 6 8.2-8.2-9.2-9.3zm-14-10.9c0 5.6-.4 9.6-1.3 11.9-.9 2.3-2.6 3.4-5.3 3.4s-4.5-1.1-5.4-3.4c-.9-2.3-1.3-6.3-1.3-12v-45.4c0-4.6.5-7.9 1.5-10.1 1-2.1 2.8-3.2 5.3-3.2s4.2 1.1 5.1 3.2c.9 2.1 1.3 5.5 1.3 10.1v45.5zm267.7-13.1c-2-4.5-5.1-8.9-9.1-13.3l-7.4-8-.6-.7c-2.7-2.9-4.6-5.3-5.6-7.1-1-1.9-1.5-4.3-1.5-7.4 0-3.1.5-5.4 1.5-7 1-1.5 2.7-2.3 5-2.3s3.9 1 4.7 3.1c.8 2 1.2 5.4 1.2 10.1v7h13.7v-6.1c0-8.8-1.3-15.4-4-20s-7.8-6.9-15.4-6.9c-7.6 0-12.9 2-16 5.9-1.9 2.5-3.3 5.7-4 9.8-.4 2.4-.7 5.2-.7 8.2 0 5 .9 9.3 2.8 13.1 1.9 3.8 4.5 7.4 7.9 10.9l7.2 7.4c.8.8 1.6 1.7 2.2 2.5 2.1 2.4 3.7 4.8 4.8 7.1 1.5 3 2.2 6.6 2.2 10.7s-.4 7.1-1.3 8.9c-.8 1.8-2.5 2.7-5.1 2.7-2.5 0-4.3-1.1-5.2-3.3-.9-2.2-1.4-6.1-1.4-11.5v-9.8h-14.1v8.7c0 4.7.4 8.8 1.1 12.3.7 3.5 1.9 6.5 3.4 9 3 4.9 8.4 7.3 16 7.3 7.7 0 13.1-2.2 16.1-6.5 3.1-4.4 4.6-11.1 4.6-20.3.1-5.2-.9-10.1-3-14.5zm-68.6 28.3v-31.8h17.4v-12.9h-17.4v-29h18.3v-13.1h-33.5v99.9h34.2v-13.1h-19zm-61.7-86.8v13.2h11.7v86.7h15.2v-86.8h11.2v-13.1h-38.1zm-13.3 6.8c-3.3-4.6-8.7-6.8-16.3-6.8-14.6 0-21.9 9-21.9 26.9v44.7c0 9.5 1.7 16.6 5.2 21.4 3.5 4.7 9 7 16.5 7s13-2.4 16.4-7c3.4-4.7 5.1-11.8 5.1-21.4v-44.8c0-8.8-1.7-15.5-5-20zm-9.9 64.9c0 5.6-.4 9.6-1.3 11.9-.9 2.3-2.6 3.4-5.3 3.4-2.7 0-4.5-1.1-5.4-3.4-.8-2.3-1.3-6.3-1.3-12v-45.5c0-4.6.5-7.9 1.5-10 1-2.1 2.8-3.2 5.3-3.2s4.2 1.1 5.1 3.2c.9 2.1 1.3 5.5 1.3 10.1v45.5zm-56.9-71.8v73.2c0 3-.1 5.4-.3 7.3-.2 1.9-.7 3.4-1.7 4.7-.9 1.3-2.5 1.9-4.7 1.9s-3.6-.4-4.3-1.3c-.7-.9-1.3-2-1.7-3.1-.5-1.1-.7-4.3-.7-9.5v-73.2h-15.1v73.5c0 9.1 1.7 15.7 5.2 20 3.5 4.3 9 6.5 16.6 6.5 7.6 0 13.2-2.1 16.6-6.4 3.4-4.3 5.2-11 5.2-20.1v-73.5h-15.1z"/>
  </symbol>
  <symbol id="quotes-shadow" viewBox="0 0 299 100">
    <path d="M21.9 0c-14.6 0-21.9 9-21.9 26.9v44.699c0 9.5 1.699 16.6 5.199 21.4 1.355 1.82 3.014 3.292 4.969 4.416-2.799-4.73-4.168-11.308-4.168-19.816v-44.699c0-17.9 7.3-26.9 21.9-26.9 4.578 0 8.35.841 11.354 2.51-.331-.563-.682-1.102-1.055-1.609-3.3-4.6-8.699-6.9-16.299-6.9zm35.1 0v73.5c0 9.1 1.699 15.7 5.199 20 1.237 1.519 2.729 2.771 4.469 3.762-2.462-4.235-3.668-10.112-3.668-17.762v-73.5h9.1v-6h-15.1zm28.5 0v73.199c0 3-.101 5.401-.301 7.301-.2 1.9-.699 3.399-1.699 4.699-.9 1.3-2.499 1.9-4.699 1.9l-.365-.018c.099.706.215 1.287.365 1.617.4 1.1.999 2.202 1.699 3.102.7.9 2.101 1.299 4.301 1.299s3.799-.6 4.699-1.9c1-1.3 1.499-2.799 1.699-4.699.2-1.9.301-4.301.301-7.301v-73.199h9.1v-6h-15.1zm192.9 0c-7.6 0-12.9 2-16 5.9-1.9 2.5-3.3 5.699-4 9.799-.4 2.4-.701 5.201-.701 8.201 0 5 .901 9.3 2.801 13.1 1.9 3.8 4.5 7.4 7.9 10.9l7.199 7.4c.8.8 1.601 1.7 2.201 2.5 2.1 2.4 3.699 4.8 4.799 7.1 1.5 3 2.201 6.599 2.201 10.699s-.401 7.1-1.301 8.9c-.794 1.787-2.477 2.684-5.045 2.697.205 1.071.451 1.986.744 2.703.9 2.2 2.701 3.299 5.201 3.299 2.6 0 4.3-.899 5.1-2.699.9-1.8 1.301-4.8 1.301-8.9 0-4.1-.701-7.699-2.201-10.699-1.1-2.3-2.699-4.7-4.799-7.1-.6-.8-1.401-1.7-2.201-2.5l-7.199-7.4c-3.4-3.5-6-7.1-7.9-10.9-1.9-3.8-2.801-8.1-2.801-13.1 0-3 .301-5.801.701-8.201.7-4.1 2.1-7.299 4-9.799 3.1-3.9 8.4-5.9 16-5.9 4.016 0 7.326.649 9.961 1.934-.181-.354-.365-.7-.561-1.033-2.7-4.6-7.8-6.9-15.4-6.9zm-142.4.1c-14.6 0-21.9 9-21.9 26.9v44.699c0 9.5 1.701 16.6 5.201 21.4 1.348 1.81 2.995 3.261 4.936 4.365-2.779-4.726-4.137-11.288-4.137-19.766v-44.699c0-17.9 7.3-26.9 21.9-26.9 4.593 0 8.377.81 11.385 2.461-.34-.583-.7-1.137-1.084-1.66-3.3-4.6-8.701-6.801-16.301-6.801zm29.6 0v13.201h6v-7.201h32.1v-6h-38.1zm46.5 0v99.9h6v-93.9h27.5v-6h-33.5zm72.1 18.701l-.555.025c.303 1.884.455 4.281.455 7.174v7h6v-1c0-4.7-.399-8.1-1.199-10.1-.8-2.1-2.401-3.1-4.701-3.1zm-256.5.1l-.111.006c.35 1.93.512 4.365.512 7.293v45.5h.1c0 5.6-.399 9.6-1.299 11.9-.9 2.3-2.601 3.4-5.301 3.4l-.082-.004c.184 1.02.407 1.901.682 2.604.9 2.3 2.7 3.4 5.4 3.4s4.401-1.1 5.301-3.4c.9-2.3 1.299-6.3 1.299-11.9h-.1v-45.5c0-4.6-.399-8-1.299-10.1-.9-2.1-2.602-3.199-5.102-3.199zm114.201.1l-.113.006c.35 1.93.514 4.367.514 7.295v45.5h.1c0 5.6-.401 9.598-1.301 11.898-.9 2.3-2.599 3.4-5.299 3.4l-.039-.002c.183 1.019.394 1.899.639 2.602.9 2.3 2.7 3.4 5.4 3.4s4.399-1.1 5.299-3.4c.9-2.3 1.301-6.298 1.301-11.898h-.1v-45.5c0-4.6-.401-8.002-1.301-10.102-.9-2.1-2.6-3.199-5.1-3.199zm35.4.301v80.699h6v-80.699h-6zm56 22.898v6h11.398v-6h-11.398zm24.398 20.4v8.701c0 4.7.402 8.799 1.102 12.299.7 3.5 1.898 6.5 3.398 9 1.355 2.213 3.205 3.911 5.521 5.113-1.269-2.319-2.299-5.007-2.92-8.113-.7-3.5-1.102-7.599-1.102-12.299v-8.701h8.102v-6h-14.102zm-24.398 24.301v6h13v-6h-13z"/>
  </symbol>
  <!-- RESUME -->
  <symbol id="resume" viewBox="0 0 317 100">
    <path d="M283.532 98.89V1.165h32.801v12.826h-17.902V42.42h17.012v12.548h-17.012v31.094H317V98.89h-33.468Zm-78.833 0V1.165h18.513l13.899 71.405 13.064-71.405H268.8V98.89h-13.288V62.465l.556-33.426-13.176 69.406h-11.841L217.319 29.04l.556 33.426V98.89h-13.176ZM169.23 100c-5.078 0-9.21-.944-12.398-2.832-3.187-1.925-5.522-4.812-7.005-8.662-1.482-3.886-2.224-8.791-2.224-14.714V1.166h14.9v72.349c0 2.739.111 5.145.333 7.218.26 2.073.853 3.683 1.779 4.83.927 1.148 2.447 1.722 4.559 1.722 2.113 0 3.632-.555 4.559-1.666.964-1.147 1.557-2.758 1.779-4.83.222-2.073.333-4.498.333-7.274V1.166h14.9v72.626c0 5.923-.741 10.828-2.224 14.714-1.445 3.85-3.762 6.737-6.949 8.662-3.151 1.888-7.265 2.832-12.342 2.832Zm-51.759 0c-4.077 0-7.486-.63-10.229-1.888-2.706-1.295-4.855-3.165-6.449-5.608-1.557-2.48-2.669-5.478-3.336-8.995-.667-3.553-1-7.588-1-12.104v-8.718h14.121v9.828c0 5.257.444 9.032 1.334 11.327.889 2.295 2.65 3.443 5.281 3.443 1.779 0 3.114-.407 4.003-1.222.927-.851 1.538-2.184 1.835-3.998.333-1.85.5-4.256.5-7.218 0-3.664-.778-7.014-2.335-10.05-1.52-3.035-3.836-6.181-6.949-9.439l-7.228-7.44a54.372 54.372 0 0 1-5.448-6.608c-1.593-2.332-2.872-4.923-3.836-7.773-.926-2.887-1.39-6.108-1.39-9.661 0-5.146.63-9.495 1.89-13.049 1.26-3.553 3.392-6.237 6.394-8.05C107.631.924 111.745 0 116.971 0c3.929 0 7.153.61 9.673 1.832 2.558 1.185 4.541 2.943 5.949 5.275 1.445 2.295 2.465 5.108 3.058 8.44.593 3.294.889 7.07.889 11.327v6.052h-13.732V25.93c0-2.961-.166-5.423-.5-7.385-.297-1.962-.871-3.424-1.723-4.386-.853-1-2.095-1.5-3.725-1.5-1.557 0-2.817.352-3.781 1.056-.963.666-1.668 1.72-2.112 3.165-.408 1.406-.612 3.239-.612 5.497 0 2.035.26 3.794.778 5.274.519 1.481 1.316 2.906 2.391 4.276 1.075 1.37 2.409 2.906 4.003 4.608l8.061 8.718c3.855 4.145 6.857 8.458 9.006 12.937 2.15 4.479 3.225 9.476 3.225 14.992 0 5.848-.63 10.771-1.89 14.77-1.261 3.96-3.373 6.958-6.338 8.994-2.965 2.036-7.005 3.054-12.12 3.054ZM55.15 98.89V1.165h32.8v12.826h-17.9V42.42h17.01v12.548H70.049v31.094h18.569V98.89H55.15ZM0 98.89V1.165h24.628c5.115 0 8.933 1 11.453 2.998 2.52 2 4.17 4.924 4.948 8.773.815 3.85 1.223 8.551 1.223 14.104 0 5.737-.593 10.253-1.78 13.548-1.148 3.257-3.52 5.441-7.115 6.552 1.705.296 3.132.999 4.28 2.11 1.15 1.073 2.076 2.665 2.78 4.775.704 2.072 1.205 4.756 1.501 8.05.334 3.258.5 7.256.5 11.994v9.161l.112 6.886c.037 2.295.093 4.257.167 5.885.074 1.629.166 2.591.278 2.888h-14.9c-.111-.186-.204-1.13-.278-2.832-.037-1.74-.092-3.943-.166-6.608-.038-2.665-.075-5.534-.112-8.606V63.854c0-2.925-.222-5.127-.667-6.608-.407-1.518-1.186-2.573-2.335-3.165-1.112-.592-2.724-.944-4.837-1.055l-4.78-.278V98.89H0ZM14.955 41.2h5.949c1.816 0 3.187-.408 4.113-1.222.964-.815 1.613-2.314 1.946-4.498.371-2.184.556-5.33.556-9.439v-.61c0-3.443-.166-6.09-.5-7.94-.334-1.851-1.038-3.129-2.113-3.832-1.037-.703-2.668-1.055-4.892-1.055h-5.06V41.2Z"/>
  </symbol>
  <symbol id="resume-shadow" viewBox="0 0 317 100">
    <path d="M106.3,97.6c-1.3-2.3-2.2-5-2.8-8.1-.7-3.6-1-7.6-1-12.1v-8.7h8.1v-6h-14.1v8.7c0,4.5.3,8.6,1,12.1.7,3.5,1.8,6.5,3.3,9,1.4,2.1,3.3,3.9,5.5,5.1ZM122.3,18.7c.2,0,.3,0,.5,0,1.6,0,2.9.5,3.7,1.5.9,1,1.4,2.4,1.7,4.4.3,2,.5,4.4.5,7.4v1h-6v-7c0-2.9-.2-5.3-.5-7.3ZM133.2,8.1c-.2,0-.3-.2-.5-.3-2.5-1.2-5.7-1.8-9.7-1.8s-9.3.9-12.3,2.8c-3,1.8-5.1,4.5-6.4,8.1-1.3,3.6-1.9,7.9-1.9,13s.5,6.8,1.4,9.7c1,2.9,2.2,5.4,3.8,7.8,1.6,2.3,3.5,4.6,5.4,6.6l7.2,7.4c3.1,3.3,5.4,6.4,6.9,9.4,1.6,3,2.3,6.4,2.3,10.1s-.2,5.4-.5,7.2c-.3,1.8-.9,3.1-1.8,4-.9.8-2.2,1.2-4,1.2-2.6,0-4.4-1.1-5.3-3.4-.3-.7-.5-1.6-.7-2.6,1.8,0,3.1-.4,4-1.2.9-.9,1.5-2.2,1.8-4,.3-1.8.5-4.3.5-7.2s-.8-7-2.3-10.1c-1.5-3-3.8-6.2-6.9-9.4l-7.2-7.4c-2-2.1-3.8-4.3-5.4-6.6-1.6-2.3-2.9-4.9-3.8-7.8-.9-2.9-1.4-6.1-1.4-9.7,0-5.1.6-9.5,1.9-13,1.3-3.6,3.4-6.2,6.4-8.1,3-1.9,7.1-2.8,12.3-2.8s7.2.6,9.7,1.8c2.6,1.2,4.5,2.9,5.9,5.3.2.3.4.6.6,1h0ZM157.2,97.4c-.1,0-.2-.1-.4-.2-3.2-1.9-5.5-4.8-7-8.7-1.5-3.9-2.2-8.8-2.2-14.7V1.2h14.9v6h-8.9v72.6c0,5.9.7,10.8,2.2,14.7.4,1,.8,1.9,1.4,2.9ZM190.7,7.2V1.2h-14.9v72.3c0,2.8-.1,5.2-.3,7.3-.2,2.1-.8,3.7-1.8,4.8-.9,1.1-2.4,1.7-4.6,1.7s-.2,0-.3,0c.3,1.8.9,3.2,1.7,4.3.9,1.1,2.4,1.7,4.6,1.7s3.6-.6,4.6-1.7c1-1.1,1.6-2.8,1.8-4.8.2-2.1.3-4.5.3-7.3V7.2s8.9,0,8.9,0ZM204.7,1.2v97.7h6V7.2h13.7l-1.2-6h-18.5ZM239.5,59.8l3.7,18.8,13.1-71.4h12.6V1.2h-18.6l-10.7,58.6ZM261.5,98.9v-30.4l.6-33.4-6.6,34.5v29.3h6ZM235.9,98.4l-12.5-63.4.4,26.6,7.3,36.8h4.8ZM283.5,1.2v97.7h6V7.2h26.8V1.2h-32.8ZM304.4,42.4v6h11v-6h-11ZM304.4,86.1v6h12.6v-6h-12.6ZM55.2,98.9V1.2h32.8v6h-26.8v91.7s-6,0-6,0ZM88.6,92.1v-6h-12.6v6s12.6,0,12.6,0ZM76.1,42.4v6h11v-6h-11,0ZM0,1.2v97.7h6V7.2h24.6c3.7,0,6.7.5,9,1.6-.9-1.8-2.1-3.4-3.6-4.6-2.5-2-6.3-3-11.5-3H0ZM27.3,59.2c.2,1.3.3,2.8.3,4.7v17c0,3.1,0,5.9.1,8.6,0,2.7.1,4.9.2,6.6,0,1.7.2,2.6.3,2.8h5.6c0-1,0-2.2,0-3.4,0-2.7,0-5.5-.1-8.6v-17c0-2.9-.2-5.1-.7-6.6-.4-1.5-1.2-2.6-2.3-3.2-.8-.4-1.9-.7-3.3-.9ZM40.2,53.3c0-.1-.1-.3-.2-.4-.2,0-.4.2-.7.2.3,0,.5.1.8.2ZM21,41.2c1.8,0,3.1-.4,4.1-1.2,1-.8,1.6-2.3,1.9-4.5.4-2.2.6-5.3.6-9.4v-.6c0-2.8-.1-5-.3-6.8,1.6.1,2.9.4,3.7,1,1.1.7,1.8,2,2.1,3.8.3,1.9.5,4.5.5,7.9v.6c0,4.1-.2,7.3-.6,9.4-.3,2.2-1,3.7-1.9,4.5-.9.8-2.3,1.2-4.1,1.2h-6v-6h0Z"/>
  </symbol>
  <!-- TASKTIMER -->
  <symbol id="tasktimer" viewBox="0 0 433 100">
    <path d="M390.094 98.89V1.165h24.589c5.107 0 8.918 1 11.434 2.998 2.517 2 4.163 4.924 4.94 8.773.814 3.85 1.221 8.551 1.221 14.104 0 5.737-.592 10.253-1.776 13.548-1.147 3.257-3.515 5.441-7.104 6.552 1.702.296 3.126.999 4.273 2.11 1.148 1.073 2.073 2.665 2.776 4.775.703 2.072 1.202 4.756 1.498 8.05.333 3.258.5 7.256.5 11.994v9.161l.111 6.886c.037 2.295.092 4.257.166 5.885.074 1.629.167 2.591.278 2.888h-14.876c-.111-.186-.203-1.13-.277-2.832-.037-1.74-.093-3.943-.167-6.608a4697.49 4697.49 0 0 1-.111-8.606V63.854c0-2.925-.222-5.127-.666-6.608-.407-1.518-1.184-2.573-2.331-3.165-1.11-.592-2.72-.944-4.829-1.055l-4.773-.278V98.89h-14.876Zm14.931-57.69h5.939c1.813 0 3.183-.408 4.108-1.222.962-.815 1.609-2.314 1.942-4.498.37-2.184.555-5.33.555-9.439v-.61c0-3.443-.166-6.09-.499-7.94-.333-1.851-1.036-3.129-2.109-3.832-1.036-.703-2.665-1.055-4.885-1.055h-5.051V41.2ZM345.69 98.89V1.165h32.748v12.826h-17.873V42.42h16.985v12.548h-16.985v31.094h18.539V98.89H345.69Zm-78.708 0V1.165h18.484l13.876 71.405 13.044-71.405h18.595V98.89h-13.266V62.465l.555-33.426-13.155 69.406h-11.823l-13.71-69.406.555 33.426V98.89h-13.155Zm-29.862 0V1.165h14.876V98.89H237.12Zm-34.524 0V14.047h-11.434V1.166h37.244v12.882h-10.99v84.841h-14.82Zm-59.613 0V1.165h14.875V46.14l14.876-44.975h15.375l-16.208 48.196 17.484 49.527h-15.708l-15.708-45.64v45.64h-14.986ZM112.177 100c-4.07 0-7.475-.63-10.213-1.888-2.701-1.295-4.847-3.165-6.439-5.608-1.554-2.48-2.664-5.478-3.33-8.995-.666-3.553-1-7.588-1-12.104v-8.718h14.099v9.828c0 5.257.444 9.032 1.332 11.327.889 2.295 2.646 3.443 5.274 3.443 1.776 0 3.108-.407 3.996-1.222.925-.851 1.536-2.184 1.832-3.998.333-1.85.499-4.256.499-7.218 0-3.664-.777-7.014-2.331-10.05-1.517-3.035-3.83-6.181-6.938-9.439l-7.216-7.44a54.301 54.301 0 0 1-5.44-6.608c-1.59-2.332-2.867-4.923-3.83-7.773-.925-2.887-1.387-6.108-1.387-9.661 0-5.146.629-9.495 1.887-13.049 1.258-3.553 3.386-6.237 6.383-8.05C102.353.924 106.46 0 111.677 0c3.923 0 7.142.61 9.658 1.832 2.554 1.185 4.533 2.943 5.94 5.275 1.443 2.295 2.46 5.108 3.052 8.44.592 3.294.888 7.07.888 11.327v6.052h-13.709V25.93c0-2.961-.167-5.423-.5-7.385-.296-1.962-.87-3.424-1.721-4.386-.851-1-2.09-1.5-3.719-1.5-1.554 0-2.812.352-3.774 1.056-.962.666-1.665 1.72-2.109 3.165-.407 1.406-.611 3.239-.611 5.497 0 2.035.259 3.794.777 5.274.518 1.481 1.314 2.906 2.387 4.276 1.073 1.37 2.405 2.906 3.997 4.608l8.048 8.718c3.848 4.145 6.846 8.458 8.992 12.937 2.146 4.479 3.219 9.476 3.219 14.992 0 5.848-.629 10.771-1.887 14.77-1.258 3.96-3.367 6.958-6.328 8.994-2.96 2.036-6.993 3.054-12.1 3.054Zm-75.099-1.11L51.01 1.165h19.649l14.82 97.724H71.602l-2.33-17.435H53.506l-2.109 17.434h-14.32ZM54.95 69.516h12.766l-6.55-49.084h-.222L54.95 69.516ZM11.434 98.89V14.047H0V1.166h37.244v12.882h-10.99v84.841h-14.82Z"/>
  </symbol>
  <symbol id="tasktimer-shadow" viewBox="0 0 433 100">
    <path d="M101,97.6c-1.3-2.3-2.2-5-2.8-8.1-.7-3.6-1-7.6-1-12.1v-8.7h8.1v-6h-14.1v8.7c0,4.5.3,8.6,1,12.1.7,3.5,1.8,6.5,3.3,9,1.4,2.1,3.3,3.9,5.5,5.1h0ZM117,18.7c.2,0,.4,0,.5,0,1.6,0,2.9.5,3.7,1.5.9,1,1.4,2.4,1.7,4.4.3,2,.5,4.4.5,7.4v1h-6v-7c0-2.9-.2-5.3-.5-7.3ZM127.8,8.1c-.2,0-.3-.2-.5-.2-2.5-1.2-5.7-1.8-9.7-1.8s-9.3.9-12.3,2.8c-3,1.8-5.1,4.5-6.4,8.1-1.3,3.6-1.9,7.9-1.9,13s.5,6.8,1.4,9.7c1,2.9,2.2,5.4,3.8,7.8,1.6,2.3,3.5,4.6,5.4,6.6l7.2,7.4c3.1,3.3,5.4,6.4,6.9,9.4,1.6,3,2.3,6.4,2.3,10.1s-.2,5.4-.5,7.2c-.3,1.8-.9,3.1-1.8,4-.9.8-2.2,1.2-4,1.2-2.6,0-4.4-1.1-5.3-3.4-.3-.7-.5-1.6-.7-2.6,1.8,0,3.1-.4,4-1.2.9-.9,1.5-2.2,1.8-4,.3-1.8.5-4.3.5-7.2s-.8-7-2.3-10.1c-1.5-3-3.8-6.2-6.9-9.4l-7.2-7.4c-2-2.1-3.8-4.3-5.4-6.6-1.6-2.3-2.9-4.9-3.8-7.8-.9-2.9-1.4-6.1-1.4-9.7,0-5.1.6-9.5,1.9-13,1.3-3.6,3.4-6.2,6.4-8.1,3-1.9,7.1-2.8,12.3-2.8s7.1.6,9.7,1.8c2.6,1.2,4.5,2.9,5.9,5.3.2.3.4.6.6,1ZM143,98.9V1.2h14.9v6h-8.9v91.7h-6ZM164,70.7l9.7,28.2h3.9l-13.6-39.6v11.4ZM191.8,14l2.3-6.9h-2.9V1.2h37.2v6h-31.2v6.9h-5.4,0ZM202.6,20v78.8h6V20h-6ZM186.1,7.2h-7.4l-14.9,45v-24.1l8.9-26.8h15.4s-2,6-2,6ZM237.1,98.9V1.2h14.9v6h-8.9v91.7h-6ZM267,1.2v97.7h6V7.2h13.6l-1.2-6h-18.5ZM301.7,59.7l3.7,18.8,13-71.4h12.6V1.2h-18.6l-10.7,58.6h0ZM323.7,98.9v-30.4l.6-33.4-6.6,34.6v29.3h6ZM298.1,98.4l-12.5-63.4.4,26.6,7.3,36.8h4.8ZM345.7,98.9V1.2h32.7v6h-26.7v91.7h-6ZM379.1,92.1v-6h-12.5v6h12.5ZM377.5,48.4v-6h-11v6h11ZM390.1,98.9V1.2h24.6c5.1,0,8.9,1,11.4,3,1.5,1.2,2.7,2.7,3.6,4.6-2.3-1-5.3-1.5-9-1.5h-24.6v91.7h-6,0ZM417.3,59.2c.2,1.3.3,2.8.3,4.7v17c0,3.1,0,5.9.1,8.6,0,2.7.1,4.9.2,6.6,0,1.7.2,2.6.3,2.8h5.6c0-1.1,0-2.3,0-3.4,0-2.9,0-5.7-.1-8.6v-17c0-2.9-.2-5.1-.7-6.6-.4-1.5-1.2-2.6-2.3-3.2-.8-.4-1.9-.7-3.3-.9h0ZM430.2,53.3c0-.1-.1-.3-.2-.4-.2,0-.4.1-.6.2.3,0,.5.1.8.2h0ZM411,41.2v6h5.9c1.8,0,3.2-.4,4.1-1.2,1-.8,1.6-2.3,1.9-4.5.4-2.2.6-5.3.6-9.4v-.6c0-3.4-.2-6.1-.5-7.9-.3-1.9-1-3.1-2.1-3.8-.8-.6-2.1-.9-3.7-1,.2,1.7.3,4,.3,6.8v.6c0,4.1-.2,7.3-.6,9.4-.3,2.2-1,3.7-1.9,4.5-.9.8-2.3,1.2-4,1.2h0ZM37.1,98.9L51,1.2h19.6l.9,6h-14.6l-13.1,91.7h-6.9ZM70.1,87.5l1.5,11.4h5.2l-1.5-11.4h-5.2ZM61.7,69.5h6l-3.2-23.6,2.4-19.5h.2l6.6,49.1h-12.8l.7-6ZM11.4,20v78.8h6V20h-6ZM6,14v-6.9h31.2V1.2H0v12.9h6Z"/>
  </symbol>
</svg>