<svg xmlns="http://www.w3.org/2000/svg" style="display: none;">
  <!-- LETTER A -->
  <symbol id="a" viewBox="0 0 100 100">
    <path d="M56.6 69.9l-6.7-50.2h-.2l-6.1 50.2h13zm-31.4 30.1l14.3-100h20.1l15.2 100h-14.2l-2.4-17.8h-16.2l-2.1 17.8h-14.7z"/>
  </symbol>
  <!-- LETTER B -->
  <symbol id="b" viewBox="0 0 100 100">
    <path d="M70.1 25.7c0 10.8-2.9 17.4-8.7 19.8 7.1 2.4 10.7 10.2 10.7 23.6v2.6c-.1 10-1.8 17.3-5.3 21.7-3.4 4.4-9 6.6-16.8 6.6h-22.1v-100h21.6c7.5 0 12.8 1.7 15.9 5.2 3.1 3.4 4.7 9.2 4.7 17.4v3.1zm-26.9 62.5h5.4c3 0 5.2-1 6.4-3.1 1.2-2.1 1.8-5.8 1.8-11.2v-8.1c0-5.1-.5-8.7-1.5-10.7-1-2.1-2.9-3.2-5.7-3.2h-6.4v36.3zm0-47.7h5.6c2.6 0 4.3-.8 5.1-2.5.8-1.7 1.3-5.1 1.3-10.3v-6c0-3.9-.6-6.4-1.6-7.7-1-1.3-2.8-2-5.3-2h-5.1v28.5z"/>
  </symbol>
  <!-- LETTER C -->
  <symbol id="c" viewBox="0 0 100 100">
    <path d="M71.2 72.2c0 9.4-1.7 16.4-5.1 21-3.4 4.5-8.7 6.8-15.9 6.8s-12.6-2.4-16.2-7.2c-3.6-4.9-5.3-11.8-5.3-20.9v-42.6c0-14.6 3.8-23.6 11.4-27.3 2.8-1.3 6.2-2 10.2-2 13.9 0 20.7 8.7 20.7 26v13.4h-14.4v-12.5c0-5-.4-8.6-1.3-10.8-.9-2.2-2.5-3.3-5-3.3s-4.2 1.1-5.2 3.4-1.4 5.8-1.4 10.6v45.7c0 5.3.5 9 1.4 11.3.9 2.3 2.6 3.4 5.1 3.4s4.1-1.1 5.1-3.4c.9-2.3 1.4-6.1 1.4-11.4v-14h14.6v13.8z"/>
  </symbol>
  <!-- LETTER D -->
  <symbol id="d" viewBox="0 0 100 100">
    <path d="M43.5 88.2h5c2.8 0 4.8-.9 6.1-2.7 1.3-1.8 1.9-5.2 1.9-10l-.1-49.4c0-5.2-.6-8.9-1.9-11.1-1.2-2.2-3.4-3.3-6.5-3.3h-4.5v76.5zm-15.2 11.8v-100h22.4c7.3 0 12.7 2.2 16 6.5 3.3 4.3 5 10.7 5 19.1l.1 45.1c0 10.1-1.7 17.5-5 22.2-3.3 4.7-8.8 7-16.5 7h-22z"/>
  </symbol>
  <!-- LETTER E -->
  <symbol id="e" viewBox="0 0 100 100">
    <path d="M32.9 100v-100h33.5v13.1h-18.3v29.1h17.4v12.9h-17.4v31.8h19v13.1z"/>
  </symbol>
  <!-- LETTER F -->
  <symbol id="f" viewBox="0 0 100 100">
    <path d="M32.8 100v-100h34.4v13.2h-19.1v26.6h17.7v13.3h-17.7v46.9z"/>
  </symbol>
  <!-- LETTER H -->
  <symbol id="h" viewBox="0 0 100 100">
    <path d="M28 100v-100h15.2v40.5h13.6v-40.5h15.2v100h-15.2v-46.5h-13.6v46.5z"/>
  </symbol>
  <!-- LETTER J -->
  <symbol id="j" viewBox="0 0 100 100">
    <path d="M70.4 74.7c0 8.1-1.8 14.3-5.3 18.8-3.6 4.4-8.6 6.6-15.1 6.6-6.4 0-11.5-1.9-15.1-5.8-3.6-3.9-5.3-9.6-5.3-17.1v-17.8h14.6v16.9c0 5.5.9 8.8 2.6 10 .8.5 1.8.8 2.9.8 2.3 0 3.8-.9 4.5-2.8.7-1.9 1.1-4.8 1.1-8.9v-75.4h15.1v74.7z"/>
  </symbol>
  <!-- LETTER K -->
  <symbol id="k" viewBox="0 0 100 100">
    <path d="M26.2 100v-100h15.3v46l15.2-46h15.7l-16.5 49.3 17.9 50.7h-16.1l-16.1-46.7v46.7z"/>
  </symbol>
  <!-- LETTER N -->
  <symbol id="n" viewBox="0 0 100 100">
    <path d="M27.1 100v-100h12l21.2 60-1.1-27.3v-32.7h13.7v100h-10.8l-21.8-62.1.9 26.2v35.9z"/>
  </symbol>
  <!-- LETTER O -->
  <symbol id="o" viewBox="0 0 100 100">
    <path d="M43.4 71.7c0 5.7.4 9.7 1.3 12 .9 2.3 2.7 3.4 5.4 3.4s4.5-1.1 5.3-3.4c.9-2.3 1.3-6.3 1.3-11.9v-45.6c0-4.6-.4-8-1.3-10.1-.9-2.1-2.6-3.2-5.1-3.2-2.5 0-4.3 1.1-5.3 3.2s-1.5 5.5-1.5 10v45.6zm28.2-.1c0 9.6-1.7 16.7-5.1 21.4-3.4 4.7-8.9 7.1-16.4 7.1-7.5 0-13-2.4-16.5-7.1-3.5-4.7-5.2-11.9-5.2-21.4v-44.7c0-17.9 7.3-26.9 21.9-26.9 7.6 0 13 2.3 16.3 6.8 3.3 4.6 5 11.2 5 20v44.8z"/>
  </symbol>
  <!-- LETTER P -->
  <symbol id="p" viewBox="0 0 100 100">
    <path d="M28.3 100v-100h23c7.7 0 13 2.4 15.9 7.1 2.9 4.7 4.4 11.7 4.5 21.1v2.1c0 9.9-1.4 17.5-4.3 22.6-2.8 5.1-8 7.7-15.7 7.7h-8.2v39.4h-15.2zm15.2-52h5.2c3.2 0 5.3-1.2 6.3-3.7s1.5-7.2 1.5-14.2v-1.9c0-5.9-.6-10.1-1.6-12.7-1-2.5-3-3.8-6-3.8h-5.3v36.3z"/>
  </symbol>
  <!-- LETTER R -->
  <symbol id="r" viewBox="0 0 100 100">
    <path d="M48.2 53l-4.9-.2v47.2h-15.3v-100h25.2c5.2 0 9.1 1.1 11.7 3.2 2.6 2.1 4.3 5 5.1 8.8.8 3.8 1.3 8.7 1.3 14.8 0 6.1-.6 10.7-1.9 13.9-1.3 3.2-3.7 5.3-7.2 6.4 3.4.6 5.9 2.9 7.2 7 1.4 4.1 2 12.5 2 25.3s.2 19.7.6 20.6h-15.3c-.4-.8-.6-12.7-.6-35.9 0-4.4-.5-7.4-1.6-8.8-1-1.4-3.1-2.2-6.3-2.3zm-4.9-12h6.1c1.9 0 3.4-.4 4.3-1.3.9-.9 1.6-2.4 1.9-4.5.4-2.1.6-5.4.6-9.7v-.6c0-5.4-.5-9-1.4-10.6-.9-1.7-3-2.5-6.3-2.5h-5.2v29.2z"/>
  </symbol>
  <!-- LETTER S -->
  <symbol id="s" viewBox="0 0 100 100">
    <path d="M29.4 71.4v-8.7h14.1v9.8c0 5.4.5 9.3 1.4 11.5.9 2.2 2.7 3.3 5.2 3.3 2.6 0 4.2-.9 5.1-2.7.9-1.8 1.3-4.8 1.3-8.9 0-4.1-.7-7.7-2.2-10.7-1.5-3.1-3.8-6.3-7.1-9.6l-7.2-7.5c-3.4-3.5-6-7.2-7.9-10.9-1.8-3.8-2.8-8.1-2.8-13.1 0-8.1 1.6-14.1 4.7-18 3.1-3.9 8.4-5.9 16-5.9s12.7 2.3 15.4 6.9c2.7 4.6 4.1 11.2 4.1 20v6.1h-13.8v-7c0-4.7-.4-8.1-1.2-10.2-.8-2.1-2.4-3.1-4.7-3.1-2.3 0-4 .8-5 2.3-1 1.6-1.5 3.9-1.5 7s.5 5.6 1.6 7.4c1 1.9 2.9 4.2 5.6 7.1l8.1 8.7c4 4.4 7.1 8.8 9.1 13.3 2.1 4.5 3.1 9.4 3.1 14.7 0 9.1-1.5 15.9-4.6 20.3-3.1 4.4-8.5 6.6-16.2 6.6-7.7 0-13-2.4-16-7.3-3.1-5-4.6-12.1-4.6-21.4z"/>
  </symbol>
  <!-- LETTER T -->
  <symbol id="t" viewBox="0 0 100 100">
    <path d="M42.6 100v-86.8h-11.7v-13.2h38.2v13.2h-11.3v86.8z"/>
  </symbol>
  <!-- LETTER U -->
  <symbol id="u" viewBox="0 0 100 100">
    <path d="M71.8 73.5c0 9.1-1.7 15.8-5.2 20.1-3.4 4.3-9 6.4-16.6 6.4-7.6 0-13.1-2.2-16.6-6.5-3.4-4.3-5.2-11-5.2-20v-73.5h15v73.2c0 5.2.2 8.4.7 9.5.5 1.1 1.1 2.2 1.7 3.1.7.9 2.2 1.3 4.3 1.3 2.2 0 3.7-.6 4.7-1.9.9-1.3 1.5-2.8 1.7-4.7.2-1.9.3-4.3.3-7.3v-73.2h15v73.5z"/>
  </symbol>
</svg>