<svg xmlns="http://www.w3.org/2000/svg" style="display: none;">

  <!-- ABOUT -->
  <!-- BASE -->
  <symbol id="about-base" viewBox="0 0 512 512">
    <!-- CIRCLE -->
    <path d="M506 256c0 138.1-111.9 250-250 250s-250-111.9-250-250 111.9-250 250-250 250 111.9 250 250zm-250-200c-110.5 0-200 89.5-200 200s89.5 200 200 200 200-89.5 200-200-89.5-200-200-200z"/>
    <!-- LETTER'S RECT -->
    <path d="M231 231h50v150h-50z"/>
    <!-- LETTER'S SQUARE -->
    <path d="M231 131h50v50h-50z"/>
  </symbol>
  <!-- SHADOW -->
  <symbol id="about-shadow" viewBox="0 0 512 512">
    <!-- CIRCLE -->
    <path d="M126.6 408.5c34.8 29.6 80 47.5 129.4 47.5 110.5 0 200-89.5 200-200 0-49.4-17.9-94.6-47.5-129.4 43.1 36.6 70.5 91.3 70.5 152.4 0 110.5-89.5 200-200 200-61.1 0-115.8-27.4-152.4-70.5zm-97.6-129.5c0-138.1 111.9-250 250-250 63.2 0 120.9 23.4 164.9 62.1-45.8-52.2-113-85.1-187.9-85.1-138.1 0-250 111.9-250 250 0 74.9 32.9 142.1 85.1 187.9-38.6-44-62.1-101.7-62.1-164.9z"/>
    <!-- LETTER -->
    <path d="M254 181h-23v-50h50v23h-27v27zm0 73h27v-23h-50v150h23v-127z"/>
  </symbol>
  
  <!-- ARCHVIZ -->
  <!-- BASE -->
  <symbol id="archviz-base" viewBox="0 0 512 512">
    <path d="M310.4 388.3l-6.6-.3-6.6-.5-6.6-.7-6.6-1-6.5-1.2-6.5-1.4-6.4-1.6-6.4-1.9-6.3-2.1-6.2-2.3-1.8-.7 1.1.1 4.1.3 4.1.2h4.1l4-.1 4.2-.3 4.1-.4 4.1-.6 4.1-.7 4-.8 4-1 4-1.1 3.9-1.2 3.9-1.4 3.8-1.5 3.8-1.7 3.7-1.8 3.7-1.9 3.6-2 3.5-2.2 3.4-2.2 3.4-2.4 3.4-2.6 3.1-2.6 3.1-2.7 3.1-2.9 2.8-2.9 2.9-3.1 2.7-3.1 2.5-3.1 2.5-3.3 2.4-3.4 2.2-3.5 2.1-3.6 2-3.7 1.9-3.7 1.7-3.8 1.6-3.8 1.5-3.9 1.3-3.9 1.2-4 1.1-4 .9-4 .8-4.1.6-4.1.5-4.1.4-4.1.2-4 .1-4v-250.1h130.9v191.2l-.1 6.6-.3 6.6-.6 6.8-.8 6.6-1 6.5-1.3 6.5-1.5 6.5-1.7 6.4-1.9 6.3-2.1 6.3-2.4 6.2-2.6 6.1-2.8 6-3 5.9-3.2 5.8-3.4 5.7-3.6 5.6-3.8 5.4-4 5.3-4.1 5.2-4.3 5-4.5 4.9-4.7 4.7-4.8 4.5-5 4.4-5.1 4.2-5.3 4-5.4 3.8-5.5 3.6-5.7 3.5-5.8 3.3-5.9 3.1-6 2.9-6.1 2.6-6.2 2.4-6.2 2.2-6.3 2-6.4 1.8-6.4 1.6-6.5 1.3-6.5 1.1-6.6.9-6.6.6-6.6.4-6.6.2h-6.4zm32.3-22.7l3.5-.6 5.8-1.2 5.8-1.4 5.7-1.6 5.6-1.8 5.6-2 5.5-2.2 5.4-2.4 5.3-2.5 5.2-2.7 5.2-2.9 5-3.1 4.9-3.3 4.8-3.4 4.7-3.6 4.6-3.8 4.4-3.9 4.3-4.1 4.2-4.2 4-4.3 3.9-4.5 3.7-4.6 3.5-4.7 3.4-4.9 3.2-5 3-5.1 2.8-5.2 2.7-5.3 2.5-5.4 2.3-5.5 2.1-5.5 1.9-5.6 1.7-5.7 1.5-5.7 1.3-5.8 1.1-5.8.9-5.8.7-5.9.5-5.9.3-5.9.1-6.1v-170.3h-89.8v229.7l-.1 4.7-.2 4.7-.4 4.8-.6 4.8-.7 4.8-.9 4.8-1.1 4.7-1.2 4.7-1.4 4.6-1.6 4.6-1.7 4.5-1.9 4.5-2 4.4-2.2 4.3-2.4 4.3-2.5 4.2-2.6 4.1-2.8 4-2.9 3.9-3 3.7-3.1 3.7-3.3 3.6-3.3 3.4-3.6 3.4-3.6 3.2-3.7 3v.1zm-83.8 140.4l8.7-.3 8.6-.5 8.6-.8 8.6-1.1 8.5-1.4 8.5-1.7 8.4-2 8.3-2.3 8.3-2.6 8.2-2.9 8.1-3.2 7.9-3.5 7.8-3.7 7.7-4 7.5-4.3 7.4-4.5 7.2-4.8 7.1-5 6.9-5.3 6.7-5.5 6.5-5.7 6.3-5.9 6.1-6.2 5.9-6.4 5.6-6.6 5.4-6.8 5.2-6.9 4.9-7.1 4.7-7.3 4.4-7.4 4.2-7.6 3.9-7.7 3.6-7.9 3.4-8 3.1-8.1 2.8-8.2 2.5-8.3 2.2-8.4 1.9-8.4 1.6-8.5 1.1-6.9-3.1 5.9-3.6 6.4-3.8 6.2-4.1 6.2-4.2 5.9-4.5 5.8-4.7 5.7-4.9 5.5-5 5.3-5.3 5.2-5.3 4.9-5.6 4.8-5.7 4.6-5.9 4.4-6 4.2-6.2 3.9-6.3 3.7-6.5 3.6-6.6 3.3-6.6 3-6.9 2.9-6.8 2.5-6.9 2.3-7 2.1-7.1 1.9-7.1 1.6-7.2 1.4-7.2 1.1-7.3.9-7.3.6-7.4.4-7.2.1-7.3-.2-7.3-.4-7.3-.7-7.3-.9-7.3-1.2-7.1-1.4-7.1-1.7-7.1-1.9-7-2.2-6.9-2.4-6.9-2.7-6.6-2.8-6.6-3.1-6.5-3.3-6.4-3.6-6.4-3.8-6.1-4-5.9-4.2-5.9-4.4-5.7-4.6-5.6-4.9-5.3-4.9-5.2-5.2-5-5.4-4.8-5.5-4.7-5.8-4.4-5.9-4.2-5.9-4-6.1-3.8-6.3-3.6-6.5-3.3-6.5-3.1-6.6-2.8-6.6-2.6-6.8-2.4-6.9-2.2-7.1-1.9-7-1.7-7.2-1.4-7.1-1.2-7.2-.9-7.3-.7-7.3-.4-7.3-.2-7.3.1-7.3.4-7.4.6-7.2.9-7.4 1.1-7.2 1.3-7.1 1.6-7.2 1.9-7.1 2.1-7 2.4-7 2.6-6.9 2.8-6.7 3.1-6.7 3.3-6.6 3.6-6.5 3.7-6.2 4-6.3 4.2-6 4.3-5.8 4.6-5.8 4.7-5.5 5-5.4 5.2-5.3 5.2-5 5.6-4.9 5.6-4.6 5.8-4.5 6-4.3 6.1-4.1 6.2-3.8 6.4-3.6 6-3.2-6.9 1.1-8.5 1.6-8.4 1.9-8.4 2.2-8.3 2.5-8.2 2.8-8.1 3.1-8 3.4-7.9 3.6-7.7 3.9-7.6 4.2-7.4 4.4-7.3 4.7-7.1 4.9-6.9 5.2-6.8 5.4-6.6 5.6-6.4 5.9-6.2 6.1-5.9 6.3-5.7 6.5-5.5 6.7-5.3 6.9-5 7.1-5.1 7.1-4.5 7.4-4.3 7.5-4 7.7-3.7 7.8-3.5 7.9-3.2 8.1-2.9 8.2-2.6 8.3-2.3 8.3-2 8.4-1.7 8.5-1.4 8.5-1.1 8.6-.8 8.6-.5 8.6-.5 8.7v8.7l.4 8.7.7 8.6.9 8.6 1.2 8.6 1.5 8.5 1.8 8.5 2.1 8.4 2.4 8.3 2.7 8.2 3 8.1 3.3 8 3.5 7.9 3.8 7.8 4.1 7.6 4.3 7.5 4.6 7.3 4.9 7.2 5.1 7 5.3 6.8 5.6 6.6 5.8 6.4 6 6.2 6.2 6 6.4 5.8 6.6 5.6 6.8 5.3 7 5.1 7.2 4.9 7.3 4.6 7.5 4.3 7.6 4.1 7.8 3.8 7.9 3.5 8 3.3 8.1 3 8.2 2.7 8.3 2.4 8.4 2.1 8.5 1.8 8.5 1.5 8.6 1.2 8.6.9 8.6.6 8.7.4 9.1.5zm-122.3-239.8l-2.3-6.2-2.1-6.3-1.8-6.4-1.6-6.4-1.4-6.5-1.2-6.5-1-6.6-.7-6.6-.5-6.6-.3-6.6v-6.6l.2-6.6.4-6.6.6-6.6.9-6.6 1.1-6.5 1.3-6.5 1.6-6.4 1.8-6.4 2-6.3 2.2-6.2 2.4-6.2 2.6-6.1 2.9-6 3.1-5.9 3.3-5.8 3.5-5.7 3.6-5.5 3.8-5.4 4-5.3 4.2-5.1 4.4-5 4.5-4.8 4.7-4.7 4.9-4.5 5-4.3 5.2-4.1 5.3-4 5.4-3.8 5.6-3.6 5.7-3.4 5.8-3.2 5.9-3 6-2.8 6.1-2.6 6.2-2.4 6.3-2.1 6.3-1.9 6.4-1.7 6.5-1.5 6.5-1.3 6.5-1 6.6-.5 6.6-.6 6.6-.3 6.7-.1h40.4v130.7h-99.3l-4.2.1-4.1.2-4.1.4-4.1.5-4.1.6-4.1.8-4 .9-4 1.1-3.9 1.2-3.9 1.3-3.9 1.5-3.9 1.6-3.8 1.7-3.7 1.9-3.6 2-3.5 2.1-3.6 2.3-3.4 2.4-3.3 2.5-3.2 2.6-3.1 2.7-3 2.7-3 3-2.8 3-2.7 3.1-2.6 3.2-2.5 3.3-2.4 3.4-2.3 3.5-2.1 3.4-2.1 3.7-1.9 3.7-1.8 3.7-1.6 3.7-1.5 3.9-1.4 3.9-1.2 3.9-1.1 4-1 4-.8 4-.7 4.2-.5 4-.4 4.2-.3 4.1-.1 4.1v4.1l.2 4.1.3 4 .1 1-.7-1.8zm9.8-96.9l3.1-3.7 3.2-3.6 3.3-3.5 3.5-3.5 3.5-3.2 3.7-3.2 3.8-3 3.9-2.9 4-2.8 4.2-2.7 4.1-2.4 4.2-2.3 4.3-2.2 4.4-2 4.6-1.9 4.5-1.7 4.6-1.6 4.5-1.4 4.7-1.2 4.7-1.1 4.8-.9 4.8-.8 4.8-.6 4.8-.4 4.8-.3 4.6-.1h79.3v-89.9h-19.8l-6.2.1-5.9.3-5.9.5-5.9.7-5.8.9-5.8 1.1-5.8 1.3-5.7 1.5-5.7 1.7-5.6 1.9-5.5 2.1-5.5 2.3-5.4 2.5-5.3 2.7-5.3 3-5.1 3-5 3.2-4.9 3.4-4.7 3.5-4.6 3.7-4.5 3.9-4.3 4-4.2 4.2-4.1 4.3-3.9 4.4-3.8 4.6-3.6 4.7-3.4 4.8-3.3 4.9-3.1 5-2.9 5.2-2.7 5.2-2.5 5.3-2.4 5.4-2.2 5.5-2 5.6-1.8 5.6-1.6 5.7-1.4 5.8-1.2 5.8-.4 3.6z"/>
  </symbol>
  <!-- SHADOW -->
  <symbol id="archviz-shadow" viewBox="0 0 512 512">
    <path d="M258.3 379.8l-6.3-2.1-6.2-2.3-1.8-.7 1.1.1 4.1.3 4.1.2h4.1l4-.1 4.2-.3 4.1-.4 4.1-.6 4.1-.7 4-.8 4-1 4-1.1 3.9-1.2 3.9-1.4 3.8-1.5 3.8-1.7 3.7-1.8 3.7-1.9 3.6-2 3.5-2.2 3.4-2.2 3.4-2.4 3.4-2.6 3.1-2.6 3.1-2.7 3.1-2.9 2.8-2.9 2.9-3.1 2.7-3.1 2.5-3.1 2.5-3.3 2.4-3.4 2.2-3.5 2.1-3.6 2-3.7 1.9-3.7 1.7-3.8 1.6-3.8 1.5-3.9 1.3-3.9 1.2-4 1.1-4 .9-4 .8-4.1.6-4.1.5-4.1.4-4.1.2-4 .1-4v-250.1h130.8v10.2h-120.5v250.1l-.1 4-.2 4-.4 4.1-.5 4.1-.6 4.1-.8 4.1-.9 4-1.1 4-1.2 4-1.3 3.9-1.5 3.9-1.6 3.8-1.7 3.8-1.9 3.7-2 3.7-2.1 3.6-2.2 3.5-2.4 3.4-2.5 3.3-2.5 3.1-2.7 3.1-2.9 3.1-2.8 2.9-3.1 2.9-3.1 2.7-3.1 2.6-3.4 2.6-3.4 2.4-3.4 2.2-3.5 2.2-3.6 2-3.7 1.9-3.7 1.8-3.8 1.7-3.8 1.5-3.9 1.4-3.9 1.2-4 1.1-4 1-4 .8-4.1.7-4.1.6-1.4.1-1.1-.2-6.5-1.4-6.4-1.6-6.3-1.8zm227.3-182.8l-.1 6.1-.3 5.9-.5 5.9-.7 5.9-.9 5.8-1.1 5.8-1.3 5.8-1.5 5.7-1.7 5.7-1.9 5.6-2.1 5.5-2.3 5.5-2.5 5.4-2.7 5.3-3 5.1-3 5.1-3.2 5-3.4 4.9-3.5 4.7-3.7 4.6-3.9 4.5-4 4.3-4.2 4.2-4.3 4.1-4.4 3.9-4.6 3.8-4.7 3.6-4.8 3.4-4.9 3.3-5 3.1-5.2 2.9-5.2 2.7-5.3 2.5-5.4 2.4-5.5 2.2-3.3 1.2-4.4 1.5-4.2 1.3-4.8 1.3-4.7 1.1-4.9 1-5.7 1 10.2 10.2 3.5-.6 5.8-1.2 5.8-1.4 5.7-1.6 5.6-1.8 5.6-2 5.5-2.2 5.4-2.4 5.3-2.5 5.2-2.7 5.2-2.9 5-3.1 4.9-3.3 4.8-3.4 4.7-3.6 4.6-3.8 4.4-3.9 4.3-4.1 4.2-4.2 4-4.3 3.9-4.5 3.7-4.6 3.5-4.7 3.4-4.9 3.2-5 3-5.1 2.8-5.2 2.7-5.3 2.5-5.4 2.3-5.5 2.1-5.5 1.9-5.6 1.7-5.7 1.5-5.7 1.3-5.8 1.1-5.8.9-5.8.7-5.9.5-5.9.3-5.9.1-6.1v-170.3l-10.2-10.2v170.6zm-396.5 245.1l-3.7-3.3-6.2-6-6-6.2-5.8-6.4-5.6-6.6-5.3-6.8-5.1-7-4.9-7.2-4.6-7.3-4.3-7.5-4.1-7.6-3.8-7.8-3.5-7.9-3.3-8-3-8.1-2.7-8.2-2.4-8.3-2.1-8.4-1.8-8.5-1.5-8.5-1.4-8.8-.9-8.6-.7-8.6-.4-8.7v-8.7l.3-8.7.5-8.6.8-8.6 1.1-8.6 1.4-8.5 1.7-8.5 2-8.4 2.3-8.3 2.6-8.3 2.9-8.2 3.2-8.1 3.5-7.9 3.7-7.8 4-7.7 4.3-7.5 4.7-7.4 4.8-7.2 5-7.1 5.3-6.9 5.5-6.7 5.7-6.5 5.9-6.3 6.2-6.1 6.4-5.9 6.6-5.6 6.8-5.4 6.9-5.2 7.1-4.9 7.3-4.7 7.4-4.4 7.6-4.2 7.7-3.9 7.9-3.6 8-3.4 8.1-3.1 8.2-2.8 8.3-2.5 8.4-2.2 8.4-1.9 8.5-1.6 6.9-1.1-6 3.2-6.4 3.6-6.2 3.8-6.1 4.1-6 4.3-5.8 4.5-5.6 4.6-5.6 4.9-5.2 5-5.2 5.3-1.3 1.4-1.6.8-7.6 4.2-7.4 4.4-7.3 4.7-7.1 4.9-6.9 5.2-6.8 5.4-6.6 5.6-6.4 5.9-6.2 6.1-5.9 6.3-5.7 6.5-5.5 6.7-5.5 6.8-5 7.1-4.8 7.2-4.5 7.4-4.3 7.5-4 7.7-3.7 7.8-3.5 7.9-3.2 8.1-2.9 8.2-2.6 8.3-2.3 8.3-2 8.4-1.7 8.5-1.4 8.5-1.1 8.6-.8 8.6-.5 8.6-.3 8.7v8.7l.4 8.7.7 8.6.9 8.6 1.2 8.6 1.5 8.5 1.8 8.5 2.1 8.4 2.4 8.3 2.7 8.2 3 8.1 3.3 8 3.5 7.9 3.8 7.8 4.1 7.6 4.3 7.5 4.6 7.3 4.9 7.2 5.1 7 5.3 6.8 5.6 6.6 2.5 2.8zm139.6-52.2l-6.6-3.1-6.5-3.3-6.4-3.6-6.4-3.8-6.1-4-5.9-4.2-5.9-4.4-5.7-4.6-3.6-3.1 1.8 2.1 5 5.4 5.2 5.2 5.3 4.9 5.6 4.9 5.7 4.6 5.9 4.4 5.9 4.2 6.1 4 6.4 3.8 6.4 3.6 6.5 3.3 6.6 3.1 6.6 2.8 6.9 2.7 6.9 2.4 7 2.2 7.1 1.9 7.1 1.7 7.1 1.4 7.3 1.2 7.3.9 7.3.7 7.3.4 7.3.2 7.2-.1 7.4-.4 7.3-.6 7.3-.9 7.2-1.1 7.2-1.4 7.1-1.6 7.1-1.9 7-2.1 6.9-2.3 6.8-2.5 6.9-2.9 6.6-3 6.6-3.3 6.5-3.6 6.3-3.7 6.2-3.9 6-4.2 5.9-4.4 5.7-4.6 5.6-4.8 3.8-3.5 3.1-6.1 3.6-7.9 3.4-8 3.1-8.1 2.8-8.2 2.5-8.3 2.2-8.4 1.9-8.4 1.6-8.5 1.1-6.9-3.1 5.9-3.6 6.4-3.8 6.2-4.1 6.2-4.2 5.9-4.5 5.8-4.7 5.7-4.9 5.5-5 5.3-5.3 5.2-5.3 4.9-5.6 4.8-5.7 4.6-5.9 4.4-6 4.2-6.2 3.9-6.3 3.7-6.5 3.6-6.6 3.3-6.6 3-6.9 2.9-6.8 2.5-6.9 2.3-7 2.1-7.1 1.9-7.1 1.6-7.2 1.4-7.2 1.1-7.3.9-7.3.6-7.4.4-7.2.1-7.3-.2-7.3-.4-7.3-.7-7.3-.9-7.3-1.2-7.1-1.4-7.1-1.7-7.1-1.9-7-2.2-6.9-2.4-6.9-2.7-6.5-2.9zm-91.5-122.9l.1 1-.7-1.8-2.3-6.2-2.1-6.3-1.8-6.4-1.6-6.4-1.4-6.5-1.2-6.5-1-6.6-.7-6.6-.5-6.6-.3-6.6v-6.6l.2-6.6.4-6.6.6-6.6.9-6.6 1.1-6.5 1.3-6.5 1.6-6.4 1.8-6.4 2-6.3 2.2-6.2 2.4-6.2 2.6-6.1 2.9-6 3.1-5.9 3.3-5.8 3.5-5.7 3.6-5.5 3.8-5.4 4-5.3 4.2-5.1 4.4-5 4.5-4.8 4.7-4.7 4.9-4.5 5-4.3 5.2-4.1 5.3-4 5.4-3.8 5.6-3.6 5.7-3.4 5.8-3.2 5.9-3 6-2.8 6.1-2.6 6.2-2.4 6.3-2.1 6.3-1.9 6.4-1.7 6.5-1.5 6.5-1.3 6.5-1 6.6-.5 6.6-.6 6.6-.3 6.7-.1h40.4v10.2h-30.2l-6.7.1-6.6.3-6.6.6-6.6.8-6.5 1-6.5 1.3-6.5 1.5-6.4 1.7-6.3 1.9-6.3 2.1-6.2 2.4-6.1 2.6-6 2.8-5.9 3-5.8 3.2-5.7 3.4-5.6 3.6-5.4 3.8-5.3 4-5.2 4.1-5 4.3-4.9 4.5-4.7 4.7-4.5 4.8-4.4 5-4.2 5.1-4 5.3-3.8 5.4-3.6 5.5-3.5 5.7-3.3 5.8-3.1 5.9-2.9 6-2.6 6.1-2.4 6.2-2.2 6.2-2 6.3-1.8 6.4-1.6 6.4-1.3 6.5-1.1 6.5-.9 6.6-.6 6.6-.4 6.6-.2 6.6v6.6l.3 6.6.5 6.6.7 6.6 1 6.6 1 5.4-.3 2.9-.3 4.1-.1 4.1v4.1l.2 4.1.3 3.9zm25.7-94.8l3.3-3.5 3.5-3.5 3.5-3.2 3.7-3.2 3.8-3 3.9-2.9 4-2.8 4.2-2.7 4.1-2.4 4.2-2.3 4.3-2.2 4.4-2 4.6-1.9 4.5-1.7 4.6-1.6 4.5-1.4 4.7-1.2 4.7-1.1 4.8-.9 4.8-.8 4.8-.6 4.8-.4 4.8-.3 4.6-.1h79.3v-89.9l-10.2-10.2v89.8h-79.3l-4.6.1-4.8.3-4.8.4-4.8.6-4.8.8-4.8.9-4.7 1.1-4.7 1.2-4.5 1.4-4.6 1.6-4.5 1.7-4.6 1.9-4.4 2-4.3 2.2-4.2 2.3-4.1 2.4-4.2 2.7-4 2.8-3.9 2.9-3.8 3-2.7 2.3-3.9 3.6-4 3.9-3.3 3.5-2.8 3.2-3.4 4.1 10.2 10.2 3.1-3.7 3-3.4z"/>
  </symbol>

  <!-- CONTACT -->
  <!-- BASE -->
  <symbol id="contact-base" viewBox="0 0 512 512">
    <path d="M63.4 81h385.2c13.4 0 20.1 16.2 10.6 25.6l-182 182c-11.7 11.7-30.7 11.7-42.4 0l-182-182c-9.4-9.4-2.7-25.6 10.6-25.6zm-57.4 45.3v283.4l146.7-146.7c3.9-3.9 3.9-10.2 0-14.1l-129.6-129.6c-6.3-6.3-17.1-1.9-17.1 7zm353.3 136.8c30.2 30.1 146.7 146.7 146.7 146.7v-283.4c0-8.9-10.8-13.4-17.1-7.1l-129.7 129.7c-3.8 3.8-3.8 10.2.1 14.1zm125.5 167.9c5.9 0 11.2-2.4 15-6.2l-151.1-151.1c-3.9-3.9-10.2-3.9-14.1 0l-36.1 36.1c-23.4 23.4-61.4 23.4-84.9 0l-36.1-36.1c-3.9-3.9-10.2-3.9-14.1 0l-151.2 151.1c3.8 3.8 9.1 6.2 15 6.2h457.6"/>
  </symbol>
  <!-- SHADOW -->
  <symbol id="contact-shadow" viewBox="0 0 512 512">
    <path d="M52.8 106.6c-9.4-9.4-2.7-25.6 10.6-25.6h385.2c13.4 0 20.1 16.2 10.6 25.6l-4.4 4.4h-374.3c-6.7 0-11.7 4.1-13.9 9.3l-13.8-13.7zm-29.8 286.2l-17 17v-283.4c0-8.9 10.8-13.4 17.1-7.1l129.6 129.6c3.7 3.7 3.9 9.6.5 13.6l-113.1-113.2c-6.3-6.3-17.1-1.8-17.1 7.1v236.4zm483-243.6v-22.9c0-8.9-10.8-13.4-17.1-7.1l-129.7 129.7c-3.9 3.9-3.9 10.2 0 14.1l16.5 16.5c23-23 96.8-96.7 130.3-130.3zm-478.8 281.8c-5.9 0-11.2-2.4-15-6.2l151.1-151.1c3.9-3.9 10.2-3.9 14.1 0l36.1 36.1c23.4 23.4 61.4 23.4 84.9 0l36.1-36.1c3.9-3.9 10.2-3.9 14.1 0 27.4 27.3 151.2 151.1 151.2 151.1-2.2 2.2-5 4-8 5l-126.1-126.1c-3.9-3.9-10.2-3.9-14.1 0l-36.1 36.1c-23.4 23.4-61.4 23.4-84.9 0l-36.1-36.1c-3.9-3.9-10.2-3.9-14.1 0l-127.4 127.3h-25.8z"/>
  </symbol>
</svg>