<svg xmlns="http://www.w3.org/2000/svg" style="display: none;">

  <!-- ABOUT -->
  <!-- BASE -->
  <symbol id="about-base" viewBox="0 0 512 512">
    <!-- CIRCLE -->
    <path d="M506 256c0 138.1-111.9 250-250 250s-250-111.9-250-250 111.9-250 250-250 250 111.9 250 250zm-250-200c-110.5 0-200 89.5-200 200s89.5 200 200 200 200-89.5 200-200-89.5-200-200-200z"/>
    <!-- LETTER'S RECT -->
    <path d="M231 231h50v150h-50z"/>
    <!-- LETTER'S SQUARE -->
    <path d="M231 131h50v50h-50z"/>
  </symbol>
  <!-- SHADOW -->
  <symbol id="about-shadow" viewBox="0 0 512 512">
    <!-- CIRCLE -->
    <path d="M126.6 408.5c34.8 29.6 80 47.5 129.4 47.5 110.5 0 200-89.5 200-200 0-49.4-17.9-94.6-47.5-129.4 43.1 36.6 70.5 91.3 70.5 152.4 0 110.5-89.5 200-200 200-61.1 0-115.8-27.4-152.4-70.5zm-97.6-129.5c0-138.1 111.9-250 250-250 63.2 0 120.9 23.4 164.9 62.1-45.8-52.2-113-85.1-187.9-85.1-138.1 0-250 111.9-250 250 0 74.9 32.9 142.1 85.1 187.9-38.6-44-62.1-101.7-62.1-164.9z"/>
    <!-- LETTER -->
    <path d="M254 181h-23v-50h50v23h-27v27zm0 73h27v-23h-50v150h23v-127z"/>
  </symbol>
  
  <!-- ARCHVIZ -->
  <!-- LETTER -->
  <symbol id="about-letter" viewBox="0 0 512 512">
    <!-- CIRCLE -->
    <path d="M506 256c0 138.1-111.9 250-250 250s-250-111.9-250-250 111.9-250 250-250 250 111.9 250 250zm-250-200c-110.5 0-200 89.5-200 200s89.5 200 200 200 200-89.5 200-200-89.5-200-200-200z"/>
    <!-- RECT -->
    <path d="M231 231h50v150h-50z"/>
    <!-- SQUARE -->
    <path d="M231 131h50v50h-50z"/>
  </symbol>
  <!-- SHADOW -->
  <symbol id="about-shadow" viewBox="0 0 512 512">
    <!-- CIRCLE -->
    <path d="M126.6 408.5c34.8 29.6 80 47.5 129.4 47.5 110.5 0 200-89.5 200-200 0-49.4-17.9-94.6-47.5-129.4 43.1 36.6 70.5 91.3 70.5 152.4 0 110.5-89.5 200-200 200-61.1 0-115.8-27.4-152.4-70.5zm-97.6-129.5c0-138.1 111.9-250 250-250 63.2 0 120.9 23.4 164.9 62.1-45.8-52.2-113-85.1-187.9-85.1-138.1 0-250 111.9-250 250 0 74.9 32.9 142.1 85.1 187.9-38.6-44-62.1-101.7-62.1-164.9z"/>
    <!-- LETTER -->
    <path d="M254 181h-23v-50h50v23h-27v27zm0 73h27v-23h-50v150h23v-127z"/>
  </symbol>
</svg>