<svg xmlns="http://www.w3.org/2000/svg" style="display: none;">

  <!-- ABOUT -->
  <!-- BASE -->
  <symbol id="about-base" viewBox="0 0 512 512">
    <!-- CIRCLE -->
    <path d="M506 256c0 138.1-111.9 250-250 250s-250-111.9-250-250 111.9-250 250-250 250 111.9 250 250zm-250-200c-110.5 0-200 89.5-200 200s89.5 200 200 200 200-89.5 200-200-89.5-200-200-200z"/>
    <!-- LETTER'S RECT -->
    <path d="M231 231h50v150h-50z"/>
    <!-- LETTER'S SQUARE -->
    <path d="M231 131h50v50h-50z"/>
  </symbol>
  <!-- SHADOW -->
  <symbol id="about-shadow" viewBox="0 0 512 512">
    <!-- CIRCLE -->
    <path d="M126.6 408.5c34.8 29.6 80 47.5 129.4 47.5 110.5 0 200-89.5 200-200 0-49.4-17.9-94.6-47.5-129.4 43.1 36.6 70.5 91.3 70.5 152.4 0 110.5-89.5 200-200 200-61.1 0-115.8-27.4-152.4-70.5zm-97.6-129.5c0-138.1 111.9-250 250-250 63.2 0 120.9 23.4 164.9 62.1-45.8-52.2-113-85.1-187.9-85.1-138.1 0-250 111.9-250 250 0 74.9 32.9 142.1 85.1 187.9-38.6-44-62.1-101.7-62.1-164.9z"/>
    <!-- LETTER -->
    <path d="M254 181h-23v-50h50v23h-27v27zm0 73h27v-23h-50v150h23v-127z"/>
  </symbol>

  <!-- RESUME -->
  <!-- BASE -->
  <symbol id="resume-base" viewBox="0 0 512 512">
    <path d="M104.8 201.5v-145.5h21.7v36.6c1.1-4.4 3.4-8.1 6.8-11.1s7.5-4.5 12.3-4.5c7.1 0 12.5 2.4 16.1 7.1 3.7 4.7 5.5 11.5 5.5 20.5v96.8h-21.6v-94.8c0-7.9-2.9-11.9-8.7-11.9-3.3 0-5.9 1.4-7.7 4.1-1.8 2.7-2.7 6.4-2.7 11.1v91.4h-21.7zm111.9 1.5c-13.8 0-22.7-5.3-26.7-15.8-2.5-6.7-3.8-15.6-3.8-26.6v-45.8c0-25.1 10.5-37.7 31.4-37.7 11.1 0 18.9 3.3 23.1 9.9 4.3 6.6 6.5 16 6.5 28.2v26.3h-39.1v24.2c0 8.5.7 14 2.2 16.3 1.5 2.3 3.7 3.4 6.6 3.4s4.9-.7 5.7-2c1.5-2.4 2.3-4.9 2.5-7.4.2-2.5.3-6 .3-10.3v-10.8h21.5v6.6c0 11.1-.9 19.2-2.6 24-1.7 4.9-3.8 8.4-6.1 10.6-4.6 4.6-11.8 6.9-21.5 6.9zm-8.7-74.2h17.5v-15.7c0-6.7-.5-11.5-1.6-14.4-1-3-3.2-4.4-6.5-4.4h-.1c-5.7 0-8.7 4.3-9.2 13-.1 1.6-.2 3.8-.2 6.4v15.1zm96.2 6c-6.9 3.1-11.5 6-13.9 8.7-2.4 2.7-3.6 7-3.6 12.7v13.2c0 5.7.6 9.9 1.8 12.4 1.2 2.5 3.1 3.7 5.8 3.7 2.7 0 4.9-.9 6.6-2.7 1.7-1.9 2.8-3.9 3.3-6.2v-41.8zm-17.1 68c-8 0-13.8-2.9-17.2-8.6-3.4-5.8-5.2-14.1-5.3-24.9v-7.9c0-10.5 2.8-18.4 8.5-23.9 3.7-3.6 9.9-7 18.6-10.3 1.6-.6 3.8-1.4 6.6-2.5l6-2.2v-10.7c0-6.7-.5-11.2-1.5-13.5-.9-2.4-3.1-3.6-6.6-3.6-3.4 0-5.7 1.3-6.8 3.8-1.1 2.5-1.7 6.7-1.7 12.7v5.5h-21.5v-3.7c0-11.6 2.2-20.5 6.5-26.6 4.4-6.1 12.1-9.2 23.1-9.2 11.1 0 19 3.1 23.6 9.2 4.7 6.1 7 15.3 7 27.5v87.7h-21.9v-12.2c-1.1 3.8-3.2 7-6.3 9.6-3 2.5-6.8 3.8-11.1 3.8zm80.8 0c-6.6 0-11.6-1.9-14.8-5.6-3.3-3.7-5.4-8.4-6.4-14.1-.9-5.7-1.4-12.7-1.4-20.8v-50.1c0-10.3 1.9-18.7 5.7-25.2 3.8-6.6 10-9.8 18.7-9.8 3.4 0 6.5.8 9.3 2.5 2.8 1.6 5.1 3.9 6.6 6.6v-30.3h21.7v145.5h-21.7v-11.4c-3.4 8.5-9.2 12.7-17.7 12.7zm-.7-37.6c0 6.8.6 11.9 1.9 15.2 1.3 3.3 3.7 5 7.2 5 3.6 0 6-1.7 7.3-5 1.4-3.4 2-9 2-16.9v-49.2c0-10.1-1.5-16.2-4.6-18.4-1.3-.9-2.9-1.3-4.8-1.3-3.7 0-6.1 1.7-7.3 5-1.2 3.3-1.8 8.3-1.8 14.9v50.7zm-240.5 257.6v11.5h-21.9v-145.6h21.9v31.4c1.2-3.1 3.3-5.5 6.4-7.5 3-1.9 6.3-2.9 9.8-2.9 10.6 0 17.6 4.7 20.9 14.1 2.1 6 3.2 13.6 3.2 22.7v52.4c0 17.8-4 29-12 33.8-3 1.8-6.4 2.7-10.4 2.7h-.4c-8.4 0-14.3-4.3-17.5-12.6zm0-25.9c0 7.4.7 12.8 2 16.2 1.3 3.3 3.8 5 7.5 5s6.1-1.6 7.2-4.8c1.1-3.3 1.7-8.8 1.7-16.6v-50.3c0-9.8-1.3-15.7-3.9-17.6-1.2-.9-2.6-1.3-4.5-1.3-3.6 0-6.1 1.4-7.7 4.1-1.5 2.7-2.3 7.7-2.3 14.8v50.5zm89.7 21.3c3.4 0 5.7-1.5 6.9-4.4 1.3-3 1.9-7.5 1.9-13.4v-55c0-6-.6-10.5-1.9-13.5-1.3-3-3.6-4.5-7-4.5s-5.8 1.5-7 4.5c-1.3 2.9-1.9 7.5-1.9 13.5v55c0 9 1.5 14.5 4.5 16.6 1.1.8 2.6 1.2 4.5 1.2zm0 17.5c-11.7 0-19.8-3.5-24.3-10.4s-6.8-17-6.8-30.1v-46c0-26.3 10.3-39.4 31-39.4s31 13.1 31 39.4v46c0 20.5-5.3 33.1-16 37.8-4.1 1.8-9 2.7-14.9 2.7zm71.9-.2c-6.7 0-11.7-1.9-15-5.6-3.3-3.7-5.5-8.4-6.4-14.1-.9-5.7-1.4-12.7-1.4-20.8v-50.1c0-10.3 1.9-18.7 5.7-25.2 3.8-6.6 10.1-9.8 18.8-9.8 3.4 0 6.5.8 9.3 2.5 2.9 1.6 5.1 3.9 6.7 6.6v-30.2h22v145.5h-21.9v-11.4c-3.3 8.4-9.3 12.6-17.8 12.6zm-.8-37.6c0 6.8.6 11.9 1.9 15.2 1.3 3.3 3.7 5 7.3 5 3.6 0 6-1.7 7.4-5 1.4-3.4 2.1-9 2.1-16.9v-49.2c0-10.1-1.5-16.2-4.6-18.4-1.3-.9-2.9-1.3-4.8-1.3-3.7 0-6.1 1.7-7.4 5-1.2 3.3-1.8 8.3-1.8 14.9v50.7zm58.7 58.1v-15h7.2c2.8 0 4.9-.2 6.4-.7 1.5-.4 2.4-1.3 2.6-2.6.3-.5.5-1.6.5-3 0-1.5-.2-3.5-.6-6l-19.8-117.5h20.8l7.9 63 3.3 33.1h1.8l3-33.1 7.3-63h20.7l-21.5 128.3c-.9 6.2-2.5 10.5-4.7 12.9-2.2 2.4-6.1 3.6-11.6 3.6h-23.3zm97.6-254.5l62.2-62.2-62.2-62.2-15.1 15.1 47.1 47.1-47.1 47.1c-.1 0 15.1 15.1 15.1 15.1zm-360.4-15.1l-47.1-47.1 47.1-47.1-15.2-15.1-62.2 62.2 62.2 62.2 15.2-15.1zm360.4 247.8l62.2-62.2-62.2-62.2-15.1 15.1 47.1 47.1-47.1 47.1c-.1 0 15.1 15.1 15.1 15.1zm-360.4-15.1l-47.1-47.1 47.1-47.1-15.1-15.1c-.1 0-62.3 62.2-62.3 62.2l62.2 62.2 15.2-15.1z"/>
  </symbol>
  <!-- SHADOW -->
  <symbol id="resume-shadow" viewBox="0 0 512 512">
    <path d="M133.7 426.1c-.8-2.2-1.4-5.2-1.7-9 1.2.7 2.6 1 4.2 1 3.7 0 6.1-1.6 7.2-4.8 1.1-3.3 1.7-8.8 1.7-16.6v-50.3c0-1.9-.1-3.7-.2-5.3.5.2.9.4 1.3.7 2.6 2 3.9 7.8 3.9 17.6v50.3c0 7.8-.6 13.4-1.7 16.6-1 3.2-3.4 4.8-7.2 4.8-3.7 0-6.2-1.7-7.5-5zm143.9-326.8c4.4-6.1 12.1-9.2 23.1-9.2 11.1 0 19 3.1 23.6 9.2.3.4.6.8.9 1.3-1.1-5.8-3.1-10.6-5.9-14.3-4.6-6.1-12.5-9.2-23.6-9.2-11 0-18.7 3.1-23.1 9.2-4.3 6.1-6.5 15-6.5 26.6v3.7h5.5c1-7.2 3-12.9 6-17.3zm-30.5 55.6h-21.5v10.8c0 4.4-.1 7.8-.3 10.3-.2 2.5-1.1 5-2.5 7.4-.9 1.4-2.8 2-5.7 2-1.4 0-2.6-.3-3.7-.8.3 5.2 1 8.6 2.1 10.4 1.5 2.3 3.7 3.4 6.6 3.4s4.9-.7 5.7-2c1.5-2.4 2.3-4.9 2.5-7.4.2-2.5.3-6 .3-10.3v-10.8h16.4c.1-2 .1-4.2.1-6.5v-6.5zm-21.7-47.1c.1 1.6.1 3.4.1 5.3v15.7h-12.5v12.7h17.5v-15.4c0-6.7-.5-11.5-1.6-14.4-.6-2-1.8-3.3-3.5-3.9zm-79.8.8v92.9h5v-81.8c0-5.9-1.7-9.7-5-11.1zm153.1 89.8c2.8-2.5 4.8-5.6 5.8-9.1v7.7c.5-.3 1-.7 1.4-1.2 1.7-1.9 2.8-3.9 3.3-6.2v-41.7c-1.8.8-3.5 1.6-5 2.4v26.3c-.4 2.3-1.5 4.4-3.3 6.2-1.7 1.8-3.9 2.7-6.6 2.7-1 0-1.8-.2-2.6-.5.2 4.4.7 7.7 1.8 9.8 1.1 2.3 2.8 3.5 5.2 3.6zm-81.9 231.6c1.2.8 2.7 1.2 4.5 1.2 3.4 0 5.7-1.5 6.9-4.4 1.3-3 1.9-7.5 1.9-13.4v-55c0-6-.6-10.5-1.9-13.5-.7-1.7-1.8-2.9-3.2-3.7.1 1.3.1 2.7.1 4.2v55c0 5.9-.6 10.4-1.9 13.4-1.2 3-3.5 4.4-6.9 4.4-1.5 0-2.8-.3-3.9-.9.5 6.7 1.9 10.9 4.4 12.7zm263.9-277.7l-9-9-43.1 43.1 9 9 43.1-43.1zm-31.9-62.2l53.2 53.2 4-4-62.2-62.2-15.1 15.1 9 9 11.1-11.1zm0 232.7l53.2 53.2 4-4-62.2-62.2-15.1 15.1 9 9 11.1-11.1zm-97.3-127.5c-.8-5.6-1.3-12.2-1.3-20v-50.1c0-10.3 1.9-18.7 5.7-25.2s10-9.8 18.7-9.8c3.4 0 6.5.8 9.3 2.5 2.8 1.6 5.1 3.9 6.6 6.6v-30.3h16.7v-13h-21.7v30.2c-1.6-2.8-3.8-5-6.6-6.6-2.8-1.6-5.9-2.5-9.3-2.5-8.7 0-14.9 3.3-18.7 9.8s-5.7 15-5.7 25.2v50.1c0 8.1.5 15.1 1.4 20.8.9 4.8 2.5 8.9 4.9 12.3zm27.7 178.9l-2.1 23.2 2.3 22.9h1.8l3-33.1 7.3-63h13.6l2.2-13h-20.7l-7.4 63zm6.8-265.2l-.6-.3c.1 1.7.2 3.6.2 5.7v49.2c0 7.9-.7 13.5-2 16.9-1.3 3.3-3.7 5-7.3 5-1.5 0-2.8-.3-3.9-.9.3 3.7.8 6.7 1.7 8.9 1.2 3 3.2 4.6 6.1 4.9 2.2-2 4-4.8 5.4-8.3v7.2c1.3-.8 2.3-2.1 3-3.9 1.4-3.4 2-9 2-16.9v-49.2c0-10-1.5-16.1-4.6-18.3zm-193.1 83.8c-1.1-5.4-1.7-11.8-1.7-19.2v-45.8c0-25.1 10.5-37.7 31.4-37.7 11.1 0 18.9 3.3 23.1 9.9l.1.2c-1.1-5.2-2.8-9.6-5.1-13.2-4.3-6.6-12-9.9-23.1-9.9-20.9 0-31.4 12.6-31.4 37.7v45.8c0 11 1.3 19.8 3.8 26.6.8 2.1 1.8 3.9 2.9 5.6zm77.6 215.2v-50.1c0-10.3 1.9-18.7 5.7-25.2 3.8-6.6 10.1-9.8 18.8-9.8 3.4 0 6.5.8 9.3 2.5 2.9 1.6 5.1 3.9 6.7 6.6v-30.2h17v-13h-21.9v30.2c-1.6-2.8-3.8-5-6.7-6.6-2.8-1.6-5.9-2.5-9.3-2.5-8.8 0-15 3.3-18.8 9.8-3.8 6.6-5.7 15-5.7 25.2v50.1c0 8.1.5 15.1 1.4 20.8.8 4.7 2.5 8.7 4.9 12.1-1-5.6-1.4-12.2-1.4-19.9zm.2-212.5c-.7-3.9-1.1-8.3-1.2-13.2v-7.9c0-10.5 2.8-18.4 8.5-23.9 2.9-2.8 7.3-5.5 13.4-8.2 2.6-2.4 6.9-4.9 12.8-7.5v2.6c2.3-.9 4-1.5 5-1.9v-10.7c0-6.7-.5-11.2-1.5-13.5-.6-1.6-1.8-2.7-3.6-3.2 0 1.2.1 2.4.1 3.7v10.7c-1.1.4-3.1 1.2-6 2.2-2.8 1-5 1.9-6.6 2.5-8.7 3.3-14.9 6.8-18.6 10.3-5.7 5.4-8.5 13.4-8.5 23.9v7.9c.1 10.8 1.9 19.1 5.3 24.9.3.4.6.8.9 1.3zm-80.4 212.7v-46c0-26.3 10.3-39.4 31-39.4 11.3 0 19.6 4 24.7 11.9-3.4-16.6-13.3-24.9-29.7-24.9-20.7 0-31 13.1-31 39.4v46c0 12.9 2.2 22.8 6.6 29.7-1.1-4.8-1.6-10.4-1.6-16.7zm115.8 14.7v7.2c1.3-.8 2.3-2.1 3-3.9 1.4-3.4 2.1-9 2.1-16.9v-49.2c0-10.1-1.5-16.2-4.6-18.4l-.6-.3c.1 1.7.2 3.6.2 5.7v49.2c0 7.9-.7 13.5-2.1 16.9-1.3 3.3-3.8 5-7.4 5-1.5 0-2.8-.3-4-1 .3 3.7.8 6.7 1.7 9 1.2 3 3.2 4.6 6.2 4.9 2.3-2 4.1-4.8 5.5-8.2zm174.6-37.9l-9-9-43.1 43.1 9 9 43.1-43.1zm-121 55.3c-1.5.4-3.6.7-6.4.7h-7.2v15h5v-2h7.2c2.8 0 4.9-.2 6.4-.7 1.5-.4 2.4-1.3 2.6-2.6.3-.5.5-1.6.5-3s-.2-3.5-.6-6l-19.8-117.5h17.5l-1.6-13h-20.8l19.8 117.5c.4 2.5.6 4.5.6 6s-.2 2.5-.5 3c-.3 1.3-1.1 2.2-2.7 2.6zm-194.1-109.5c-.5-2.5-1.1-4.8-1.9-6.9-3.4-9.4-10.3-14.1-20.9-14.1-3.5 0-6.8 1-9.8 2.9-.5.3-.9.6-1.4 1v15c1.1-.7 2.5-1.1 4.1-1.2.7-.6 1.5-1.2 2.3-1.7 3-1.9 6.3-2.9 9.8-2.9 8-.1 14 2.6 17.8 7.9zm-55.8-29.1h16.9v-13h-21.9v145.5h5v-132.5zm-36.6-211.6l6.1 6.1 4-4-15.1-15.1-62.2 62.2 9 9c13.8-13.7 58.2-58.2 58.2-58.2zm6.2 333l4-4-38.1-38.1-4 4 38.1 38.1zm52.1-326.6c1.5-1.1 3.3-1.6 5.4-1.6h1.1l.3-.3c3.4-3 7.5-4.5 12.3-4.5 7.1 0 12.5 2.4 16.1 7.1-.8-5.4-2.4-9.7-5-13-3.7-4.8-9-7.1-16.1-7.1-4.8 0-8.9 1.5-12.3 4.5l-1.8 1.8v13.1zm-21.7-27.5h16.7v-13h-21.7v145.5h5v-132.5zm-36.6 253.8l6.1 6.1 4-4-15.1-15.1-62.2 62.2 9 9c13.8-13.7 58.2-58.2 58.2-58.2zm6.2-132.4l4-4-38.1-38.1-4 4 38.1 38.1z"/>
  </symbol>

  <!-- TASKTIMER -->
  <!-- BASE -->
  <symbol id="tasktimer-base" viewBox="0 0 512 612">
    <path d="M488.5 264c-12.6-31.8-31.5-60.6-55.7-84.8-24.1-24.1-53-43.1-84.7-55.7-29.3-11.6-60.5-17.5-92-17.5s-62.7 5.9-92 17.5c-31.8 12.6-60.6 31.5-84.7 55.7-24.1 24.1-43.1 53-55.7 84.7-11.7 29.4-17.7 60.6-17.7 92.1s6 62.7 17.6 92c12.5 31.8 31.5 60.6 55.7 84.7 24.1 24.2 53 43.1 84.7 55.7 29.3 11.6 60.5 17.5 92 17.5s62.7-5.9 92-17.5c31.8-12.6 60.6-31.5 84.7-55.7 24.1-24.2 43.1-53 55.7-84.8 11.6-29.3 17.5-60.5 17.5-92s-5.8-62.6-17.4-91.9zm-46.5 165.6c-10.1 25.4-25.2 48.5-44.6 67.8-19.3 19.3-42.4 34.5-67.8 44.5-23.4 9.3-48.4 14.1-73.6 14.1s-50.2-4.8-73.6-14.1c-25.4-10.1-48.5-25.2-67.8-44.5-19.3-19.3-34.5-42.4-44.6-67.8-9.2-23.4-14-48.4-14-73.6 0-25.2 4.8-50.2 14.1-73.6 10.1-25.4 25.2-48.5 44.6-67.8 19.3-19.3 42.4-34.5 67.8-44.5 23.5-9.3 48.4-14.1 73.6-14.1s50.2 4.7 73.6 14.1c25.4 10.1 48.5 25.2 67.8 44.5 19.3 19.3 34.5 42.4 44.6 67.8 9.3 23.4 14 48.4 14 73.6-.1 25.2-4.8 50.2-14.1 73.6z"/>
  </symbol>
  <!-- LETTER -->
  <symbol id="tasktimer-letter" viewBox="0 0 512 612">
    <path d="M393.5 29.7c-.3-6.4-3.1-12.5-7.8-16.9-4.7-4.4-10.8-6.8-17.2-6.8h-225.1c-.8 0-1.7.1-2.5.2-6.5.7-12.4 3.8-16.6 8.9-4 4.9-6.1 11-5.8 17.3.3 6.4 3.1 12.5 7.8 16.9 4.7 4.4 10.8 6.8 17.2 6.8h225.1c.9 0 1.7-.1 2.5-.2 6.5-.7 12.4-3.8 16.6-8.9 4.1-4.9 6.1-11 5.8-17.3zm-137.5 176.3c-6.6 0-13 2.6-17.7 7.3-4.7 4.7-7.3 11-7.3 17.7v125c0 6.6 2.6 13 7.3 17.7 4.7 4.7 11.1 7.3 17.7 7.3s13-2.6 17.7-7.3c4.7-4.7 7.3-11.1 7.3-17.7v-125c0-6.6-2.6-13-7.3-17.7-4.7-4.7-11-7.3-17.7-7.3zm17.7 7.3c-4.7-4.7-11-7.3-17.7-7.3-6.6 0-13 2.6-17.7 7.3-4.7 4.7-7.3 11-7.3 17.7v125c0 6.6 2.6 13 7.3 17.7 4.7 4.7 11.1 7.3 17.7 7.3s13-2.6 17.7-7.3c4.7-4.7 7.3-11.1 7.3-17.7v-125c0-6.6-2.6-13-7.3-17.7zm0 0c-4.7-4.7-11-7.3-17.7-7.3-6.6 0-13 2.6-17.7 7.3-4.7 4.7-7.3 11-7.3 17.7v125c0 6.6 2.6 13 7.3 17.7 4.7 4.7 11.1 7.3 17.7 7.3s13-2.6 17.7-7.3c4.7-4.7 7.3-11.1 7.3-17.7v-125c0-6.6-2.6-13-7.3-17.7z"/>
  </symbol>
  <!-- SHADOW BASE -->
  <symbol id="tasktimer-shadow-base" viewBox="0 0 512 612">
    <path d="M91.4 544.2c-4.2-3.7-8.3-7.5-12.2-11.4-24.2-24.1-43.1-53-55.7-84.7-11.5-29.4-17.5-60.6-17.5-92.1 0-31.5 6-62.7 17.6-92 12.6-31.8 31.5-60.6 55.7-84.7 24.1-24.1 53-43.1 84.7-55.7 29.3-11.6 60.5-17.5 92-17.5s62.7 5.9 92 17.5c31.8 12.6 60.6 31.5 84.7 55.7 3.9 3.9 7.7 8 11.4 12.2-21.4-18.8-46-33.7-72.5-44.3-29.3-11.6-60.5-17.5-92-17.5s-62.7 5.9-92 17.5c-31.8 12.6-60.6 31.5-84.7 55.7-24.1 24.1-43.1 53-55.7 84.7-11.6 29.3-17.6 60.5-17.6 92s6 62.7 17.6 92c10.5 26.6 25.5 51.1 44.2 72.6zm374.2-238.2c-10.1-25.4-25.2-48.5-44.6-67.8-3.9-4-8.1-7.7-12.3-11.3 14 16.6 25.3 35.3 33.3 55.5 9.3 23.4 14 48.4 14 73.6 0 25.2-4.7 50.2-14 73.6-10.1 25.4-25.2 48.5-44.6 67.8-19.3 19.3-42.4 34.5-67.8 44.5-23.4 9.3-48.4 14.1-73.6 14.1-25.2 0-50.2-4.8-73.6-14.1-20.2-8-38.9-19.3-55.5-33.2 3.6 4.2 7.4 8.4 11.3 12.3 19.3 19.3 42.4 34.5 67.8 44.5 23.4 9.3 48.4 14.1 73.6 14.1 25.2 0 50.2-4.8 73.6-14.1 25.4-10.1 48.5-25.2 67.8-44.5 19.3-19.3 34.5-42.4 44.6-67.8 9.3-23.4 14-48.4 14-73.6 0-25.2-4.7-50.2-14-73.6z"/>
  </symbol>
  <!-- SHADOW LETTER -->
  <symbol id="tasktimer-shadow-letter" viewBox="0 0 512 612">
    <path d="M142.1 55.9c-5.9-.3-11.4-2.7-15.8-6.8-4.7-4.4-7.5-10.4-7.8-16.9-.3-6.3 1.7-12.5 5.8-17.3 4.2-5 10.1-8.2 16.6-8.9l2.5-.2h225.1c6.4 0 12.5 2.4 17.2 6.8 4.7 4.4 7.5 10.4 7.8 16.8l-1.4-.1h-225.1c-.8 0-1.7.1-2.5.2-6.5.7-12.4 3.8-16.6 8.9-4 5-6.1 11.2-5.8 17.5zm112.5 323.7v-125c0-6.6 2.6-13 7.3-17.7 4.7-4.7 11-7.3 17.7-7.3.4 0 .9 0 1.3.1-.3-6.2-2.9-12-7.3-16.3-4.7-4.7-11-7.3-17.7-7.3-6.6 0-13 2.6-17.7 7.3-4.7 4.7-7.3 11-7.3 17.7v125c0 6.6 2.6 13 7.3 17.7 4.4 4.3 10.2 6.9 16.4 7.2.1-.5 0-1 0-1.4z"/>
  </symbol>

  <!-- PORTFOLIO -->
  <!-- BASE -->
  <symbol id="portfolio-base" viewBox="0 0 512 512">
    <path d="M67 406.8c-15.9 0-26.6-3-32-9-5.5-6.1-8.2-16.7-8.2-31.7v-178.5h-20.8v-37.2h20.8v-45.2h45.1v45.2h24.9v37.2h-24.9v170.7c0 6 1.5 9.9 4.6 11.6 3.2 1.7 10.2 2.6 21.1 2.6v34.4h-30.6zm63.5 0v-301.6h45.1v76.1c2.4-9.2 7.1-16.9 14.1-23 7-6.2 15.6-9.4 25.6-9.4 14.8 0 25.9 4.9 33.6 14.8 7.6 9.8 11.4 24 11.4 42.6v200.5h-45v-196.2c0-16.5-6-24.7-18.1-24.7-6.9 0-12.3 2.8-16 8.5-3.7 5.7-5.6 13.4-5.6 23.2v189.3h-45.1zm173.4 0v-219.2h45.2v219.2h-45.2zm0-256.4v-45.2h45.2v45.2h-45.2zm82.1 61.4c0-40.9 19.7-61.4 59.1-61.4 19.6 0 33.9 5.6 42.9 16.9 9.1 11.1 13.7 29.7 13.7 55.7v13.7h-39.5v-16.5c0-11.3-1.3-19.7-3.8-25.2-2.6-5.6-6.8-8.3-12.8-8.3-5.9 0-10.3 1.7-13.2 5.2-2.8 3.4-4.2 9.3-4.2 17.7 0 13.2 5.9 25.5 17.7 36.9l23.7 21.5c24.4 22.7 36.5 47.7 36.5 74.9 0 21.4-4.8 37.4-14.5 48.1-9.7 10.7-24.7 16-45.1 16s-35.4-5.8-45.1-17.4c-9.7-11.7-14.5-30.4-14.5-56.1v-16.2h41.5v20.2c0 22.2 5.7 33.4 17 33.4 6 0 10.3-1.9 13-5.8 2.7-4 4-10.7 4-20.2 0-16.7-7.7-32.1-23-46.4-.4-.4-4.1-3.7-10.8-9.7-6.7-6-10.6-9.6-11.7-10.7-20.6-18.9-30.9-40.9-30.9-66.3z"/>
  </symbol>
  <!-- SHADOW -->
  <symbol id="portfolio-shadow" viewBox="0 0 512 512">
    <path d="M85 150.4h11.8v24.1h-11.8v-24.1zm0 221.5v10.5c0 6 1.5 9.9 4.6 11.6 1.6.9 4.3 1.5 8 2v-23.5c-5-.1-9.2-.3-12.6-.6zm232-242.6h32.2v-24.1h-45.2v45.2h13v-21.1zm-128.3 58.4c2.5-1.2 5.4-1.8 8.6-1.8.7 0 1.3 0 2 .1 1.1-1.2 2.3-2.4 3.6-3.5 7-6.2 15.6-9.4 25.6-9.4 12.3 0 22.1 3.4 29.5 10.3-1.9-7.8-4.9-14.4-9-19.6-7.6-9.9-18.8-14.8-33.6-14.8-10 0-18.5 3.1-25.6 9.4l-1.1 1v28.3zm273.1 23.3c.2 2.8.3 5.8.3 9.1v16.5h12.9c-.5-7.6-1.7-13.4-3.6-17.6-2.1-4.4-5.3-7.1-9.6-8zm-3.3 183.9c6 0 10.3-1.9 13-5.8 2.7-4 4-10.7 4-20.2 0-13.4-5-26-14.9-37.9 1.2 4.5 1.8 9.1 1.8 13.8 0 9.5-1.3 16.2-4 20.2-2.7 3.9-7 5.8-13 5.8-1.3 0-2.5-.1-3.6-.4 1.4 16.3 7 24.5 16.7 24.5zm42-82.8c-5.8-15.6-16.1-30.4-31-44.2l-23.7-21.5c-1.3-1.2-2.5-2.5-3.7-3.8 2.1 9.9 7.7 19.2 16.7 27.9l23.7 21.5c7 6.5 13 13.2 18 20.1zm-183.5-100.4h32.2v-24.1h-45.2v219.2h13v-195.1zm82.1 24.2c0-40.9 19.7-61.4 59.1-61.4 17.4 0 30.6 4.4 39.6 13.3-2.3-8.5-5.5-15.3-9.8-20.5-9-11.2-23.3-16.9-42.9-16.9-39.4 0-59.1 20.5-59.1 61.4 0 19.2 5.9 36.4 17.6 51.9-3-8.8-4.5-18.1-4.5-27.8zm-380-61.4h20.8v-45.2h32.1v-24.1h-45.2v45.2h-20.8v37.2h13.1v-13.1zm380.8 183.1v-16.2h28.5l-.1-3.9v-20.2h-41.5v16.2c0 25.7 4.8 44.4 14.5 56.1.8 1 1.7 1.9 2.6 2.8-2.6-9.8-4-21.3-4-34.8zm-171.5-122.9c0-14-4.4-22-13.1-24.1v196.2h13.1v-172.1zm-188.5 155.6v-178.6h-13.1v154.4c0 15 2.7 25.6 8.2 31.7 1.5 1.6 3.3 3 5.6 4.2-.5-3.5-.7-7.5-.7-11.7zm103.7-261h32.1v-24.1h-45.1v301.7h13.1v-277.6z"/>
  </symbol>

  <!-- HYDRAPP -->
  <!-- BASE -->
  <symbol id="hydrapp-base" viewBox="0 0 512 612">
    <!-- GLASS -->
    <path d="M400.8 606h-289.6c-31.2 0-57.2-23.9-59.8-55l-42.7-512.5c-1.4-17.5 12.4-32.5 29.9-32.5h434.8c17.6 0 31.4 15 29.9 32.5l-42.7 512.5c-2.6 31.1-28.6 55-59.8 55zm0-25c18.1 0 33.4-14.1 34.9-32.1l42.7-512.5c.2-1.8-.6-3.1-1.3-3.8s-1.9-1.6-3.7-1.6h-434.8c-1.8 0-3 .9-3.7 1.6s-1.5 2-1.3 3.8l42.7 512.5c1.5 18 16.8 32.1 34.9 32.1h289.6z"/>
    <!-- WATER -->
    <path d="M441.6 177.2l-30.8 369.7c-.4 5.1-4.9 9.2-10 9.2h-289.6c-5.1 0-9.5-4.1-10-9.2l-30.8-369.7c46.6-47.2 101.9-44.8 185.6 0 84.8 45.4 146.3 42.5 185.6 0z"/>
  </symbol>
  <!-- SHADOW -->
  <symbol id="hydrapp-shadow" viewBox="0 0 512 612">
    <!-- GLASS -->
    <path d="M93.9 576.3c5.1 3 11.1 4.7 17.3 4.7h289.6c18.1 0 33.4-14.1 34.9-32.1l42-504.9h8.7c1.8 0 3 .9 3.7 1.6s1.5 2 1.3 3.8l-42.7 512.5c-1.5 18-16.8 32.1-34.9 32.1h-289.6c-12.8 0-24.2-7.1-30.3-17.7zm-29.5-12.3l-42.7-512.5c-1.4-17.5 12.4-32.5 29.9-32.5h434.8c4.9 0 9.6 1.2 13.7 3.3-5-9.6-15-16.3-26.7-16.3h-434.8c-17.5 0-31.3 15-29.9 32.5l42.7 512.5c1.5 17.9 10.8 33.5 24.4 43.4-6.3-8.6-10.4-19-11.4-30.4z"/>
    <!-- WATER -->
    <path d="M100.5 207.2c46.6-47.2 101.9-44.8 185.6 0 63.1 33.8 113.3 40.8 151 24.7l4.6-54.7c-39.2 42.5-100.7 45.5-185.6 0-83.7-44.8-139-47.2-185.6 0l30.8 369.7c.4 5.1 4.9 9.2 10 9.2h18.3c-6.6-78.2-29.1-348.9-29.1-348.9z"/>
  </symbol>
  
  <!-- ARCHVIZ -->
  <!-- BASE -->
  <symbol id="archviz-base" viewBox="0 0 512 512">
    <path d="M310.4 388.3l-6.6-.3-6.6-.5-6.6-.7-6.6-1-6.5-1.2-6.5-1.4-6.4-1.6-6.4-1.9-6.3-2.1-6.2-2.3-1.8-.7 1.1.1 4.1.3 4.1.2h4.1l4-.1 4.2-.3 4.1-.4 4.1-.6 4.1-.7 4-.8 4-1 4-1.1 3.9-1.2 3.9-1.4 3.8-1.5 3.8-1.7 3.7-1.8 3.7-1.9 3.6-2 3.5-2.2 3.4-2.2 3.4-2.4 3.4-2.6 3.1-2.6 3.1-2.7 3.1-2.9 2.8-2.9 2.9-3.1 2.7-3.1 2.5-3.1 2.5-3.3 2.4-3.4 2.2-3.5 2.1-3.6 2-3.7 1.9-3.7 1.7-3.8 1.6-3.8 1.5-3.9 1.3-3.9 1.2-4 1.1-4 .9-4 .8-4.1.6-4.1.5-4.1.4-4.1.2-4 .1-4v-250.1h130.9v191.2l-.1 6.6-.3 6.6-.6 6.8-.8 6.6-1 6.5-1.3 6.5-1.5 6.5-1.7 6.4-1.9 6.3-2.1 6.3-2.4 6.2-2.6 6.1-2.8 6-3 5.9-3.2 5.8-3.4 5.7-3.6 5.6-3.8 5.4-4 5.3-4.1 5.2-4.3 5-4.5 4.9-4.7 4.7-4.8 4.5-5 4.4-5.1 4.2-5.3 4-5.4 3.8-5.5 3.6-5.7 3.5-5.8 3.3-5.9 3.1-6 2.9-6.1 2.6-6.2 2.4-6.2 2.2-6.3 2-6.4 1.8-6.4 1.6-6.5 1.3-6.5 1.1-6.6.9-6.6.6-6.6.4-6.6.2h-6.4zm32.3-22.7l3.5-.6 5.8-1.2 5.8-1.4 5.7-1.6 5.6-1.8 5.6-2 5.5-2.2 5.4-2.4 5.3-2.5 5.2-2.7 5.2-2.9 5-3.1 4.9-3.3 4.8-3.4 4.7-3.6 4.6-3.8 4.4-3.9 4.3-4.1 4.2-4.2 4-4.3 3.9-4.5 3.7-4.6 3.5-4.7 3.4-4.9 3.2-5 3-5.1 2.8-5.2 2.7-5.3 2.5-5.4 2.3-5.5 2.1-5.5 1.9-5.6 1.7-5.7 1.5-5.7 1.3-5.8 1.1-5.8.9-5.8.7-5.9.5-5.9.3-5.9.1-6.1v-170.3h-89.8v229.7l-.1 4.7-.2 4.7-.4 4.8-.6 4.8-.7 4.8-.9 4.8-1.1 4.7-1.2 4.7-1.4 4.6-1.6 4.6-1.7 4.5-1.9 4.5-2 4.4-2.2 4.3-2.4 4.3-2.5 4.2-2.6 4.1-2.8 4-2.9 3.9-3 3.7-3.1 3.7-3.3 3.6-3.3 3.4-3.6 3.4-3.6 3.2-3.7 3v.1zm-83.8 140.4l8.7-.3 8.6-.5 8.6-.8 8.6-1.1 8.5-1.4 8.5-1.7 8.4-2 8.3-2.3 8.3-2.6 8.2-2.9 8.1-3.2 7.9-3.5 7.8-3.7 7.7-4 7.5-4.3 7.4-4.5 7.2-4.8 7.1-5 6.9-5.3 6.7-5.5 6.5-5.7 6.3-5.9 6.1-6.2 5.9-6.4 5.6-6.6 5.4-6.8 5.2-6.9 4.9-7.1 4.7-7.3 4.4-7.4 4.2-7.6 3.9-7.7 3.6-7.9 3.4-8 3.1-8.1 2.8-8.2 2.5-8.3 2.2-8.4 1.9-8.4 1.6-8.5 1.1-6.9-3.1 5.9-3.6 6.4-3.8 6.2-4.1 6.2-4.2 5.9-4.5 5.8-4.7 5.7-4.9 5.5-5 5.3-5.3 5.2-5.3 4.9-5.6 4.8-5.7 4.6-5.9 4.4-6 4.2-6.2 3.9-6.3 3.7-6.5 3.6-6.6 3.3-6.6 3-6.9 2.9-6.8 2.5-6.9 2.3-7 2.1-7.1 1.9-7.1 1.6-7.2 1.4-7.2 1.1-7.3.9-7.3.6-7.4.4-7.2.1-7.3-.2-7.3-.4-7.3-.7-7.3-.9-7.3-1.2-7.1-1.4-7.1-1.7-7.1-1.9-7-2.2-6.9-2.4-6.9-2.7-6.6-2.8-6.6-3.1-6.5-3.3-6.4-3.6-6.4-3.8-6.1-4-5.9-4.2-5.9-4.4-5.7-4.6-5.6-4.9-5.3-4.9-5.2-5.2-5-5.4-4.8-5.5-4.7-5.8-4.4-5.9-4.2-5.9-4-6.1-3.8-6.3-3.6-6.5-3.3-6.5-3.1-6.6-2.8-6.6-2.6-6.8-2.4-6.9-2.2-7.1-1.9-7-1.7-7.2-1.4-7.1-1.2-7.2-.9-7.3-.7-7.3-.4-7.3-.2-7.3.1-7.3.4-7.4.6-7.2.9-7.4 1.1-7.2 1.3-7.1 1.6-7.2 1.9-7.1 2.1-7 2.4-7 2.6-6.9 2.8-6.7 3.1-6.7 3.3-6.6 3.6-6.5 3.7-6.2 4-6.3 4.2-6 4.3-5.8 4.6-5.8 4.7-5.5 5-5.4 5.2-5.3 5.2-5 5.6-4.9 5.6-4.6 5.8-4.5 6-4.3 6.1-4.1 6.2-3.8 6.4-3.6 6-3.2-6.9 1.1-8.5 1.6-8.4 1.9-8.4 2.2-8.3 2.5-8.2 2.8-8.1 3.1-8 3.4-7.9 3.6-7.7 3.9-7.6 4.2-7.4 4.4-7.3 4.7-7.1 4.9-6.9 5.2-6.8 5.4-6.6 5.6-6.4 5.9-6.2 6.1-5.9 6.3-5.7 6.5-5.5 6.7-5.3 6.9-5 7.1-5.1 7.1-4.5 7.4-4.3 7.5-4 7.7-3.7 7.8-3.5 7.9-3.2 8.1-2.9 8.2-2.6 8.3-2.3 8.3-2 8.4-1.7 8.5-1.4 8.5-1.1 8.6-.8 8.6-.5 8.6-.5 8.7v8.7l.4 8.7.7 8.6.9 8.6 1.2 8.6 1.5 8.5 1.8 8.5 2.1 8.4 2.4 8.3 2.7 8.2 3 8.1 3.3 8 3.5 7.9 3.8 7.8 4.1 7.6 4.3 7.5 4.6 7.3 4.9 7.2 5.1 7 5.3 6.8 5.6 6.6 5.8 6.4 6 6.2 6.2 6 6.4 5.8 6.6 5.6 6.8 5.3 7 5.1 7.2 4.9 7.3 4.6 7.5 4.3 7.6 4.1 7.8 3.8 7.9 3.5 8 3.3 8.1 3 8.2 2.7 8.3 2.4 8.4 2.1 8.5 1.8 8.5 1.5 8.6 1.2 8.6.9 8.6.6 8.7.4 9.1.5zm-122.3-239.8l-2.3-6.2-2.1-6.3-1.8-6.4-1.6-6.4-1.4-6.5-1.2-6.5-1-6.6-.7-6.6-.5-6.6-.3-6.6v-6.6l.2-6.6.4-6.6.6-6.6.9-6.6 1.1-6.5 1.3-6.5 1.6-6.4 1.8-6.4 2-6.3 2.2-6.2 2.4-6.2 2.6-6.1 2.9-6 3.1-5.9 3.3-5.8 3.5-5.7 3.6-5.5 3.8-5.4 4-5.3 4.2-5.1 4.4-5 4.5-4.8 4.7-4.7 4.9-4.5 5-4.3 5.2-4.1 5.3-4 5.4-3.8 5.6-3.6 5.7-3.4 5.8-3.2 5.9-3 6-2.8 6.1-2.6 6.2-2.4 6.3-2.1 6.3-1.9 6.4-1.7 6.5-1.5 6.5-1.3 6.5-1 6.6-.5 6.6-.6 6.6-.3 6.7-.1h40.4v130.7h-99.3l-4.2.1-4.1.2-4.1.4-4.1.5-4.1.6-4.1.8-4 .9-4 1.1-3.9 1.2-3.9 1.3-3.9 1.5-3.9 1.6-3.8 1.7-3.7 1.9-3.6 2-3.5 2.1-3.6 2.3-3.4 2.4-3.3 2.5-3.2 2.6-3.1 2.7-3 2.7-3 3-2.8 3-2.7 3.1-2.6 3.2-2.5 3.3-2.4 3.4-2.3 3.5-2.1 3.4-2.1 3.7-1.9 3.7-1.8 3.7-1.6 3.7-1.5 3.9-1.4 3.9-1.2 3.9-1.1 4-1 4-.8 4-.7 4.2-.5 4-.4 4.2-.3 4.1-.1 4.1v4.1l.2 4.1.3 4 .1 1-.7-1.8zm9.8-96.9l3.1-3.7 3.2-3.6 3.3-3.5 3.5-3.5 3.5-3.2 3.7-3.2 3.8-3 3.9-2.9 4-2.8 4.2-2.7 4.1-2.4 4.2-2.3 4.3-2.2 4.4-2 4.6-1.9 4.5-1.7 4.6-1.6 4.5-1.4 4.7-1.2 4.7-1.1 4.8-.9 4.8-.8 4.8-.6 4.8-.4 4.8-.3 4.6-.1h79.3v-89.9h-19.8l-6.2.1-5.9.3-5.9.5-5.9.7-5.8.9-5.8 1.1-5.8 1.3-5.7 1.5-5.7 1.7-5.6 1.9-5.5 2.1-5.5 2.3-5.4 2.5-5.3 2.7-5.3 3-5.1 3-5 3.2-4.9 3.4-4.7 3.5-4.6 3.7-4.5 3.9-4.3 4-4.2 4.2-4.1 4.3-3.9 4.4-3.8 4.6-3.6 4.7-3.4 4.8-3.3 4.9-3.1 5-2.9 5.2-2.7 5.2-2.5 5.3-2.4 5.4-2.2 5.5-2 5.6-1.8 5.6-1.6 5.7-1.4 5.8-1.2 5.8-.4 3.6z"/>
  </symbol>
  <!-- SHADOW -->
  <symbol id="archviz-shadow" viewBox="0 0 512 512">
    <path d="M258.3 379.8l-6.3-2.1-6.2-2.3-1.8-.7 1.1.1 4.1.3 4.1.2h4.1l4-.1 4.2-.3 4.1-.4 4.1-.6 4.1-.7 4-.8 4-1 4-1.1 3.9-1.2 3.9-1.4 3.8-1.5 3.8-1.7 3.7-1.8 3.7-1.9 3.6-2 3.5-2.2 3.4-2.2 3.4-2.4 3.4-2.6 3.1-2.6 3.1-2.7 3.1-2.9 2.8-2.9 2.9-3.1 2.7-3.1 2.5-3.1 2.5-3.3 2.4-3.4 2.2-3.5 2.1-3.6 2-3.7 1.9-3.7 1.7-3.8 1.6-3.8 1.5-3.9 1.3-3.9 1.2-4 1.1-4 .9-4 .8-4.1.6-4.1.5-4.1.4-4.1.2-4 .1-4v-250.1h130.8v10.2h-120.5v250.1l-.1 4-.2 4-.4 4.1-.5 4.1-.6 4.1-.8 4.1-.9 4-1.1 4-1.2 4-1.3 3.9-1.5 3.9-1.6 3.8-1.7 3.8-1.9 3.7-2 3.7-2.1 3.6-2.2 3.5-2.4 3.4-2.5 3.3-2.5 3.1-2.7 3.1-2.9 3.1-2.8 2.9-3.1 2.9-3.1 2.7-3.1 2.6-3.4 2.6-3.4 2.4-3.4 2.2-3.5 2.2-3.6 2-3.7 1.9-3.7 1.8-3.8 1.7-3.8 1.5-3.9 1.4-3.9 1.2-4 1.1-4 1-4 .8-4.1.7-4.1.6-1.4.1-1.1-.2-6.5-1.4-6.4-1.6-6.3-1.8zm227.3-182.8l-.1 6.1-.3 5.9-.5 5.9-.7 5.9-.9 5.8-1.1 5.8-1.3 5.8-1.5 5.7-1.7 5.7-1.9 5.6-2.1 5.5-2.3 5.5-2.5 5.4-2.7 5.3-3 5.1-3 5.1-3.2 5-3.4 4.9-3.5 4.7-3.7 4.6-3.9 4.5-4 4.3-4.2 4.2-4.3 4.1-4.4 3.9-4.6 3.8-4.7 3.6-4.8 3.4-4.9 3.3-5 3.1-5.2 2.9-5.2 2.7-5.3 2.5-5.4 2.4-5.5 2.2-3.3 1.2-4.4 1.5-4.2 1.3-4.8 1.3-4.7 1.1-4.9 1-5.7 1 10.2 10.2 3.5-.6 5.8-1.2 5.8-1.4 5.7-1.6 5.6-1.8 5.6-2 5.5-2.2 5.4-2.4 5.3-2.5 5.2-2.7 5.2-2.9 5-3.1 4.9-3.3 4.8-3.4 4.7-3.6 4.6-3.8 4.4-3.9 4.3-4.1 4.2-4.2 4-4.3 3.9-4.5 3.7-4.6 3.5-4.7 3.4-4.9 3.2-5 3-5.1 2.8-5.2 2.7-5.3 2.5-5.4 2.3-5.5 2.1-5.5 1.9-5.6 1.7-5.7 1.5-5.7 1.3-5.8 1.1-5.8.9-5.8.7-5.9.5-5.9.3-5.9.1-6.1v-170.3l-10.2-10.2v170.6zm-396.5 245.1l-3.7-3.3-6.2-6-6-6.2-5.8-6.4-5.6-6.6-5.3-6.8-5.1-7-4.9-7.2-4.6-7.3-4.3-7.5-4.1-7.6-3.8-7.8-3.5-7.9-3.3-8-3-8.1-2.7-8.2-2.4-8.3-2.1-8.4-1.8-8.5-1.5-8.5-1.4-8.8-.9-8.6-.7-8.6-.4-8.7v-8.7l.3-8.7.5-8.6.8-8.6 1.1-8.6 1.4-8.5 1.7-8.5 2-8.4 2.3-8.3 2.6-8.3 2.9-8.2 3.2-8.1 3.5-7.9 3.7-7.8 4-7.7 4.3-7.5 4.7-7.4 4.8-7.2 5-7.1 5.3-6.9 5.5-6.7 5.7-6.5 5.9-6.3 6.2-6.1 6.4-5.9 6.6-5.6 6.8-5.4 6.9-5.2 7.1-4.9 7.3-4.7 7.4-4.4 7.6-4.2 7.7-3.9 7.9-3.6 8-3.4 8.1-3.1 8.2-2.8 8.3-2.5 8.4-2.2 8.4-1.9 8.5-1.6 6.9-1.1-6 3.2-6.4 3.6-6.2 3.8-6.1 4.1-6 4.3-5.8 4.5-5.6 4.6-5.6 4.9-5.2 5-5.2 5.3-1.3 1.4-1.6.8-7.6 4.2-7.4 4.4-7.3 4.7-7.1 4.9-6.9 5.2-6.8 5.4-6.6 5.6-6.4 5.9-6.2 6.1-5.9 6.3-5.7 6.5-5.5 6.7-5.5 6.8-5 7.1-4.8 7.2-4.5 7.4-4.3 7.5-4 7.7-3.7 7.8-3.5 7.9-3.2 8.1-2.9 8.2-2.6 8.3-2.3 8.3-2 8.4-1.7 8.5-1.4 8.5-1.1 8.6-.8 8.6-.5 8.6-.3 8.7v8.7l.4 8.7.7 8.6.9 8.6 1.2 8.6 1.5 8.5 1.8 8.5 2.1 8.4 2.4 8.3 2.7 8.2 3 8.1 3.3 8 3.5 7.9 3.8 7.8 4.1 7.6 4.3 7.5 4.6 7.3 4.9 7.2 5.1 7 5.3 6.8 5.6 6.6 2.5 2.8zm139.6-52.2l-6.6-3.1-6.5-3.3-6.4-3.6-6.4-3.8-6.1-4-5.9-4.2-5.9-4.4-5.7-4.6-3.6-3.1 1.8 2.1 5 5.4 5.2 5.2 5.3 4.9 5.6 4.9 5.7 4.6 5.9 4.4 5.9 4.2 6.1 4 6.4 3.8 6.4 3.6 6.5 3.3 6.6 3.1 6.6 2.8 6.9 2.7 6.9 2.4 7 2.2 7.1 1.9 7.1 1.7 7.1 1.4 7.3 1.2 7.3.9 7.3.7 7.3.4 7.3.2 7.2-.1 7.4-.4 7.3-.6 7.3-.9 7.2-1.1 7.2-1.4 7.1-1.6 7.1-1.9 7-2.1 6.9-2.3 6.8-2.5 6.9-2.9 6.6-3 6.6-3.3 6.5-3.6 6.3-3.7 6.2-3.9 6-4.2 5.9-4.4 5.7-4.6 5.6-4.8 3.8-3.5 3.1-6.1 3.6-7.9 3.4-8 3.1-8.1 2.8-8.2 2.5-8.3 2.2-8.4 1.9-8.4 1.6-8.5 1.1-6.9-3.1 5.9-3.6 6.4-3.8 6.2-4.1 6.2-4.2 5.9-4.5 5.8-4.7 5.7-4.9 5.5-5 5.3-5.3 5.2-5.3 4.9-5.6 4.8-5.7 4.6-5.9 4.4-6 4.2-6.2 3.9-6.3 3.7-6.5 3.6-6.6 3.3-6.6 3-6.9 2.9-6.8 2.5-6.9 2.3-7 2.1-7.1 1.9-7.1 1.6-7.2 1.4-7.2 1.1-7.3.9-7.3.6-7.4.4-7.2.1-7.3-.2-7.3-.4-7.3-.7-7.3-.9-7.3-1.2-7.1-1.4-7.1-1.7-7.1-1.9-7-2.2-6.9-2.4-6.9-2.7-6.5-2.9zm-91.5-122.9l.1 1-.7-1.8-2.3-6.2-2.1-6.3-1.8-6.4-1.6-6.4-1.4-6.5-1.2-6.5-1-6.6-.7-6.6-.5-6.6-.3-6.6v-6.6l.2-6.6.4-6.6.6-6.6.9-6.6 1.1-6.5 1.3-6.5 1.6-6.4 1.8-6.4 2-6.3 2.2-6.2 2.4-6.2 2.6-6.1 2.9-6 3.1-5.9 3.3-5.8 3.5-5.7 3.6-5.5 3.8-5.4 4-5.3 4.2-5.1 4.4-5 4.5-4.8 4.7-4.7 4.9-4.5 5-4.3 5.2-4.1 5.3-4 5.4-3.8 5.6-3.6 5.7-3.4 5.8-3.2 5.9-3 6-2.8 6.1-2.6 6.2-2.4 6.3-2.1 6.3-1.9 6.4-1.7 6.5-1.5 6.5-1.3 6.5-1 6.6-.5 6.6-.6 6.6-.3 6.7-.1h40.4v10.2h-30.2l-6.7.1-6.6.3-6.6.6-6.6.8-6.5 1-6.5 1.3-6.5 1.5-6.4 1.7-6.3 1.9-6.3 2.1-6.2 2.4-6.1 2.6-6 2.8-5.9 3-5.8 3.2-5.7 3.4-5.6 3.6-5.4 3.8-5.3 4-5.2 4.1-5 4.3-4.9 4.5-4.7 4.7-4.5 4.8-4.4 5-4.2 5.1-4 5.3-3.8 5.4-3.6 5.5-3.5 5.7-3.3 5.8-3.1 5.9-2.9 6-2.6 6.1-2.4 6.2-2.2 6.2-2 6.3-1.8 6.4-1.6 6.4-1.3 6.5-1.1 6.5-.9 6.6-.6 6.6-.4 6.6-.2 6.6v6.6l.3 6.6.5 6.6.7 6.6 1 6.6 1 5.4-.3 2.9-.3 4.1-.1 4.1v4.1l.2 4.1.3 3.9zm25.7-94.8l3.3-3.5 3.5-3.5 3.5-3.2 3.7-3.2 3.8-3 3.9-2.9 4-2.8 4.2-2.7 4.1-2.4 4.2-2.3 4.3-2.2 4.4-2 4.6-1.9 4.5-1.7 4.6-1.6 4.5-1.4 4.7-1.2 4.7-1.1 4.8-.9 4.8-.8 4.8-.6 4.8-.4 4.8-.3 4.6-.1h79.3v-89.9l-10.2-10.2v89.8h-79.3l-4.6.1-4.8.3-4.8.4-4.8.6-4.8.8-4.8.9-4.7 1.1-4.7 1.2-4.5 1.4-4.6 1.6-4.5 1.7-4.6 1.9-4.4 2-4.3 2.2-4.2 2.3-4.1 2.4-4.2 2.7-4 2.8-3.9 2.9-3.8 3-2.7 2.3-3.9 3.6-4 3.9-3.3 3.5-2.8 3.2-3.4 4.1 10.2 10.2 3.1-3.7 3-3.4z"/>
  </symbol>

  <!-- QUOTES -->
  <!-- BASE -->
  <symbol id="quotes-base" viewBox="0 0 512 512">
    <path d="M376.2 475.2c-35.6 19.6-76.6 30.8-120.2 30.8-138.1 0-250-111.9-250-250s111.9-250 250-250 250 111.9 250 250c0 43.6-11.2 84.6-30.8 120.2l-52.4-52.4c8.5-20.9 13.2-43.8 13.2-67.8 0-99.4-80.6-180-180-180s-180 80.6-180 180 80.6 180 180 180c24 0 46.9-4.7 67.8-13.2l52.4 52.4zm79.6-68.9l-50.2-50.2-49.5 49.5 50.2 50.2 49.5-49.5z"/>
  </symbol>
  <!-- SHADOW -->
  <symbol id="quotes-shadow" viewBox="0 0 512 512">
    <path d="M27.2 356.9c-13.6-30.9-21.2-65-21.2-100.9 0-138.1 111.9-250 250-250 113.4 0 209.2 75.6 239.8 179.1-38.8-87.8-126.6-149.1-228.8-149.1-138.1 0-250 111.9-250 250 0 24.6 3.6 48.4 10.2 70.9zm411.6-17.1c5.3-17 8.2-35.1 8.2-53.8 0-27.4-6.2-53.5-17.1-76.7 4 14.9 6.1 30.6 6.1 46.7 0 24-4.7 46.9-13.2 67.8l16 16zm-182.8 96.2c-72 0-134.1-42.2-162.9-103.3 20.6 76.8 90.7 133.3 173.9 133.3 24 0 46.9-4.7 67.8-13.2l28.9 28.9c4.3-2 8.4-4.2 12.6-6.4l-52.4-52.4c-21 8.4-43.9 13.1-67.9 13.1zm160.6-49.9l29.7 29.7 9.5-9.5-50.2-50.2-49.5 49.5 20.5 20.5 40-40z"/>
  </symbol>

  <!-- OTHER -->
  <!-- BASE -->
  <symbol id="other-base" viewBox="0 0 569 512">
    <path d="M104.7 506c-25.9 0-44-6.4-54.6-19.2-10.4-12.6-15.6-35.8-15.6-69.7v-72.3c0-28.6-2.3-45.2-7-49.9-4.7-4.9-11.8-7.4-21.5-7.4v-63.1c9.7 0 16.3-1.8 19.7-5.3 3.4-3.5 5.7-8.6 7-15.2 1.2-6.7 1.8-18.9 1.8-36.8v-72.2c0-33.8 5.2-57 15.6-69.7 10.5-12.8 28.7-19.2 54.6-19.2h12.3v52.3c-12.2 0-20 2.5-23.4 7.6-3.4 4.9-5.1 15.7-5.1 32.3v64.7c0 23-.9 40.2-2.7 51.8-1.6 11.6-4.7 20.4-9.2 26.6-4.4 6.1-11.3 11-20.7 14.7 9.4 3.7 16.3 8.6 20.7 14.7 4.5 6.1 7.6 15 9.2 26.6 1.8 11.6 2.7 28.8 2.7 51.8v64.7c0 16.6 1.7 27.5 5.1 32.6 3.4 4.9 11.2 7.4 23.4 7.4v52.2h-12.3zm359.7-500c25.9 0 44 6.4 54.6 19.2 10.4 12.6 15.6 35.8 15.6 69.7v72.3c0 28.6 2.3 45.2 7 49.9 4.7 4.9 11.8 7.4 21.5 7.4v63.1c-9.7 0-16.3 1.8-19.7 5.3-3.4 3.5-5.7 8.6-7 15.2-1.2 6.7-1.8 18.9-1.8 36.8v72.3c0 33.8-5.2 57-15.6 69.7-10.5 12.8-28.7 19.2-54.6 19.2h-12.4v-52.3c12.2 0 20-2.5 23.4-7.6 3.4-4.9 5.1-15.7 5.1-32.3v-64.7c0-23 .9-40.2 2.7-51.8 1.6-11.6 4.7-20.4 9.2-26.6 4.4-6.1 11.3-11 20.7-14.7-9.4-3.7-16.3-8.6-20.7-14.7-4.5-6.1-7.6-15-9.2-26.6-1.8-11.6-2.7-28.8-2.7-51.8v-64.7c0-16.6-1.7-27.5-5.1-32.6-3.4-4.9-11.2-7.4-23.4-7.4v-52.3h12.4zm-251.7 399.8h-47.9v47.9h47.9v-47.9zm95.8 0h-47.9v47.9h47.9v-47.9zm95.7 0h-47.9v47.9h47.9v-47.9z"/>
  </symbol>
  <!-- SHADOW -->
  <symbol id="other-shadow" viewBox="0 0 569 512">
    <path d="M18 244.5c9.7 0 16.3-1.8 19.7-5.3 3.4-3.5 5.7-8.6 7-15.2 1.2-6.7 1.8-18.9 1.8-36.8v-72.3c0-33.8 5.2-57 15.6-69.7 10.6-12.8 28.7-19.2 54.6-19.2h.3v-20h-12.3c-25.9 0-44 6.4-54.6 19.2-10.4 12.6-15.6 35.8-15.6 69.7v72.3c0 17.9-.6 30.1-1.8 36.8s-3.6 11.7-7 15.2-10 5.3-19.7 5.3v63.1c4.6 0 8.6.5 12 1.6v-44.7zm446.1-218.5h12.3c23.4 0 40.5 5.3 51.4 15.8-2.3-6.8-5.3-12.3-8.8-16.6-10.6-12.8-28.8-19.2-54.6-19.2h-12.4v52.3c4.6 0 8.6.4 12 1.1v-33.4zm-95.8 399.8h35.9v-20h-47.9v47.9h12v-27.9zm-191.4 0h35.9v-20h-47.9v47.9h12v-27.9zm95.7 0h35.9v-20h-47.9v47.9h12v-27.9zm-204.7-149.8l-12-20c9.4 3.7 16.3 8.6 20.7 14.7 2.7 3.7 4.9 8.4 6.6 14.2-4-3.5-9.1-6.5-15.3-8.9zm49.1 177.7v18.9c-5.5-1.2-9.4-3.2-11.4-6.3-10.3-15.8-12.6-21-12.6-21 .2.4.4.7.6 1 3.4 4.9 11.2 7.4 23.4 7.4zm375.6-335.4v64.7c0 23 .9 40.2 2.7 51.8.6 4.6 1.5 8.7 2.6 12.4-2.1-1.8-3.9-3.8-5.4-5.9-4.5-6.1-7.6-15-9.2-26.6-1.8-11.6-2.7-28.8-2.7-51.8v-64.6c0-16.6-1.7-27.5-5.1-32.6l-.3-.4s1.3.3 12.3 20.4c2.9 5.4 5.1 15.9 5.1 32.6zm48.9 98.8c4.7 4.9 11.8 7.4 21.5 7.4v18.4c-3.9-1.2-7.7-2.7-9.5-5.7l-12.8-21c.2.3.5.6.8.9zm-491.4 269.7c-2.6-3.2-4.9-7-6.8-11.5-1.2-2.8-2.3-5.9-3.3-9.2-.4-1.3-.8-2.7-1.1-4.1l-.5-2.1c-2.6-11.6-3.9-25.9-3.9-42.8v-72.3c0-27.2-2.1-43.6-6.3-49.2 7.6 9.4 10.6 15.9 14.1 24.2 3 7.1 4.2 16.4 4.2 45v72.3c0 22.3 2.3 40 6.8 53.1l-1.6-1.6c-.5-.5-1.1-1.1-1.6-1.8zm414-13.1v32.3h-12v-52.3c12.2 0 20-2.5 23.4-7.6 3.4-4.9 5.1-15.7 5.1-32.3v-64.7c0-23 .9-40.2 2.7-51.8 1.6-11.6 4.7-20.4 9.2-26.6 4.4-6.1 11.3-11 20.7-14.7l12 20c-9.4 3.7-16.3 8.6-20.7 14.7-4.5 6.1-7.6 15-9.2 26.6-1.8 11.6-2.7 28.8-2.7 51.8v64.7c0 16.6-1.7 27.4-5.1 32.3-3.5 5.1-11.3 7.6-23.4 7.6z"/>
  </symbol>

  <!-- CONTACT -->
  <!-- BASE -->
  <symbol id="contact-base" viewBox="0 0 512 512">
    <path d="M63.4 81h385.2c13.4 0 20.1 16.2 10.6 25.6l-182 182c-11.7 11.7-30.7 11.7-42.4 0l-182-182c-9.4-9.4-2.7-25.6 10.6-25.6zm-57.4 45.3v283.4l146.7-146.7c3.9-3.9 3.9-10.2 0-14.1l-129.6-129.6c-6.3-6.3-17.1-1.9-17.1 7zm353.3 136.8c30.2 30.1 146.7 146.7 146.7 146.7v-283.4c0-8.9-10.8-13.4-17.1-7.1l-129.7 129.7c-3.8 3.8-3.8 10.2.1 14.1zm125.5 167.9c5.9 0 11.2-2.4 15-6.2l-151.1-151.1c-3.9-3.9-10.2-3.9-14.1 0l-36.1 36.1c-23.4 23.4-61.4 23.4-84.9 0l-36.1-36.1c-3.9-3.9-10.2-3.9-14.1 0l-151.2 151.1c3.8 3.8 9.1 6.2 15 6.2h457.6"/>
  </symbol>
  <!-- SHADOW -->
  <symbol id="contact-shadow" viewBox="0 0 512 512">
    <path d="M52.8 106.6c-9.4-9.4-2.7-25.6 10.6-25.6h385.2c13.4 0 20.1 16.2 10.6 25.6l-4.4 4.4h-374.3c-6.7 0-11.7 4.1-13.9 9.3l-13.8-13.7zm-29.8 286.2l-17 17v-283.4c0-8.9 10.8-13.4 17.1-7.1l129.6 129.6c3.7 3.7 3.9 9.6.5 13.6l-113.1-113.2c-6.3-6.3-17.1-1.8-17.1 7.1v236.4zm483-243.6v-22.9c0-8.9-10.8-13.4-17.1-7.1l-129.7 129.7c-3.9 3.9-3.9 10.2 0 14.1l16.5 16.5c23-23 96.8-96.7 130.3-130.3zm-478.8 281.8c-5.9 0-11.2-2.4-15-6.2l151.1-151.1c3.9-3.9 10.2-3.9 14.1 0l36.1 36.1c23.4 23.4 61.4 23.4 84.9 0l36.1-36.1c3.9-3.9 10.2-3.9 14.1 0 27.4 27.3 151.2 151.1 151.2 151.1-2.2 2.2-5 4-8 5l-126.1-126.1c-3.9-3.9-10.2-3.9-14.1 0l-36.1 36.1c-23.4 23.4-61.4 23.4-84.9 0l-36.1-36.1c-3.9-3.9-10.2-3.9-14.1 0l-127.4 127.3h-25.8z"/>
  </symbol>
</svg>