<svg xmlns="http://www.w3.org/2000/svg" style="display: none;">
  <!-- ABOUT -->
  <symbol id="about" viewBox="0 0 450 100">
    <path d="M31.4 70l-6.7-50.2h-.2l-6.2 50.2h13.1zm-31.4 30l14.3-99.9h20.1l15.1 99.9h-14.2l-2.4-17.8h-16.1l-2.1 17.8h-14.7zm102.8-74.3c0 10.8-2.9 17.4-8.7 19.8 7.1 2.4 10.7 10.2 10.7 23.6v2.6c-.1 10-1.8 17.3-5.3 21.7-3.4 4.4-9 6.6-16.8 6.6h-22.1v-99.9h21.6c7.5 0 12.7 1.7 15.8 5.2 3.1 3.4 4.7 9.2 4.7 17.4v3zm-27 62.5h5.4c3 0 5.2-1 6.4-3.1 1.2-2.1 1.8-5.8 1.8-11.2v-8.1c0-5.1-.5-8.7-1.5-10.7-1-2.1-2.9-3.2-5.7-3.2h-6.4v36.3zm0-47.7h5.6c2.6 0 4.3-.8 5.1-2.5.8-1.7 1.3-5.1 1.3-10.3v-6c0-3.9-.6-6.4-1.6-7.7-1-1.3-2.8-2-5.3-2h-5.1v28.5zm54.9 31.7c0 5.9.4 10 1.3 12.3.9 2.3 2.7 3.5 5.5 3.5s4.6-1.2 5.5-3.5c.9-2.4 1.3-6.5 1.3-12.2v-46.6c0-4.7-.5-8.2-1.4-10.3-.9-2.2-2.6-3.3-5.2-3.3s-4.4 1.1-5.5 3.3c-1 2.2-1.5 5.6-1.5 10.3v46.5zm27.8-.6c0 9.6-1.7 16.7-5.1 21.4-3.4 4.7-8.9 7.1-16.4 7.1-7.5 0-13-2.4-16.5-7.1-3.5-4.7-5.2-11.9-5.2-21.4v-44.7c0-17.9 7.3-26.9 22-26.9 7.6 0 13 2.3 16.3 6.8 3.3 4.6 5 11.2 5 20v44.8zm57.9 1.9c0 9.1-1.7 15.8-5.2 20.1-3.4 4.3-9 6.4-16.6 6.4-7.6 0-13.1-2.2-16.6-6.5-3.4-4.3-5.2-11-5.2-20v-73.5h15.1v73.2c0 5.2.2 8.4.7 9.5.5 1.1 1.1 2.2 1.7 3.1.7.9 2.2 1.3 4.3 1.3 2.2 0 3.7-.6 4.7-1.9.9-1.3 1.5-2.8 1.7-4.7.2-1.9.3-4.3.3-7.3v-73.2h15.1v73.5zm20 26.5v-86.8h-11.7v-13.1h38.1v13.2h-11.2v86.7h-15.2z"/>
  </symbol>
  <!-- RESUME -->
  <symbol id="resume" viewBox="0 0 450 100">
    <path d="M20.1 53l-4.9-.2v47.2h-15.2v-99.9h25.2c5.2 0 9.1 1.1 11.7 3.2 2.6 2.1 4.3 5 5.1 8.8.8 3.7 1.3 8.7 1.3 14.8 0 6.1-.6 10.7-1.9 13.9-1.3 3.2-3.7 5.3-7.2 6.4 3.5.6 5.9 2.9 7.2 7s2 12.5 2 25.3.2 19.7.6 20.6h-15.3c-.4-.8-.6-12.7-.6-35.8 0-4.4-.5-7.4-1.6-8.8-1-1.6-3.1-2.4-6.4-2.5zm-4.8-12h6.1c1.9 0 3.4-.4 4.3-1.3.9-.9 1.6-2.4 1.9-4.5.4-2.1.6-5.4.6-9.7v-.6c0-5.4-.5-9-1.4-10.6-.9-1.7-3-2.5-6.3-2.5h-5.2v29.2zm42.1 59v-99.9h33.6v13.1h-18.3v29.1h17.4v12.8h-17.4v31.8h19v13.1h-34.3zm44.9-28.6v-8.7h14.1v9.8c0 5.4.5 9.3 1.4 11.5.9 2.2 2.7 3.3 5.2 3.3 2.6 0 4.2-.9 5.1-2.7.9-1.8 1.3-4.8 1.3-8.9 0-4.1-.7-7.7-2.2-10.7-1.5-3.1-3.8-6.3-7.1-9.6l-7.2-7.4c-3.4-3.5-6-7.2-7.9-10.9-1.9-3.8-2.8-8.1-2.8-13.1 0-8.1 1.6-14.1 4.7-18 3.1-4 8.5-6 16.1-6 7.6 0 12.7 2.3 15.4 6.9 2.7 4.6 4.1 11.2 4.1 20v6.1h-13.7v-7c0-4.7-.4-8.1-1.2-10.2-.8-2.1-2.4-3.1-4.7-3.1-2.3 0-4 .8-5 2.3-1 1.6-1.5 3.9-1.5 7s.5 5.6 1.6 7.4c1 1.9 2.9 4.2 5.6 7.1l8.1 8.7c4 4.4 7.1 8.8 9.1 13.3 2.1 4.5 3.1 9.4 3.1 14.7 0 9.1-1.5 15.9-4.6 20.3-3.1 4.4-8.5 6.6-16.2 6.6-7.7 0-13-2.4-16.1-7.3-3.2-5-4.7-12.1-4.7-21.4zm96.7 2.1c0 9.1-1.7 15.8-5.2 20.1-3.4 4.3-9 6.4-16.6 6.4-7.6 0-13.2-2.2-16.6-6.5-3.4-4.3-5.2-11-5.2-20v-73.5h15.1v73.2c0 5.2.2 8.4.7 9.5.5 1.1 1.1 2.2 1.7 3.1.7.9 2.2 1.3 4.3 1.3s3.7-.6 4.7-1.9c.9-1.3 1.5-2.8 1.7-4.7.2-1.9.3-4.3.3-7.3v-73.2h15.1v73.5zm14.4 26.5v-99.9h18.9l14.2 73 13.4-73h19.1v99.9h-13.6v-37.3l.6-34.2-13.5 71h-12.1l-14-71 .6 34.2v37.3h-13.6zm80.7 0v-99.9h33.6v13.1h-18.3v29.1h17.4v12.8h-17.4v31.8h19v13.1h-34.3z"/>
  </symbol>
  <!-- TASKTIMER -->
  <symbol id="tasktimer" viewBox="0 0 450 100">
    <path d="M11.7 100v-86.8h-11.7v-13.2h38.2v13.2h-11.3v86.8h-15.2zm61.8-30.1l-6.7-50.2h-.2l-6.1 50.2h13zm-31.4 30.1l14.3-100h20.1l15.2 100h-14.2l-2.4-17.8h-16.2l-2.1 17.8h-14.7zm58-28.6v-8.7h14.1v9.8c0 5.4.5 9.3 1.4 11.5.9 2.2 2.7 3.3 5.2 3.3s4.2-.9 5.1-2.7c.9-1.8 1.3-4.8 1.3-8.9s-.7-7.7-2.2-10.7c-1.5-3.1-3.8-6.3-7.1-9.6l-7.2-7.4c-3.4-3.5-6-7.2-7.9-10.9-1.9-3.8-2.8-8.1-2.8-13.1 0-8.1 1.6-14.1 4.7-18 3.1-4 8.5-6 16.1-6 7.6 0 12.7 2.3 15.4 6.9 2.7 4.6 4.1 11.2 4.1 20v6.1h-13.7v-7c0-4.7-.4-8.1-1.2-10.2-.8-2.1-2.4-3.1-4.7-3.1-2.3 0-4 .8-5 2.3-1 1.6-1.5 3.9-1.5 7s.5 5.6 1.6 7.4c1 1.9 2.9 4.2 5.6 7.1l8.1 8.7c4 4.4 7.1 8.8 9.1 13.3 2.1 4.5 3.1 9.4 3.1 14.7 0 9.1-1.5 15.9-4.6 20.3-3.1 4.4-8.5 6.6-16.2 6.6-7.7 0-13-2.4-16.1-7.3-3.2-5-4.7-12.1-4.7-21.4zm52.3 28.6v-100h15.2v46l15.2-46h15.8l-16.6 49.3 17.9 50.7h-16.1l-16.1-46.7v46.7h-15.3zm60.3 0v-86.8h-11.7v-13.2h38.2v13.2h-11.3v86.8h-15.2zm35.5 0v-100h15.2v100h-15.2zm30.8 0v-100h18.9l14.2 73.1 13.4-73.1h19.1v100h-13.6v-37.3l.6-34.2-13.5 71h-12.1l-14-71 .6 34.2v37.3h-13.6zm80.6 0v-100h33.6v13.1h-18.3v29.1h17.4v12.8h-17.4v31.8h19v13.2h-34.3zm66.6-47l-4.9-.2v47.2h-15.3v-100h25.2c5.2 0 9.1 1.1 11.7 3.2 2.6 2.1 4.3 5 5.1 8.8.8 3.8 1.3 8.7 1.3 14.8 0 6.1-.6 10.7-1.9 13.9-1.3 3.2-3.7 5.3-7.2 6.4 3.4.6 5.9 2.9 7.2 7s2 12.5 2 25.3.2 19.7.6 20.6h-15.2c-.4-.8-.6-12.7-.6-35.9 0-4.4-.5-7.4-1.6-8.8-1.1-1.4-3.2-2.2-6.4-2.3zm-4.9-12h6.1c1.9 0 3.4-.4 4.3-1.3.9-.9 1.6-2.4 1.9-4.5.4-2.1.6-5.4.6-9.7v-.6c0-5.4-.5-9-1.4-10.6-.9-1.7-3-2.5-6.3-2.5h-5.2v29.2z"/>
  </symbol>
  <!-- PORTFOLIO -->
  <symbol id="portfolio" viewBox="0 0 450 100">
    <path d="M0 100v-100h23c7.7 0 13 2.4 15.9 7.1 2.9 4.7 4.4 11.7 4.5 21.1v2.1c0 9.9-1.4 17.5-4.3 22.6-2.8 5.1-8 7.7-15.7 7.7h-8.2v39.4h-15.2zm15.2-52h5.2c3.2 0 5.3-1.2 6.3-3.7s1.5-7.2 1.5-14.2v-1.9c0-5.9-.6-10.1-1.6-12.7-1-2.5-3-3.8-6-3.8h-5.3v36.3zm52.6 24.2c0 5.9.4 10 1.3 12.3.9 2.3 2.7 3.5 5.5 3.5s4.6-1.2 5.5-3.5c.9-2.4 1.3-6.5 1.3-12.2v-46.7c0-4.7-.5-8.2-1.4-10.3-.9-2.2-2.6-3.3-5.2-3.3s-4.4 1.1-5.5 3.3c-1 2.2-1.5 5.6-1.5 10.3v46.6zm28.3-.6c0 9.5-1.7 16.7-5.1 21.4-3.4 4.7-8.9 7.1-16.4 7.1-7.5 0-13-2.4-16.5-7.1-3.5-4.7-5.2-11.9-5.2-21.4v-44.7c0-17.9 7.3-26.9 22-26.9 7.6 0 13 2.3 16.3 6.8 3.3 4.6 5 11.2 5 20v44.8zm34.5-18.6l-4.9-.2v47.2h-15.2v-100h25.2c5.2 0 9.1 1.1 11.7 3.2 2.6 2.1 4.3 5 5.1 8.8.8 3.8 1.3 8.7 1.3 14.8 0 6.1-.6 10.7-1.9 13.9-1.3 3.2-3.7 5.3-7.2 6.4 3.4.6 5.9 2.9 7.2 7 1.4 4.1 2 12.5 2 25.3s.2 19.7.6 20.6h-15.2c-.4-.8-.6-12.7-.6-35.9 0-4.4-.5-7.4-1.6-8.8-1.1-1.4-3.2-2.2-6.5-2.3zm-4.8-12h6.1c1.9 0 3.4-.4 4.3-1.3.9-.9 1.6-2.4 1.9-4.5.4-2.1.6-5.4.6-9.7v-.6c0-5.4-.5-9-1.4-10.6-.9-1.7-3-2.5-6.3-2.5h-5.2v29.2zm47.3 59v-86.8h-11.7v-13.2h38.1v13.2h-11.3v86.8h-15.1zm34.8 0v-100h34.3v13.2h-19.1v26.6h17.7v13.3h-17.7v46.9h-15.2zm59.4-27.8c0 5.9.4 10 1.3 12.3.9 2.3 2.7 3.5 5.5 3.5s4.6-1.2 5.5-3.5c.9-2.4 1.3-6.5 1.3-12.2v-46.7c0-4.7-.5-8.2-1.4-10.3-.9-2.2-2.6-3.3-5.2-3.3s-4.4 1.1-5.5 3.3c-1 2.2-1.5 5.6-1.5 10.3v46.6zm28.4-.6c0 9.5-1.7 16.7-5.1 21.4-3.4 4.7-8.9 7.1-16.4 7.1-7.5 0-13-2.4-16.5-7.1-3.5-4.7-5.2-11.9-5.2-21.4v-44.7c0-17.9 7.3-26.9 21.9-26.9 7.6 0 13 2.3 16.3 6.8 3.3 4.6 5 11.2 5 20v44.8zm14.4 28.4v-100h15.2v87h19.3v13h-34.5zm43.8 0v-100h15.2v100h-15.2zm45-27.8c0 5.9.4 10 1.3 12.3.9 2.3 2.7 3.5 5.5 3.5s4.6-1.2 5.5-3.5c.9-2.4 1.3-6.5 1.3-12.2v-46.7c0-4.7-.5-8.2-1.4-10.3-.9-2.2-2.6-3.3-5.2-3.3s-4.4 1.1-5.5 3.3c-1 2.2-1.5 5.6-1.5 10.3v46.6zm28.8-.6c0 9.5-1.7 16.7-5.1 21.4-3.4 4.7-8.9 7.1-16.4 7.1-7.5 0-13-2.4-16.5-7.1-3.5-4.7-5.2-11.9-5.2-21.4v-44.7c0-17.9 7.3-26.9 22-26.9 7.6 0 13 2.3 16.3 6.8 3.3 4.6 5 11.2 5 20v44.8z"/>
  </symbol>
  <!-- HYDRAPP -->
  <symbol id="hydrapp" viewBox="0 0 450 100">
    <path d="M0 100v-100h15.2v40.5h13.6v-40.5h15.2v100h-15.1v-46.5h-13.7v46.5h-15.2zm68.8 0v-39.9l-16.7-60.1h14.5l9.9 37.4h.2l8.8-37.4h14.5l-16 60.1v39.9h-15.2zm54.4-11.8h5c2.8 0 4.8-.9 6.1-2.7 1.3-1.8 1.9-5.2 1.9-10l-.1-49.4c0-5.2-.6-8.9-1.9-11.1-1.2-2.2-3.4-3.3-6.5-3.3h-4.5v76.5zm-15.2 11.8v-100h22.4c7.3 0 12.7 2.2 16 6.5 3.3 4.3 5 10.7 5 19.1l.1 45.1c0 10.1-1.7 17.5-5 22.2-3.3 4.7-8.8 7-16.5 7h-22zm77.3-47l-4.9-.2v47.2h-15.2v-100h25.2c5.2 0 9.1 1.1 11.7 3.2 2.6 2.1 4.3 5 5.1 8.8.8 3.8 1.3 8.7 1.3 14.8 0 6.1-.6 10.7-1.9 13.9-1.3 3.2-3.7 5.3-7.2 6.4 3.4.6 5.9 2.9 7.2 7 1.4 4.1 2 12.5 2 25.3s.2 19.7.6 20.6h-15.2c-.4-.8-.6-12.7-.6-35.9 0-4.4-.5-7.4-1.6-8.8-1.2-1.4-3.3-2.2-6.5-2.3zm-4.8-12h6.1c1.9 0 3.4-.4 4.3-1.3.9-.9 1.6-2.4 1.9-4.5.4-2.1.6-5.4.6-9.7v-.6c0-5.4-.5-9-1.4-10.6-.9-1.7-3-2.5-6.3-2.5h-5.2v29.2zm68.9 28.9l-6.7-50.2h-.2l-6.1 50.2h13zm-31.4 30.1l14.3-100h20.1l15.2 100h-14.2l-2.4-17.8h-16.1l-2.2 17.8h-14.7zm60 0v-100h22.9c7.8 0 13.1 2.4 15.9 7.1 2.9 4.7 4.4 11.7 4.5 21.1v2.1c0 9.9-1.4 17.5-4.3 22.6-2.8 5.1-8 7.7-15.7 7.7h-8.2v39.4h-15.1zm15.2-52h5.2c3.2 0 5.3-1.2 6.2-3.7 1-2.5 1.5-7.2 1.5-14.2v-1.9c0-5.9-.6-10.1-1.6-12.7-1-2.5-3-3.8-6-3.8h-5.3v36.3zm38.4 52v-100h22.9c7.8 0 13.1 2.4 15.9 7.1 2.9 4.7 4.4 11.7 4.5 21.1v2.1c0 9.9-1.4 17.5-4.3 22.6-2.8 5.1-8 7.7-15.7 7.7h-8.2v39.4h-15.1zm15.2-52h5.2c3.2 0 5.3-1.2 6.2-3.7 1-2.5 1.5-7.2 1.5-14.2v-1.9c0-5.9-.6-10.1-1.6-12.7-1-2.5-3-3.8-6-3.8h-5.3v36.3z"/>
  </symbol>
  <!-- ARCHVIZ -->
  <symbol id="archviz" viewBox="0 0 450 100">
    <path d="M31.3 69.9l-6.7-50.2h-.2l-6.1 50.2h13zm-31.3 30.1l14.2-100h20.1l15.2 100h-14.2l-2.4-17.8h-16.1l-2.2 17.8h-14.6zm80-47l-4.9-.2v47.2h-15.2v-100h25.1c5.2 0 9.1 1.1 11.7 3.2 2.6 2.1 4.3 5 5.1 8.8.8 3.8 1.2 8.7 1.2 14.8 0 6.1-.6 10.7-1.9 13.9-1.3 3.2-3.7 5.3-7.2 6.4 3.4.6 5.8 2.9 7.2 7 1.4 4.1 2 12.5 2 25.3s.2 19.7.6 20.6h-15.1c-.4-.8-.6-12.7-.6-35.9 0-4.4-.5-7.4-1.6-8.8-1-1.4-3.1-2.2-6.4-2.3zm-4.8-12h6.1c1.9 0 3.3-.4 4.3-1.3.9-.9 1.6-2.4 1.9-4.5.4-2.1.6-5.4.6-9.7v-.6c0-5.4-.5-9-1.4-10.6-.9-1.7-3-2.5-6.3-2.5h-5.2v29.2zm83.8 31.2c0 9.4-1.7 16.4-5.1 21-3.4 4.5-8.7 6.8-15.9 6.8-7.2 0-12.6-2.4-16.2-7.2-3.6-4.9-5.3-11.8-5.3-20.9v-42.6c0-14.6 3.8-23.6 11.4-27.3 2.8-1.3 6.2-2 10.2-2 13.7 0 20.6 8.7 20.6 26v13.4h-14.4v-12.5c0-5-.4-8.6-1.3-10.8-.9-2.2-2.5-3.3-5-3.3s-4.2 1.1-5.2 3.4-1.4 5.8-1.4 10.6v45.7c0 5.3.5 9 1.4 11.3.9 2.3 2.6 3.4 5.1 3.4 2.4 0 4.1-1.1 5.1-3.4.9-2.3 1.4-6.1 1.4-11.4v-14h14.6v13.8zm12.9 27.8v-100h15.2v40.5h13.6v-40.5h15.2v100h-15.2v-46.5h-13.6v46.5h-15.2zm70.2 0l-15.5-100h14.5l6.5 45.2 4 31.8h.4l3.5-31.8 5.4-45.2h14.2l-14.2 100h-18.8zm44.2 0v-100h15.2v100h-15.2zm28.8 0v-13.5l20.7-73.4h-18.8v-13.1h34.8v12.3l-20.7 74.5h20.3v13.2h-36.3z"/>
  </symbol>
  <!-- QUOTES -->
  <symbol id="quotes" viewBox="0 0 450 100">
    <path d="M42.2 82.6c.6-3.2 1-6.9 1-11.1v-44.6c0-8.8-1.7-15.5-5-20-3.3-4.6-8.7-6.9-16.3-6.9-14.6 0-21.9 9-21.9 26.9v44.7c0 9.5 1.7 16.6 5.2 21.4 3.5 4.7 9 7.1 16.5 7.1 6.9 0 12.1-2 15.5-6l6 6 8.2-8.2-9.2-9.3zm-14-10.9c0 5.6-.4 9.6-1.3 11.9-.9 2.3-2.6 3.4-5.3 3.4s-4.5-1.1-5.4-3.4c-.9-2.3-1.3-6.3-1.3-12v-45.4c0-4.6.5-7.9 1.5-10.1 1-2.1 2.8-3.2 5.3-3.2s4.2 1.1 5.1 3.2c.9 2.1 1.3 5.5 1.3 10.1v45.5zm267.3-13.1c-2-4.5-5.1-8.9-9.1-13.3l-7.4-8-.6-.7c-2.7-2.9-4.6-5.3-5.6-7.1-1-1.9-1.5-4.3-1.5-7.4 0-3.1.5-5.4 1.5-7 1-1.5 2.7-2.3 5-2.3s3.9 1 4.7 3.1c.8 2 1.2 5.4 1.2 10.1v7h13.7v-6.1c0-8.8-1.3-15.4-4-20s-7.8-6.9-15.4-6.9c-7.6 0-12.9 2-16 5.9-1.9 2.5-3.3 5.7-4 9.8-.4 2.4-.7 5.2-.7 8.2 0 5 .9 9.3 2.8 13.1 1.9 3.8 4.5 7.4 7.9 10.9l7.2 7.4c.8.8 1.6 1.7 2.2 2.5 2.1 2.4 3.7 4.8 4.8 7.1 1.5 3 2.2 6.6 2.2 10.7s-.4 7.1-1.3 8.9c-.8 1.8-2.5 2.7-5.1 2.7-2.5 0-4.3-1.1-5.2-3.3-.9-2.2-1.4-6.1-1.4-11.5v-9.8h-14.1v8.7c0 4.7.4 8.8 1.1 12.3.7 3.5 1.9 6.5 3.4 9 3 4.9 8.4 7.3 16 7.3 7.7 0 13.1-2.2 16.1-6.5 3.1-4.4 4.6-11.1 4.6-20.3.2-5.2-.9-10.1-3-14.5zm-68.2 28.3v-31.8h17.4v-12.9h-17.4v-29h18.3v-13.1h-33.5v99.9h34.2v-13.1h-19zm-61.7-86.8v13.2h11.7v86.7h15.2v-86.8h11.2v-13.1h-38.1zm-13.3 6.8c-3.3-4.6-8.7-6.8-16.3-6.8-14.6 0-21.9 9-21.9 26.9v44.7c0 9.5 1.7 16.6 5.2 21.4 3.5 4.7 9 7 16.5 7s13-2.4 16.4-7c3.4-4.7 5.1-11.8 5.1-21.4v-44.8c0-8.8-1.7-15.5-5-20zm-9.9 64.9c0 5.6-.4 9.6-1.3 11.9-.9 2.3-2.6 3.4-5.3 3.4-2.7 0-4.5-1.1-5.4-3.4-.8-2.3-1.3-6.3-1.3-12v-45.5c0-4.6.5-7.9 1.5-10 1-2.1 2.8-3.2 5.3-3.2s4.2 1.1 5.1 3.2c.9 2.1 1.3 5.5 1.3 10.1v45.5zm-56.9-71.8v73.2c0 3-.1 5.4-.3 7.3-.2 1.9-.7 3.4-1.7 4.7-.9 1.3-2.5 1.9-4.7 1.9s-3.6-.4-4.3-1.3c-.7-.9-1.3-2-1.7-3.1-.5-1.1-.7-4.3-.7-9.5v-73.2h-15.1v73.5c0 9.1 1.7 15.7 5.2 20 3.5 4.3 9 6.5 16.6 6.5 7.6 0 13.2-2.1 16.6-6.4 3.4-4.3 5.2-11 5.2-20.1v-73.5h-15.1z"/>
  </symbol>
  <!-- OTHER -->
  <symbol id="other" viewBox="0 0 450 100">
    <path d="M15.4 72.2c0 5.9.4 10 1.3 12.3.9 2.3 2.7 3.5 5.5 3.5s4.6-1.2 5.5-3.5c.9-2.4 1.3-6.5 1.3-12.2v-46.7c0-4.7-.5-8.2-1.4-10.3-.9-2.2-2.6-3.3-5.3-3.3-2.6 0-4.4 1.1-5.5 3.3-1 2.2-1.5 5.6-1.5 10.3v46.6zm27.8-.6c0 9.5-1.7 16.7-5.1 21.4-3.4 4.7-8.9 7.1-16.4 7.1-7.5 0-13-2.4-16.5-7.1-3.5-4.8-5.2-11.9-5.2-21.4v-44.7c0-17.9 7.3-26.9 21.9-26.9 7.6 0 13 2.3 16.3 6.8 3.3 4.6 5 11.2 5 20v44.8zm20 28.4v-86.8h-11.7v-13.2h38.2v13.2h-11.3v86.8h-15.2zm34.9 0v-100h15.2v40.5h13.7v-40.5h15.2v100h-15.2v-46.5h-13.6v46.5h-15.3zm59.2 0v-100h33.5v13.1h-18.3v29.1h17.4v12.8h-17.4v31.8h19v13.2h-34.2zm66.5-47l-4.9-.2v47.2h-15.2v-100h25.2c5.2 0 9.1 1.1 11.7 3.2 2.6 2.1 4.3 5 5.1 8.8.8 3.8 1.3 8.7 1.3 14.8 0 6.1-.6 10.7-1.9 13.9-1.3 3.2-3.7 5.3-7.2 6.4 3.4.6 5.9 2.9 7.2 7 1.4 4.1 2 12.5 2 25.3s.2 19.7.6 20.6h-15.2c-.4-.8-.6-12.7-.6-35.9 0-4.4-.5-7.4-1.6-8.8-1.1-1.4-3.3-2.2-6.5-2.3zm-4.8-12h6.1c1.9 0 3.4-.4 4.3-1.3.9-.9 1.6-2.4 1.9-4.5.4-2.1.6-5.4.6-9.7v-.6c0-5.4-.5-9-1.4-10.6-.9-1.7-3-2.5-6.3-2.5h-5.2v29.2z"/>
  </symbol>
  <!-- CONTACT -->
  <symbol id="contact" viewBox="0 0 450 100">
    <path d="M42.5 72.2c0 9.4-1.7 16.4-5.1 21-3.4 4.5-8.7 6.8-15.9 6.8-7.2 0-12.6-2.4-16.2-7.2-3.5-4.9-5.3-11.8-5.3-20.9v-42.6c0-14.6 3.8-23.7 11.5-27.3 2.8-1.3 6.2-2 10.2-2 13.8 0 20.6 8.7 20.6 26v13.4h-14.4v-12.5c0-5-.4-8.6-1.3-10.8-.9-2.2-2.5-3.3-5-3.3s-4.2 1.1-5.2 3.4-1.4 5.8-1.4 10.6v45.7c0 5.3.5 9 1.4 11.3.9 2.3 2.6 3.4 5.1 3.4s4.1-1.1 5.1-3.4c.9-2.3 1.4-6.1 1.4-11.4v-14h14.6v13.8zm27.6 0c0 5.9.4 10 1.3 12.3.9 2.3 2.7 3.5 5.5 3.5s4.6-1.2 5.5-3.5c.9-2.4 1.3-6.5 1.3-12.2v-46.7c0-4.7-.5-8.2-1.4-10.3-.9-2.2-2.6-3.3-5.3-3.3-2.6 0-4.4 1.1-5.5 3.3-1 2.2-1.5 5.6-1.5 10.3v46.6zm27.8-.6c0 9.5-1.7 16.7-5.1 21.4-3.4 4.7-8.9 7.1-16.4 7.1-7.5 0-13-2.4-16.5-7.1-3.5-4.7-5.2-11.9-5.2-21.4v-44.7c0-17.9 7.3-26.9 21.9-26.9 7.6 0 13 2.3 16.3 6.8 3.3 4.6 5 11.2 5 20v44.8zm14.9 28.4v-100h11.9l21.3 60-1.1-27.3v-32.7h13.7v100h-10.8l-21.8-62.1.9 26.2v35.9h-14.1zm66 0v-86.8h-11.7v-13.2h38.2v13.2h-11.3v86.8h-15.2zm61.7-30.1l-6.7-50.2h-.2l-6.1 50.2h13zm-31.4 30.1l14.3-100h20.1l15.2 100h-14.2l-2.4-17.8h-16.1l-2.2 17.8h-14.7zm101.5-27.8c0 9.4-1.7 16.4-5.1 21-3.4 4.5-8.7 6.8-15.9 6.8-7.2 0-12.6-2.4-16.2-7.2-3.6-4.9-5.3-11.8-5.3-20.9v-42.6c0-14.6 3.8-23.6 11.5-27.3 2.8-1.3 6.2-2 10.2-2 13.8 0 20.6 8.7 20.6 26v13.4h-14.4v-12.5c0-5-.4-8.6-1.3-10.8-.9-2.2-2.5-3.3-5-3.3s-4.2 1.1-5.2 3.4-1.4 5.8-1.4 10.6v45.7c0 5.3.5 9 1.4 11.3.9 2.3 2.6 3.4 5.1 3.4 2.4 0 4.1-1.1 5.1-3.4.9-2.3 1.4-6.1 1.4-11.4v-14h14.6v13.8zm18 27.8v-86.8h-11.7v-13.2h38.2v13.2h-11.3v86.8h-15.2z"/>
  </symbol>
</svg>