<svg xmlns="http://www.w3.org/2000/svg" style="display: none;">
  <!-- #region [ Horizon ] ABOUT -->
  <symbol id="about" viewBox="0 0 263 100">
    <path d="M31.4 70l-6.7-50.2h-.2l-6.2 50.2h13.1zm-31.4 30l14.3-99.9h20.1l15.1 99.9h-14.2l-2.4-17.8h-16.1l-2.1 17.8h-14.7zm102.8-74.3c0 10.8-2.9 17.4-8.7 19.8 7.1 2.4 10.7 10.2 10.7 23.6v2.6c-.1 10-1.8 17.3-5.3 21.7-3.4 4.4-9 6.6-16.8 6.6h-22.1v-99.9h21.6c7.5 0 12.7 1.7 15.8 5.2 3.1 3.4 4.7 9.2 4.7 17.4v3zm-27 62.5h5.4c3 0 5.2-1 6.4-3.1 1.2-2.1 1.8-5.8 1.8-11.2v-8.1c0-5.1-.5-8.7-1.5-10.7-1-2.1-2.9-3.2-5.7-3.2h-6.4v36.3zm0-47.7h5.6c2.6 0 4.3-.8 5.1-2.5.8-1.7 1.3-5.1 1.3-10.3v-6c0-3.9-.6-6.4-1.6-7.7-1-1.3-2.8-2-5.3-2h-5.1v28.5zm54.9 31.7c0 5.9.4 10 1.3 12.3.9 2.3 2.7 3.5 5.5 3.5s4.6-1.2 5.5-3.5c.9-2.4 1.3-6.5 1.3-12.2v-46.6c0-4.7-.5-8.2-1.4-10.3-.9-2.2-2.6-3.3-5.2-3.3s-4.4 1.1-5.5 3.3c-1 2.2-1.5 5.6-1.5 10.3v46.5zm27.8-.6c0 9.6-1.7 16.7-5.1 21.4-3.4 4.7-8.9 7.1-16.4 7.1-7.5 0-13-2.4-16.5-7.1-3.5-4.7-5.2-11.9-5.2-21.4v-44.7c0-17.9 7.3-26.9 22-26.9 7.6 0 13 2.3 16.3 6.8 3.3 4.6 5 11.2 5 20v44.8zm57.9 1.9c0 9.1-1.7 15.8-5.2 20.1-3.4 4.3-9 6.4-16.6 6.4-7.6 0-13.1-2.2-16.6-6.5-3.4-4.3-5.2-11-5.2-20v-73.5h15.1v73.2c0 5.2.2 8.4.7 9.5.5 1.1 1.1 2.2 1.7 3.1.7.9 2.2 1.3 4.3 1.3 2.2 0 3.7-.6 4.7-1.9.9-1.3 1.5-2.8 1.7-4.7.2-1.9.3-4.3.3-7.3v-73.2h15.1v73.5zm20.2 26.5v-86.8h-11.7v-13.1h38.1v13.2h-11.2v86.7h-15.2z"/>
  </symbol>
  <symbol id="about-shadow" viewBox="0 0 263 100">
    <path d="M137.301 0c-14.7 0-22 9-22 26.9v44.699c0 9.5 1.699 16.7 5.199 21.4 1.349 1.812 2.999 3.28 4.943 4.402-2.783-4.673-4.143-11.318-4.143-19.803v-44.699c0-17.9 7.3-26.9 22-26.9 4.599 0 8.386.849 11.396 2.512-.344-.598-.709-1.169-1.098-1.711-3.3-4.5-8.699-6.801-16.299-6.801zm35.5 0v73.5c0 9 1.799 15.7 5.199 20 1.25 1.536 2.761 2.799 4.525 3.795-2.44-4.258-3.725-10.205-3.725-17.795v-73.5h9.1v-6h-15.1zm28.5 0v73.199c0 3-.101 5.401-.301 7.301-.2 1.9-.799 3.399-1.699 4.699-1 1.3-2.501 1.9-4.701 1.9l-.363-.02c.099.707.213 1.289.363 1.619.5 1.1 1.101 2.202 1.701 3.102.7.9 2.199 1.299 4.299 1.299 2.2 0 3.701-.6 4.701-1.9.9-1.3 1.499-2.799 1.699-4.699.2-1.9.301-4.301.301-7.301v-73.199h9.1v-6h-15.1zm-187 .1l-14.301 99.9h6.859l13.441-93.9h15.006l-.906-6h-20.1zm46.299 0v99.9h6v-93.9h21.6c4.931 0 8.862.74 11.861 2.238-.59-1.165-1.277-2.178-2.061-3.037-3.1-3.5-8.301-5.201-15.801-5.201h-21.6zm164.301 0v13.1h6v-7.1h32.1v-6h-38.1zm-137.328 17.926c.147 1.051.229 2.268.229 3.674v6c0 5.2-.501 8.601-1.301 10.301-.757 1.609-2.33 2.403-4.699 2.484v6.016h5.6c2.6 0 4.3-.8 5.1-2.5.8-1.7 1.301-5.101 1.301-10.301v-6c0-3.9-.602-6.399-1.602-7.699-.907-1.179-2.478-1.857-4.627-1.975zm56.113.074c.398 1.989.615 4.534.615 7.6v46.602c0 5.7-.401 9.799-1.301 12.199-.9 2.3-2.7 3.5-5.5 3.5l-.16-.01c.181.985.396 1.835.66 2.51.9 2.3 2.7 3.5 5.5 3.5s4.6-1.2 5.5-3.5c.9-2.4 1.301-6.499 1.301-12.199v-46.602c0-4.7-.5-8.199-1.4-10.299-.9-2.2-2.601-3.301-5.201-3.301h-.014zm92.914 1.1v80.801h6v-80.801h-6zm-206.1 6.602l-2.402 19.455 3.303 24.744h-6.359l-.74 6h13.1l-6.701-50.199h-.199zm70.477 25.283c-.286.147-.576.291-.877.416.511.173 1 .382 1.475.611-.19-.356-.391-.697-.598-1.027zm-12.182 6.846c.403 2.003.605 4.633.605 7.871v8.1c0 5.4-.601 9.099-1.801 11.199-1.117 1.955-3.11 2.945-5.799 3.074v6.025h5.398c3 0 5.2-1 6.4-3.1 1.2-2.1 1.801-5.799 1.801-11.199v-8.1c0-5.1-.5-8.701-1.5-10.701-.926-1.945-2.635-3.02-5.105-3.17zm-55.086 30.27l1.592 11.801h5.191l-1.592-11.801h-5.191z"/>
  </symbol>
  <!-- #endregion -->
  <!-- #region [ Horizon ] RESUME -->
  <symbol id="resume" viewBox="0 0 328 100">
    <path d="M20.1 53l-4.9-.2v47.2h-15.2v-99.9h25.2c5.2 0 9.1 1.1 11.7 3.2 2.6 2.1 4.3 5 5.1 8.8.8 3.7 1.3 8.7 1.3 14.8 0 6.1-.6 10.7-1.9 13.9-1.3 3.2-3.7 5.3-7.2 6.4 3.5.6 5.9 2.9 7.2 7s2 12.5 2 25.3.2 19.7.6 20.6h-15.3c-.4-.8-.6-12.7-.6-35.8 0-4.4-.5-7.4-1.6-8.8-1-1.6-3.1-2.4-6.4-2.5zm-4.8-12h6.1c1.9 0 3.4-.4 4.3-1.3.9-.9 1.6-2.4 1.9-4.5.4-2.1.6-5.4.6-9.7v-.6c0-5.4-.5-9-1.4-10.6-.9-1.7-3-2.5-6.3-2.5h-5.2v29.2zm42.1 59v-99.9h33.6v13.1h-18.3v29.1h17.4v12.8h-17.4v31.8h19v13.1h-34.3zm44.9-28.6v-8.7h14.1v9.8c0 5.4.5 9.3 1.4 11.5.9 2.2 2.7 3.3 5.2 3.3 2.6 0 4.2-.9 5.1-2.7.9-1.8 1.3-4.8 1.3-8.9 0-4.1-.7-7.7-2.2-10.7-1.5-3.1-3.8-6.3-7.1-9.6l-7.2-7.4c-3.4-3.5-6-7.2-7.9-10.9-1.9-3.8-2.8-8.1-2.8-13.1 0-8.1 1.6-14.1 4.7-18 3.1-4 8.5-6 16.1-6 7.6 0 12.7 2.3 15.4 6.9 2.7 4.6 4.1 11.2 4.1 20v6.1h-13.7v-7c0-4.7-.4-8.1-1.2-10.2-.8-2.1-2.4-3.1-4.7-3.1-2.3 0-4 .8-5 2.3-1 1.6-1.5 3.9-1.5 7s.5 5.6 1.6 7.4c1 1.9 2.9 4.2 5.6 7.1l8.1 8.7c4 4.4 7.1 8.8 9.1 13.3 2.1 4.5 3.1 9.4 3.1 14.7 0 9.1-1.5 15.9-4.6 20.3-3.1 4.4-8.5 6.6-16.2 6.6-7.7 0-13-2.4-16.1-7.3-3.2-5-4.7-12.1-4.7-21.4zm96.7 2.1c0 9.1-1.7 15.8-5.2 20.1-3.4 4.3-9 6.4-16.6 6.4-7.6 0-13.2-2.2-16.6-6.5-3.4-4.3-5.2-11-5.2-20v-73.5h15.1v73.2c0 5.2.2 8.4.7 9.5.5 1.1 1.1 2.2 1.7 3.1.7.9 2.2 1.3 4.3 1.3s3.7-.6 4.7-1.9c.9-1.3 1.5-2.8 1.7-4.7.2-1.9.3-4.3.3-7.3v-73.2h15.1v73.5zm14.4 26.5v-99.9h18.9l14.2 73 13.4-73h19.1v99.9h-13.6v-37.3l.6-34.2-13.5 71h-12.1l-14-71 .6 34.2v37.3h-13.6zm80.7 0v-99.9h33.9v13.1h-18.7v29.1h17.4v12.8h-17.4v31.8h18.7v13.1h-33.9z"/>
  </symbol>
  <symbol id="resume-shadow" viewBox="0 0 328 100">
    <path d="M123 0c-7.6 0-13 2-16.1 6-3.1 3.9-4.701 9.9-4.701 18 0 5 .901 9.3 2.801 13.1 1.9 3.7 4.5 7.4 7.9 10.9l7.199 7.4c3.3 3.3 5.6 6.5 7.1 9.6 1.5 3 2.201 6.599 2.201 10.699s-.401 7.1-1.301 8.9c-.893 1.786-2.478 2.686-5.043 2.699.205 1.07.451 1.985.744 2.701.9 2.2 2.699 3.301 5.199 3.301 2.6 0 4.2-.901 5.1-2.701.9-1.8 1.301-4.8 1.301-8.9 0-4.1-.701-7.699-2.201-10.699-1.5-3.1-3.8-6.3-7.1-9.6l-7.199-7.4c-3.4-3.5-6-7.2-7.9-10.9-1.9-3.8-2.801-8.1-2.801-13.1 0-8.1 1.601-14.1 4.701-18 3.1-4 8.5-6 16.1-6 4.002 0 7.303.645 9.934 1.92-.176-.342-.344-.697-.533-1.02-2.7-4.6-7.8-6.9-15.4-6.9zm32.4 0v73.5c0 9 1.799 15.7 5.199 20 1.23 1.555 2.751 2.831 4.547 3.832-2.454-4.261-3.746-10.22-3.746-17.832v-73.5h9.1v-6h-15.1zm28.5 0v73.199c0 3-.101 5.401-.301 7.301-.2 1.9-.799 3.399-1.699 4.699-1 1.3-2.601 1.9-4.701 1.9l-.363-.02c.099.707.213 1.289.363 1.619.5 1.1 1.101 2.202 1.701 3.102.7.9 2.199 1.299 4.299 1.299 2.1 0 3.701-.6 4.701-1.9.9-1.3 1.499-2.799 1.699-4.699.2-1.9.301-4.301.301-7.301v-73.199h9.1v-6h-15.1zm-183.9.1v99.9h6v-93.9h25.199c3.811 0 6.918.598 9.332 1.74-.905-1.798-2.109-3.31-3.631-4.539-2.6-2.1-6.501-3.201-11.701-3.201h-25.199zm57.4 0v99.9h6v-93.9h27.6v-6h-33.6zm156 0v99.9h6v-93.9h14.068l-1.168-6h-18.9zm46.5 0l-11.055 60.217 3.654 18.783 13.4-73h13.1v-6h-19.1zm34.199 0v99.9h6v-93.9h27.9v-6h-33.9zm-266.314 17.75c.269 1.825.414 4.174.414 7.051v.6c0 4.3-.2 7.599-.6 9.699-.3 2.1-1 3.6-1.9 4.5-.9.9-2.399 1.301-4.299 1.301h-.1v6h6.1c1.9 0 3.399-.401 4.299-1.301.9-.9 1.6-2.4 1.9-4.5.4-2.1.6-5.399.6-9.699v-.6c0-5.4-.498-9-1.398-10.6-.777-1.467-2.452-2.26-5.016-2.451zm101.115.85l-.566.027c.311 1.92.467 4.343.467 7.273v7h6v-1c0-4.7-.401-8.099-1.201-10.199-.8-2.1-2.399-3.102-4.699-3.102zm103.5 15.801l.471 26.813 7.529 38.188h4.816l-12.816-65zm39.6 0l-6.6 34.709v30.791h6v-31.301l.6-34.199zm-193.301 7.801v6h11.4v-6h-11.4zm236.602 0v6h11.398v-6h-11.398zm-274.369 10.633c-.242.09-.479.186-.732.266.316.054.614.141.912.223l-.18-.488zm-13.166 6.199c.223 1.415.334 3.135.334 5.168 0 23.1.2 34.999.6 35.799h5.648c-.158-5.692-.248-15.269-.248-29.799 0-4.4-.5-7.401-1.6-8.801-.818-1.309-2.388-2.075-4.734-2.367zm74.535 3.566v8.701c0 9.3 1.499 16.4 4.699 21.4 1.371 2.166 3.174 3.841 5.422 5.039-2.802-4.934-4.121-11.719-4.121-20.439v-8.701h8.1v-6h-14.1zm-23.602 24.201v6h13v-6h-13zm236.602 0v6h12.699v-6h-12.699z"/>
  </symbol>
  <!-- #endregion -->
  <!-- #region [ Horizon ] TASKTIMER -->
  <symbol id="tasktimer" viewBox="0 0 450 100">
    <path d="M11.7 100v-86.8h-11.7v-13.2h38.2v13.2h-11.3v86.8h-15.2zm61.8-30.1l-6.7-50.2h-.2l-6.1 50.2h13zm-31.4 30.1l14.3-100h20.1l15.2 100h-14.2l-2.4-17.8h-16.2l-2.1 17.8h-14.7zm58-28.6v-8.7h14.1v9.8c0 5.4.5 9.3 1.4 11.5.9 2.2 2.7 3.3 5.2 3.3s4.2-.9 5.1-2.7c.9-1.8 1.3-4.8 1.3-8.9s-.7-7.7-2.2-10.7c-1.5-3.1-3.8-6.3-7.1-9.6l-7.2-7.4c-3.4-3.5-6-7.2-7.9-10.9-1.9-3.8-2.8-8.1-2.8-13.1 0-8.1 1.6-14.1 4.7-18 3.1-4 8.5-6 16.1-6 7.6 0 12.7 2.3 15.4 6.9 2.7 4.6 4.1 11.2 4.1 20v6.1h-13.7v-7c0-4.7-.4-8.1-1.2-10.2-.8-2.1-2.4-3.1-4.7-3.1-2.3 0-4 .8-5 2.3-1 1.6-1.5 3.9-1.5 7s.5 5.6 1.6 7.4c1 1.9 2.9 4.2 5.6 7.1l8.1 8.7c4 4.4 7.1 8.8 9.1 13.3 2.1 4.5 3.1 9.4 3.1 14.7 0 9.1-1.5 15.9-4.6 20.3-3.1 4.4-8.5 6.6-16.2 6.6-7.7 0-13-2.4-16.1-7.3-3.2-5-4.7-12.1-4.7-21.4zm52.3 28.6v-100h15.2v46l15.2-46h15.8l-16.6 49.3 17.9 50.7h-16.1l-16.1-46.7v46.7h-15.3zm60.3 0v-86.8h-11.7v-13.2h38.2v13.2h-11.3v86.8h-15.2zm35.5 0v-100h15.2v100h-15.2zm30.8 0v-100h18.9l14.2 73.1 13.4-73.1h19.1v100h-13.6v-37.3l.6-34.2-13.5 71h-12.1l-14-71 .6 34.2v37.3h-13.6zm80.6 0v-100h33.6v13.1h-18.3v29.1h17.4v12.8h-17.4v31.8h19v13.2h-34.3zm66.6-47l-4.9-.2v47.2h-15.3v-100h25.2c5.2 0 9.1 1.1 11.7 3.2 2.6 2.1 4.3 5 5.1 8.8.8 3.8 1.3 8.7 1.3 14.8 0 6.1-.6 10.7-1.9 13.9-1.3 3.2-3.7 5.3-7.2 6.4 3.4.6 5.9 2.9 7.2 7s2 12.5 2 25.3.2 19.7.6 20.6h-15.2c-.4-.8-.6-12.7-.6-35.9 0-4.4-.5-7.4-1.6-8.8-1.1-1.4-3.2-2.2-6.4-2.3zm-4.9-12h6.1c1.9 0 3.4-.4 4.3-1.3.9-.9 1.6-2.4 1.9-4.5.4-2.1.6-5.4.6-9.7v-.6c0-5.4-.5-9-1.4-10.6-.9-1.7-3-2.5-6.3-2.5h-5.2v29.2z"/>
  </symbol>
  <symbol id="tasktimer-shadow" viewBox="0 0 450 100">
    <path d="M0 0v13.199h6v-7.199h32.199v-6h-38.199zm56.4 0l-14.301 100h6.857l13.443-94h15.012l-.912-6h-20.1zm64.4 0c-7.6 0-13.002 2-16.102 6-3.1 3.9-4.699 9.9-4.699 18 0 5 .901 9.3 2.801 13.1 1.9 3.7 4.498 7.4 7.898 10.9l7.201 7.4c3.3 3.3 5.6 6.5 7.1 9.6 1.5 3 2.199 6.599 2.199 10.699s-.399 7.1-1.299 8.9c-.893 1.786-2.576 2.686-5.045 2.699.205 1.07.451 1.985.744 2.701.9 2.2 2.701 3.301 5.201 3.301 2.5 0 4.2-.901 5.1-2.701.9-1.8 1.299-4.8 1.299-8.9 0-4.1-.699-7.699-2.199-10.699-1.5-3.1-3.8-6.3-7.1-9.6l-7.201-7.4c-3.4-3.5-5.998-7.2-7.898-10.9-1.9-3.8-2.801-8.1-2.801-13.1 0-8.1 1.599-14.1 4.699-18 3.1-4 8.502-6 16.102-6 4.001 0 7.302.645 9.932 1.92-.176-.342-.344-.697-.533-1.02-2.7-4.6-7.798-6.9-15.398-6.9zm31.6 0v100h6v-94h9.199v-6h-15.199zm30.4 0l-9.201 27.844v24.156l15.201-46h7.779l2.02-6h-15.799zm18.199 0v6h3.6l-2.424 7.199h4.824v-7.199h32.199v-6h-38.199zm47.199 0v100h6v-94h9.201v-6h-15.201zm30.801 0v100h6v-94h14.066l-1.166-6h-18.9zm46.5 0l-11.053 60.295 3.652 18.805 13.4-73.1h13.1v-6h-19.1zm34.1 0v100h6v-94h27.6v-6h-33.6zm46.4 0v100h6v-94h25.199c3.811 0 6.918.596 9.332 1.738-.905-1.797-2.109-3.31-3.631-4.539-2.6-2.1-6.501-3.199-11.701-3.199h-25.199zm27.785 17.85c.269 1.825.414 4.174.414 7.051v.6c0 4.3-.2 7.599-.6 9.699-.3 2.1-1 3.6-1.9 4.5-.9.9-2.399 1.301-4.299 1.301h-.1v6h6.1c1.9 0 3.399-.401 4.299-1.301.9-.9 1.6-2.4 1.9-4.5.4-2.1.6-5.399.6-9.699v-.6c0-5.4-.498-9-1.398-10.6-.777-1.467-2.452-2.26-5.016-2.451zm-307.086.85l-.566.027c.311 1.92.467 4.343.467 7.273v7h6v-1c0-4.7-.399-8.099-1.199-10.199-.8-2.1-2.401-3.102-4.701-3.102zm-115 .5v80.801h6v-80.801h-6zm201 0v80.801h6v-80.801h-6zm-140.1 6.5l-2.383 19.604 3.283 24.598h-6.271l-.729 6h13l-6.699-50.201h-.201zm225.4 8.801l.471 26.813 7.529 38.188h4.816l-12.816-65zm39.6 0l-6.6 34.709v30.791h6v-31.301l.6-34.199zm43.301 7.699v6h11.4v-6h-11.4zm66.027 10.635c-.241.09-.476.186-.729.266.314.055.613.14.912.225l-.184-.49zm-13.033 6.307c.202 1.377.305 3.023.305 4.959 0 23.2.202 35.1.602 35.9h5.646c-.158-5.7-.248-15.301-.248-29.9 0-4.4-.5-7.399-1.6-8.799-.891-1.134-2.45-1.866-4.705-2.16zm-260.195.16v11.402l10.102 29.297h3.932l-14.033-40.699zm-73.6 3.398v8.701c0 9.3 1.501 16.4 4.701 21.4 1.371 2.167 3.173 3.843 5.422 5.041-2.803-4.934-4.123-11.72-4.123-20.441v-8.701h8.1v-6h-14.1zm280.801 24.102v6h13v-6h-13zm-304.992 1.398l1.592 11.801h5.191l-1.592-11.801h-5.191z"/>
  </symbol>
  <!-- #endregion -->
  <!-- #region [ Horizon ] PORTFOLIO -->
  <symbol id="portfolio" viewBox="0 0 428 100">
    <path d="M0 100v-100h23c7.7 0 13 2.4 15.9 7.1 2.9 4.7 4.4 11.7 4.5 21.1v2.1c0 9.9-1.4 17.5-4.3 22.6-2.8 5.1-8 7.7-15.7 7.7h-8.2v39.4h-15.2zm15.2-52h5.2c3.2 0 5.3-1.2 6.3-3.7s1.5-7.2 1.5-14.2v-1.9c0-5.9-.6-10.1-1.6-12.7-1-2.5-3-3.8-6-3.8h-5.3v36.3zm52.6 24.2c0 5.9.4 10 1.3 12.3.9 2.3 2.7 3.5 5.5 3.5s4.6-1.2 5.5-3.5c.9-2.4 1.3-6.5 1.3-12.2v-46.7c0-4.7-.5-8.2-1.4-10.3-.9-2.2-2.6-3.3-5.2-3.3s-4.4 1.1-5.5 3.3c-1 2.2-1.5 5.6-1.5 10.3v46.6zm28.3-.6c0 9.5-1.7 16.7-5.1 21.4-3.4 4.7-8.9 7.1-16.4 7.1-7.5 0-13-2.4-16.5-7.1-3.5-4.7-5.2-11.9-5.2-21.4v-44.7c0-17.9 7.3-26.9 22-26.9 7.6 0 13 2.3 16.3 6.8 3.3 4.6 5 11.2 5 20v44.8zm34.5-18.6l-4.9-.2v47.2h-15.2v-100h25.2c5.2 0 9.1 1.1 11.7 3.2 2.6 2.1 4.3 5 5.1 8.8.8 3.8 1.3 8.7 1.3 14.8 0 6.1-.6 10.7-1.9 13.9-1.3 3.2-3.7 5.3-7.2 6.4 3.4.6 5.9 2.9 7.2 7 1.4 4.1 2 12.5 2 25.3s.2 19.7.6 20.6h-15.2c-.4-.8-.6-12.7-.6-35.9 0-4.4-.5-7.4-1.6-8.8-1.1-1.4-3.2-2.2-6.5-2.3zm-4.8-12h6.1c1.9 0 3.4-.4 4.3-1.3.9-.9 1.6-2.4 1.9-4.5.4-2.1.6-5.4.6-9.7v-.6c0-5.4-.5-9-1.4-10.6-.9-1.7-3-2.5-6.3-2.5h-5.2v29.2zm47.3 59v-86.8h-11.7v-13.2h38.1v13.2h-11.3v86.8h-15.1zm34.8 0v-100h34.3v13.2h-19.1v26.6h17.7v13.3h-17.7v46.9h-15.2zm59.4-27.8c0 5.9.4 10 1.3 12.3.9 2.3 2.7 3.5 5.5 3.5s4.6-1.2 5.5-3.5c.9-2.4 1.3-6.5 1.3-12.2v-46.7c0-4.7-.5-8.2-1.4-10.3-.9-2.2-2.6-3.3-5.2-3.3s-4.4 1.1-5.5 3.3c-1 2.2-1.5 5.6-1.5 10.3v46.6zm28.4-.6c0 9.5-1.7 16.7-5.1 21.4-3.4 4.7-8.9 7.1-16.4 7.1-7.5 0-13-2.4-16.5-7.1-3.5-4.7-5.2-11.9-5.2-21.4v-44.7c0-17.9 7.3-26.9 21.9-26.9 7.6 0 13 2.3 16.3 6.8 3.3 4.6 5 11.2 5 20v44.8zm14.4 28.4v-100h15.2v87h19.3v13h-34.5zm43.8 0v-100h15.2v100h-15.2zm45-27.8c0 5.9.4 10 1.3 12.3.9 2.3 2.7 3.5 5.5 3.5s4.6-1.2 5.5-3.5c.9-2.4 1.3-6.5 1.3-12.2v-46.7c0-4.7-.5-8.2-1.4-10.3-.9-2.2-2.6-3.3-5.2-3.3s-4.4 1.1-5.5 3.3c-1 2.2-1.5 5.6-1.5 10.3v46.6zm29.1-.6c0 9.5-1.7 16.7-5.1 21.4-3.4 4.7-8.9 7.1-16.4 7.1-7.5 0-13-2.4-16.5-7.1-3.5-4.7-5.2-11.9-5.2-21.4v-44.7c0-17.9 7.3-26.9 21.9-26.9 7.6 0 13 2.3 16.3 6.8 3.3 4.6 5 11.2 5 20v44.8z"/>
  </symbol>
  <symbol id="portfolio-shadow" viewBox="0 0 428 100">
    <path d="M0 0v100h6v-94h23c4.226 0 7.724.727 10.504 2.156-.195-.363-.394-.718-.604-1.057-2.9-4.7-8.2-7.1-15.9-7.1h-23zm74.9 0c-14.7 0-22 9-22 26.9v44.699c0 9.5 1.699 16.7 5.199 21.4 1.349 1.812 2.999 3.28 4.943 4.402-2.783-4.673-4.143-11.318-4.143-19.803v-44.699c0-17.9 7.3-26.9 22-26.9 4.599 0 8.386.849 11.396 2.512-.344-.598-.709-1.169-1.098-1.711-3.3-4.5-8.699-6.801-16.299-6.801zm35.6 0v100h6v-94h25.199c3.811 0 6.918.596 9.332 1.738-.905-1.797-2.109-3.31-3.631-4.539-2.6-2.1-6.501-3.199-11.701-3.199h-25.199zm50.9 0v13.199h6v-7.199h32.1v-6h-38.1zm46.5 0v100h6v-94h28.299v-6h-34.299zm66.5 0c-14.6 0-21.9 9-21.9 26.9v44.699c0 9.5 1.699 16.7 5.199 21.4 1.349 1.812 2.999 3.28 4.943 4.402-2.783-4.673-4.143-11.318-4.143-19.803v-44.699c0-17.9 7.3-26.9 21.9-26.9 4.599 0 8.386.849 11.396 2.512-.344-.598-.709-1.169-1.098-1.711-3.3-4.5-8.699-6.801-16.299-6.801zm35.699 0v100h6v-94h9.201v-6h-15.201zm43.801 0v100h6v-94h9.199v-6h-15.199zm52.799 0c-14.6 0-21.898 9-21.898 26.9v44.699c0 9.5 1.699 16.7 5.199 21.4 1.349 1.812 2.999 3.28 4.943 4.402-2.783-4.673-4.143-11.318-4.143-19.803v-44.699c0-17.9 7.298-26.9 21.898-26.9 4.599 0 8.388.849 11.398 2.512-.344-.598-.709-1.169-1.098-1.711-3.3-4.5-8.701-6.801-16.301-6.801zm-379.432 17.736c.593 2.556.932 6.028.932 10.463v1.9c0 7-.5 11.701-1.5 14.201-.902 2.255-2.707 3.441-5.398 3.654v6.045h5.1c3.2 0 5.299-1.199 6.299-3.699s1.5-7.201 1.5-14.201v-1.9c0-5.9-.6-10.099-1.6-12.699-.923-2.306-2.707-3.578-5.332-3.764zm111.018.113c.269 1.825.414 4.174.414 7.051v.6c0 4.3-.2 7.599-.6 9.699-.3 2.1-1 3.6-1.9 4.5-.9.9-2.399 1.301-4.299 1.301h-.1v6h6.1c1.9 0 3.399-.401 4.299-1.301.9-.9 1.6-2.4 1.9-4.5.4-2.1.6-5.399.6-9.699v-.6c0-5.4-.498-9-1.398-10.6-.777-1.467-2.452-2.26-5.016-2.451zm-57.5.15c.398 1.989.615 4.534.615 7.6v46.701c0 5.7-.401 9.799-1.301 12.199-.9 2.3-2.7 3.5-5.5 3.5l-.16-.01c.181.985.396 1.835.66 2.51.9 2.3 2.7 3.5 5.5 3.5s4.6-1.2 5.5-3.5c.9-2.4 1.301-6.499 1.301-12.199v-46.701c0-4.7-.5-8.199-1.4-10.299-.9-2.2-2.599-3.301-5.199-3.301h-.016zm199.5 0c.398 1.989.615 4.534.615 7.6v46.701c0 5.7-.401 9.799-1.301 12.199-.9 2.3-2.7 3.5-5.5 3.5l-.16-.01c.181.985.396 1.835.66 2.51.9 2.3 2.7 3.5 5.5 3.5s4.6-1.2 5.5-3.5c.9-2.4 1.301-6.499 1.301-12.199v-46.701c0-4.7-.5-8.199-1.4-10.299-.9-2.2-2.599-3.301-5.199-3.301h-.016zm131.6 0c.398 1.989.615 4.534.615 7.6v46.701c0 5.7-.401 9.799-1.301 12.199-.9 2.3-2.7 3.5-5.5 3.5l-.16-.01c.181.985.396 1.835.66 2.51.9 2.3 2.7 3.5 5.5 3.5s4.6-1.2 5.5-3.5c.9-2.4 1.301-6.499 1.301-12.199v-46.701c0-4.7-.5-8.199-1.4-10.299-.9-2.2-2.599-3.301-5.199-3.301h-.016zm-238.785 1.199v80.801h6v-80.801h-6zm56 20.602v6h11.701v-6h-11.701zm-77.672 13.033c-.241.09-.476.186-.729.266.314.055.613.14.912.225l-.184-.49zm-13.031 6.314c.201 1.375.303 3.019.303 4.951 0 23.2.202 35.1.602 35.9h5.646c-.158-5.7-.248-15.301-.248-29.9 0-4.4-.5-7.399-1.6-8.799-.884-1.125-2.425-1.854-4.703-2.152zm192.904 27.852v6h13.299v-6h-13.299z"/>
  </symbol>
  <!-- #endregion -->
  <!-- #region [ Horizon ] HYDRAPP -->
  <symbol id="hydrapp" viewBox="0 0 375 100">
    <path d="M0 100v-100h15.2v40.5h13.6v-40.5h15.2v100h-15.1v-46.5h-13.7v46.5h-15.2zm68.8 0v-39.9l-16.7-60.1h14.5l9.9 37.4h.2l8.8-37.4h14.5l-16 60.1v39.9h-15.2zm54.4-11.8h5c2.8 0 4.8-.9 6.1-2.7 1.3-1.8 1.9-5.2 1.9-10l-.1-49.4c0-5.2-.6-8.9-1.9-11.1-1.2-2.2-3.4-3.3-6.5-3.3h-4.5v76.5zm-15.2 11.8v-100h22.4c7.3 0 12.7 2.2 16 6.5 3.3 4.3 5 10.7 5 19.1l.1 45.1c0 10.1-1.7 17.5-5 22.2-3.3 4.7-8.8 7-16.5 7h-22zm77.3-47l-4.9-.2v47.2h-15.2v-100h25.2c5.2 0 9.1 1.1 11.7 3.2 2.6 2.1 4.3 5 5.1 8.8.8 3.8 1.3 8.7 1.3 14.8 0 6.1-.6 10.7-1.9 13.9-1.3 3.2-3.7 5.3-7.2 6.4 3.4.6 5.9 2.9 7.2 7 1.4 4.1 2 12.5 2 25.3s.2 19.7.6 20.6h-15.2c-.4-.8-.6-12.7-.6-35.9 0-4.4-.5-7.4-1.6-8.8-1.2-1.4-3.3-2.2-6.5-2.3zm-4.8-12h6.1c1.9 0 3.4-.4 4.3-1.3.9-.9 1.6-2.4 1.9-4.5.4-2.1.6-5.4.6-9.7v-.6c0-5.4-.5-9-1.4-10.6-.9-1.7-3-2.5-6.3-2.5h-5.2v29.2zm68.9 28.9l-6.7-50.2h-.2l-6.1 50.2h13zm-31.4 30.1l14.3-100h20.1l15.2 100h-14.2l-2.4-17.8h-16.1l-2.2 17.8h-14.7zm60 0v-100h22.9c7.8 0 13.1 2.4 15.9 7.1 2.9 4.7 4.4 11.7 4.5 21.1v2.1c0 9.9-1.4 17.5-4.3 22.6-2.8 5.1-8 7.7-15.7 7.7h-8.2v39.4h-15.1zm15.2-52h5.2c3.2 0 5.3-1.2 6.2-3.7 1-2.5 1.5-7.2 1.5-14.2v-1.9c0-5.9-.6-10.1-1.6-12.7-1-2.5-3-3.8-6-3.8h-5.3v36.3zm38.4 52v-100h22.9c7.8 0 13.1 2.4 15.9 7.1 2.9 4.7 4.4 11.7 4.5 21.1v2.1c0 9.9-1.4 17.5-4.3 22.6-2.8 5.1-8 7.7-15.7 7.7h-8.2v39.4h-15.1zm15.2-52h5.2c3.2 0 5.3-1.2 6.2-3.7 1-2.5 1.5-7.2 1.5-14.2v-1.9c0-5.9-.6-10.1-1.6-12.7-1-2.5-3-3.8-6-3.8h-5.3v36.3z"/>
  </symbol>
  <symbol id="hydrapp-shadow" viewBox="0 0 375 100">
    <path d="M0 0v100h6v-94h9.199v-6h-15.199zm28.801 0v40.5h-7.602v6h13.602v-40.5h9.199v-6h-15.199zm23.299 0l16.701 60.1v39.9h6v-33.9l-16.701-60.1h10.088l-1.588-6h-14.5zm33.4 0l-6.818 28.977 3.818 14.424h.199l8.801-37.4h6.902l1.598-6h-14.5zm22.5 0v99.9h6v-93.9h22.4c4.523 0 8.315.846 11.332 2.512-.412-.713-.853-1.387-1.332-2.012-3.3-4.3-8.7-6.5-16-6.5h-22.4zm57.199 0v100h6v-94h25.201c3.811 0 6.916.596 9.33 1.738-.905-1.797-2.109-3.31-3.631-4.539-2.6-2.1-6.499-3.199-11.699-3.199h-25.201zm67.102 0l-14.301 100h6.857l13.443-94h15.012l-.912-6h-20.1zm45.699 0v100h6v-94h22.9c4.231 0 7.719.711 10.479 2.107-.187-.346-.378-.684-.578-1.008-2.8-4.7-8.1-7.1-15.9-7.1h-22.9zm53.6 0v100h6v-94h22.9c4.231 0 7.719.711 10.479 2.107-.187-.346-.378-.684-.578-1.008-2.8-4.7-8.1-7.1-15.9-7.1h-22.9zm-26.432 17.736c.593 2.556.932 6.028.932 10.463v1.9c0 7-.5 11.701-1.5 14.201-.822 2.283-2.654 3.469-5.4 3.66v6.039h5.201c3.2 0 5.299-1.199 6.199-3.699 1-2.5 1.5-7.201 1.5-14.201v-1.9c0-5.9-.6-10.099-1.6-12.699-.923-2.306-2.707-3.578-5.332-3.764zm53.6 0c.593 2.556.932 6.028.932 10.463v1.9c0 7-.5 11.701-1.5 14.201-.822 2.282-2.653 3.469-5.398 3.66v6.039h5.199c3.2 0 5.299-1.199 6.199-3.699 1-2.5 1.5-7.201 1.5-14.201v-1.9c0-5.9-.6-10.099-1.6-12.699-.923-2.306-2.707-3.578-5.332-3.764zm-223.475.086c.543 2.119.807 4.87.807 8.277l.1 49.4c0 4.8-.598 8.2-1.898 10-1.14 1.578-2.818 2.464-5.102 2.658v6.041h5c2.8 0 4.802-.899 6.102-2.699 1.3-1.8 1.898-5.2 1.898-10l-.1-49.4c0-5.2-.6-8.9-1.9-11.1-.982-1.799-2.641-2.85-4.906-3.178zm57.691.027c.269 1.825.416 4.174.416 7.051v.6c0 4.3-.2 7.599-.6 9.699-.3 2.1-1 3.6-1.9 4.5-.9.9-2.401 1.301-4.301 1.301h-.1v6h6.1c1.9 0 3.401-.401 4.301-1.301.9-.9 1.6-2.4 1.9-4.5.4-2.1.6-5.399.6-9.699v-.6c0-5.4-.5-9-1.4-10.6-.777-1.467-2.452-2.26-5.016-2.451zm55.516 7.85l-2.383 19.607 3.283 24.594h-6.271l-.729 6h13l-6.701-50.201h-.199zm-42.373 27.135c-.241.09-.474.186-.727.266.314.055.612.14.91.225l-.184-.49zm-13.031 6.32c.201 1.374.305 3.016.305 4.945 0 23.2.2 35.1.6 35.9h5.648c-.158-5.7-.248-15.301-.248-29.9 0-4.4-.5-7.399-1.6-8.799-.957-1.117-2.501-1.844-4.705-2.146zm-164.195.346v40.5h6v-40.5h-6zm222.908 28.699l1.592 11.801h5.191l-1.592-11.801h-5.191z"/>
  </symbol>
  <!-- #endregion -->
  <!-- #region [ Horizon ] ARCHVIZ -->
  <symbol id="archviz" viewBox="0 0 352 100">
    <path d="M31.3 69.9l-6.7-50.2h-.2l-6.1 50.2h13zm-31.3 30.1l14.2-100h20.1l15.2 100h-14.2l-2.4-17.8h-16.1l-2.2 17.8h-14.6zm80-47l-4.9-.2v47.2h-15.2v-100h25.1c5.2 0 9.1 1.1 11.7 3.2 2.6 2.1 4.3 5 5.1 8.8.8 3.8 1.2 8.7 1.2 14.8 0 6.1-.6 10.7-1.9 13.9-1.3 3.2-3.7 5.3-7.2 6.4 3.4.6 5.8 2.9 7.2 7 1.4 4.1 2 12.5 2 25.3s.2 19.7.6 20.6h-15.1c-.4-.8-.6-12.7-.6-35.9 0-4.4-.5-7.4-1.6-8.8-1-1.4-3.1-2.2-6.4-2.3zm-4.8-12h6.1c1.9 0 3.3-.4 4.3-1.3.9-.9 1.6-2.4 1.9-4.5.4-2.1.6-5.4.6-9.7v-.6c0-5.4-.5-9-1.4-10.6-.9-1.7-3-2.5-6.3-2.5h-5.2v29.2zm83.8 31.2c0 9.4-1.7 16.4-5.1 21-3.4 4.5-8.7 6.8-15.9 6.8-7.2 0-12.6-2.4-16.2-7.2-3.6-4.9-5.3-11.8-5.3-20.9v-42.6c0-14.6 3.8-23.6 11.4-27.3 2.8-1.3 6.2-2 10.2-2 13.7 0 20.6 8.7 20.6 26v13.4h-14.4v-12.5c0-5-.4-8.6-1.3-10.8-.9-2.2-2.5-3.3-5-3.3s-4.2 1.1-5.2 3.4-1.4 5.8-1.4 10.6v45.7c0 5.3.5 9 1.4 11.3.9 2.3 2.6 3.4 5.1 3.4 2.4 0 4.1-1.1 5.1-3.4.9-2.3 1.4-6.1 1.4-11.4v-14h14.6v13.8zm12.9 27.8v-100h15.2v40.5h13.6v-40.5h15.2v100h-15.2v-46.5h-13.6v46.5h-15.2zm70.2 0l-15.5-100h14.5l6.5 45.2 4 31.8h.4l3.5-31.8 5.4-45.2h14.2l-14.2 100h-18.8zm44.2 0v-100h15.2v100h-15.2zm29 0v-13.5l20.7-73.4h-18.8v-13.1h34.8v12.3l-20.7 74.5h20.7v13.2h-36.7z"/>
  </symbol>
  <symbol id="archviz-shadow" viewBox="0 0 352 100">
    <path d="M14.199 0l-14.199 100h6.852l13.348-94h15.014l-.912-6h-20.102zm45.701 0v100h6v-94h25.1c3.812 0 6.917.597 9.332 1.74-.905-1.798-2.111-3.311-3.633-4.541-2.6-2.1-6.499-3.199-11.699-3.199h-25.1zm78.199 0c-4 0-7.399.7-10.199 2-7.6 3.7-11.4 12.701-11.4 27.301v42.6c0 9.1 1.701 16 5.301 20.9 1.395 1.86 3.064 3.355 5 4.494-2.913-4.775-4.301-11.187-4.301-19.395v-42.6c0-14.6 3.8-23.601 11.4-27.301 2.8-1.3 6.199-2 10.199-2 4.263 0 7.867.844 10.811 2.525-3.368-5.674-8.975-8.525-16.811-8.525zm33.801 0v100h6v-94h9.199v-6h-15.199zm28.799 0v40.5h-7.6v6h13.6v-40.5h9.201v-6h-15.201zm25.9 0l15.5 100h5.07l-14.57-94h9.363l-.863-6h-14.5zm34.301 0l-5.4 45.199-1.238 11.258 3.338 26.543h.4l3.5-31.801 5.4-45.199h7.348l.852-6h-14.199zm25.4 0v100h6v-94h9.199v-6h-15.199zm30.898 0v13.1h6v-7.1h28.801v-6h-34.801zm-229.514 17.85c.269 1.825.414 4.174.414 7.051v.6c0 4.3-.2 7.599-.6 9.699-.3 2.1-1 3.6-1.9 4.5-1 .9-2.399 1.301-4.299 1.301h-.102v6h6.102c1.9 0 3.299-.401 4.299-1.301.9-.9 1.6-2.4 1.9-4.5.4-2.1.6-5.399.6-9.699v-.6c0-5.4-.5-9-1.4-10.6-.777-1.467-2.45-2.26-5.014-2.451zm56.314.951l-.262.016c.381 2.084.563 4.77.563 8.084v12.5h6v-6.5c0-5-.401-8.601-1.301-10.801-.9-2.2-2.5-3.299-5-3.299zm190.309.299l-19.008 67.4v13.5h6v-7.5l20.699-73.4h-7.691zm-303.908 6.6l-2.383 19.607 3.283 24.594h-6.271l-.729 6h13l-6.701-50.201h-.199zm70.205 27.145c-.234.087-.46.179-.705.256.309.054.6.138.893.221l-.188-.477zm43.795 5.557v14c0 5.3-.5 9.1-1.4 11.4-.975 2.242-2.619 3.334-4.924 3.389.201 1.007.441 1.888.725 2.611.9 2.3 2.6 3.398 5.1 3.398 2.4 0 4.1-1.098 5.1-3.398.9-2.3 1.4-6.1 1.4-11.4v-14h8.6v-6h-14.6zm-56.707.734c.203 1.378.307 3.027.307 4.965 0 23.2.2 35.1.6 35.9h5.648c-.158-5.7-.248-15.301-.248-29.9 0-4.4-.5-7.399-1.6-8.799-.815-1.141-2.375-1.876-4.707-2.166zm113.006.365v40.5h6v-40.5h-6zm138.27 27.301l-1.668 6h14.699v-6h-13.031zm-305.26 1.398l1.592 11.801h5.191l-1.592-11.801h-5.191z"/>
  </symbol>
  <!-- #endregion -->
  <!-- #region [ Horizon ] QUOTES -->
  <symbol id="quotes" viewBox="0 0 299 100">
    <path d="M42.2 82.6c.6-3.2 1-6.9 1-11.1v-44.6c0-8.8-1.7-15.5-5-20-3.3-4.6-8.7-6.9-16.3-6.9-14.6 0-21.9 9-21.9 26.9v44.7c0 9.5 1.7 16.6 5.2 21.4 3.5 4.7 9 7.1 16.5 7.1 6.9 0 12.1-2 15.5-6l6 6 8.2-8.2-9.2-9.3zm-14-10.9c0 5.6-.4 9.6-1.3 11.9-.9 2.3-2.6 3.4-5.3 3.4s-4.5-1.1-5.4-3.4c-.9-2.3-1.3-6.3-1.3-12v-45.4c0-4.6.5-7.9 1.5-10.1 1-2.1 2.8-3.2 5.3-3.2s4.2 1.1 5.1 3.2c.9 2.1 1.3 5.5 1.3 10.1v45.5zm267.7-13.1c-2-4.5-5.1-8.9-9.1-13.3l-7.4-8-.6-.7c-2.7-2.9-4.6-5.3-5.6-7.1-1-1.9-1.5-4.3-1.5-7.4 0-3.1.5-5.4 1.5-7 1-1.5 2.7-2.3 5-2.3s3.9 1 4.7 3.1c.8 2 1.2 5.4 1.2 10.1v7h13.7v-6.1c0-8.8-1.3-15.4-4-20s-7.8-6.9-15.4-6.9c-7.6 0-12.9 2-16 5.9-1.9 2.5-3.3 5.7-4 9.8-.4 2.4-.7 5.2-.7 8.2 0 5 .9 9.3 2.8 13.1 1.9 3.8 4.5 7.4 7.9 10.9l7.2 7.4c.8.8 1.6 1.7 2.2 2.5 2.1 2.4 3.7 4.8 4.8 7.1 1.5 3 2.2 6.6 2.2 10.7s-.4 7.1-1.3 8.9c-.8 1.8-2.5 2.7-5.1 2.7-2.5 0-4.3-1.1-5.2-3.3-.9-2.2-1.4-6.1-1.4-11.5v-9.8h-14.1v8.7c0 4.7.4 8.8 1.1 12.3.7 3.5 1.9 6.5 3.4 9 3 4.9 8.4 7.3 16 7.3 7.7 0 13.1-2.2 16.1-6.5 3.1-4.4 4.6-11.1 4.6-20.3.1-5.2-.9-10.1-3-14.5zm-68.6 28.3v-31.8h17.4v-12.9h-17.4v-29h18.3v-13.1h-33.5v99.9h34.2v-13.1h-19zm-61.7-86.8v13.2h11.7v86.7h15.2v-86.8h11.2v-13.1h-38.1zm-13.3 6.8c-3.3-4.6-8.7-6.8-16.3-6.8-14.6 0-21.9 9-21.9 26.9v44.7c0 9.5 1.7 16.6 5.2 21.4 3.5 4.7 9 7 16.5 7s13-2.4 16.4-7c3.4-4.7 5.1-11.8 5.1-21.4v-44.8c0-8.8-1.7-15.5-5-20zm-9.9 64.9c0 5.6-.4 9.6-1.3 11.9-.9 2.3-2.6 3.4-5.3 3.4-2.7 0-4.5-1.1-5.4-3.4-.8-2.3-1.3-6.3-1.3-12v-45.5c0-4.6.5-7.9 1.5-10 1-2.1 2.8-3.2 5.3-3.2s4.2 1.1 5.1 3.2c.9 2.1 1.3 5.5 1.3 10.1v45.5zm-56.9-71.8v73.2c0 3-.1 5.4-.3 7.3-.2 1.9-.7 3.4-1.7 4.7-.9 1.3-2.5 1.9-4.7 1.9s-3.6-.4-4.3-1.3c-.7-.9-1.3-2-1.7-3.1-.5-1.1-.7-4.3-.7-9.5v-73.2h-15.1v73.5c0 9.1 1.7 15.7 5.2 20 3.5 4.3 9 6.5 16.6 6.5 7.6 0 13.2-2.1 16.6-6.4 3.4-4.3 5.2-11 5.2-20.1v-73.5h-15.1z"/>
  </symbol>
  <symbol id="quotes-shadow" viewBox="0 0 299 100">
    <path d="M21.9 0c-14.6 0-21.9 9-21.9 26.9v44.699c0 9.5 1.699 16.6 5.199 21.4 1.355 1.82 3.014 3.292 4.969 4.416-2.799-4.73-4.168-11.308-4.168-19.816v-44.699c0-17.9 7.3-26.9 21.9-26.9 4.578 0 8.35.841 11.354 2.51-.331-.563-.682-1.102-1.055-1.609-3.3-4.6-8.699-6.9-16.299-6.9zm35.1 0v73.5c0 9.1 1.699 15.7 5.199 20 1.237 1.519 2.729 2.771 4.469 3.762-2.462-4.235-3.668-10.112-3.668-17.762v-73.5h9.1v-6h-15.1zm28.5 0v73.199c0 3-.101 5.401-.301 7.301-.2 1.9-.699 3.399-1.699 4.699-.9 1.3-2.499 1.9-4.699 1.9l-.365-.018c.099.706.215 1.287.365 1.617.4 1.1.999 2.202 1.699 3.102.7.9 2.101 1.299 4.301 1.299s3.799-.6 4.699-1.9c1-1.3 1.499-2.799 1.699-4.699.2-1.9.301-4.301.301-7.301v-73.199h9.1v-6h-15.1zm192.9 0c-7.6 0-12.9 2-16 5.9-1.9 2.5-3.3 5.699-4 9.799-.4 2.4-.701 5.201-.701 8.201 0 5 .901 9.3 2.801 13.1 1.9 3.8 4.5 7.4 7.9 10.9l7.199 7.4c.8.8 1.601 1.7 2.201 2.5 2.1 2.4 3.699 4.8 4.799 7.1 1.5 3 2.201 6.599 2.201 10.699s-.401 7.1-1.301 8.9c-.794 1.787-2.477 2.684-5.045 2.697.205 1.071.451 1.986.744 2.703.9 2.2 2.701 3.299 5.201 3.299 2.6 0 4.3-.899 5.1-2.699.9-1.8 1.301-4.8 1.301-8.9 0-4.1-.701-7.699-2.201-10.699-1.1-2.3-2.699-4.7-4.799-7.1-.6-.8-1.401-1.7-2.201-2.5l-7.199-7.4c-3.4-3.5-6-7.1-7.9-10.9-1.9-3.8-2.801-8.1-2.801-13.1 0-3 .301-5.801.701-8.201.7-4.1 2.1-7.299 4-9.799 3.1-3.9 8.4-5.9 16-5.9 4.016 0 7.326.649 9.961 1.934-.181-.354-.365-.7-.561-1.033-2.7-4.6-7.8-6.9-15.4-6.9zm-142.4.1c-14.6 0-21.9 9-21.9 26.9v44.699c0 9.5 1.701 16.6 5.201 21.4 1.348 1.81 2.995 3.261 4.936 4.365-2.779-4.726-4.137-11.288-4.137-19.766v-44.699c0-17.9 7.3-26.9 21.9-26.9 4.593 0 8.377.81 11.385 2.461-.34-.583-.7-1.137-1.084-1.66-3.3-4.6-8.701-6.801-16.301-6.801zm29.6 0v13.201h6v-7.201h32.1v-6h-38.1zm46.5 0v99.9h6v-93.9h27.5v-6h-33.5zm72.1 18.701l-.555.025c.303 1.884.455 4.281.455 7.174v7h6v-1c0-4.7-.399-8.1-1.199-10.1-.8-2.1-2.401-3.1-4.701-3.1zm-256.5.1l-.111.006c.35 1.93.512 4.365.512 7.293v45.5h.1c0 5.6-.399 9.6-1.299 11.9-.9 2.3-2.601 3.4-5.301 3.4l-.082-.004c.184 1.02.407 1.901.682 2.604.9 2.3 2.7 3.4 5.4 3.4s4.401-1.1 5.301-3.4c.9-2.3 1.299-6.3 1.299-11.9h-.1v-45.5c0-4.6-.399-8-1.299-10.1-.9-2.1-2.602-3.199-5.102-3.199zm114.201.1l-.113.006c.35 1.93.514 4.367.514 7.295v45.5h.1c0 5.6-.401 9.598-1.301 11.898-.9 2.3-2.599 3.4-5.299 3.4l-.039-.002c.183 1.019.394 1.899.639 2.602.9 2.3 2.7 3.4 5.4 3.4s4.399-1.1 5.299-3.4c.9-2.3 1.301-6.298 1.301-11.898h-.1v-45.5c0-4.6-.401-8.002-1.301-10.102-.9-2.1-2.6-3.199-5.1-3.199zm35.4.301v80.699h6v-80.699h-6zm56 22.898v6h11.398v-6h-11.398zm24.398 20.4v8.701c0 4.7.402 8.799 1.102 12.299.7 3.5 1.898 6.5 3.398 9 1.355 2.213 3.205 3.911 5.521 5.113-1.269-2.319-2.299-5.007-2.92-8.113-.7-3.5-1.102-7.599-1.102-12.299v-8.701h8.102v-6h-14.102zm-24.398 24.301v6h13v-6h-13z"/>
  </symbol>
  <!-- #endregion -->
  <!-- #region [ Horizon ] OTHER -->
  <symbol id="other" viewBox="0 0 248 100">
    <path d="M15.4 72.2c0 5.9.4 10 1.3 12.3.9 2.3 2.7 3.5 5.5 3.5s4.6-1.2 5.5-3.5c.9-2.4 1.3-6.5 1.3-12.2v-46.7c0-4.7-.5-8.2-1.4-10.3-.9-2.2-2.6-3.3-5.3-3.3-2.6 0-4.4 1.1-5.5 3.3-1 2.2-1.5 5.6-1.5 10.3v46.6zm27.8-.6c0 9.5-1.7 16.7-5.1 21.4-3.4 4.7-8.9 7.1-16.4 7.1-7.5 0-13-2.4-16.5-7.1-3.5-4.8-5.2-11.9-5.2-21.4v-44.7c0-17.9 7.3-26.9 21.9-26.9 7.6 0 13 2.3 16.3 6.8 3.3 4.6 5 11.2 5 20v44.8zm20 28.4v-86.8h-11.7v-13.2h38.2v13.2h-11.3v86.8h-15.2zm34.9 0v-100h15.2v40.5h13.7v-40.5h15.2v100h-15.2v-46.5h-13.6v46.5h-15.3zm59.2 0v-100h33.5v13.1h-18.3v29.1h17.4v12.8h-17.4v31.8h19v13.2h-34.2zm66.9-47l-4.9-.2v47.2h-15.3v-100h25.2c5.2 0 9.1 1.1 11.7 3.2 2.6 2.1 4.3 5 5.1 8.8.8 3.8 1.3 8.7 1.3 14.8 0 6.1-.6 10.7-1.9 13.9-1.3 3.2-3.7 5.3-7.2 6.4 3.4.6 5.9 2.9 7.2 7 1.4 4.1 2 12.5 2 25.3s.2 19.7.6 20.6h-15.2c-.4-.8-.6-12.7-.6-35.9 0-4.4-.5-7.4-1.6-8.8-1.1-1.4-3.2-2.2-6.4-2.3zm-5.2-12h6.1c1.9 0 3.4-.4 4.3-1.3.9-.9 1.6-2.4 1.9-4.5.4-2.1.6-5.4.6-9.7v-.6c0-5.4-.5-9-1.4-10.6-.9-1.7-3-2.5-6.3-2.5h-5.2v29.2z"/>
  </symbol>
  <symbol id="other-shadow" viewBox="0 0 248 100">
    <path d="M21.9 0c-14.6 0-21.9 9-21.9 26.9v44.699c0 9.5 1.699 16.6 5.199 21.4 1.355 1.82 3.014 3.292 4.969 4.416-2.799-4.73-4.168-11.308-4.168-19.816v-44.699c0-17.9 7.3-26.9 21.9-26.9 4.6 0 8.388.849 11.398 2.512-.344-.598-.711-1.169-1.1-1.711-3.3-4.5-8.699-6.801-16.299-6.801zm29.6 0v13.199h6v-7.199h32.199v-6h-38.199zm46.6 0v100h6v-94h9.201v-6h-15.201zm28.9 0v40.5h-7.699v6h13.699v-40.5h9.199v-6h-15.199zm30.301 0v100h6v-94h27.5v-6h-33.5zm46.699 0v100h6v-94h25.199c3.811 0 6.918.596 9.332 1.738-.905-1.797-2.109-3.31-3.631-4.539-2.6-2.1-6.501-3.199-11.701-3.199h-25.199zm27.484 17.85c.269 1.825.416 4.174.416 7.051v.6c0 4.3-.2 7.599-.6 9.699-.3 2.1-1 3.6-1.9 4.5-.9.9-2.401 1.301-4.301 1.301h-.1v6h6.1c1.9 0 3.401-.401 4.301-1.301.9-.9 1.6-2.4 1.9-4.5.4-2.1.6-5.399.6-9.699v-.6c0-5.4-.5-9-1.4-10.6-.777-1.467-2.452-2.26-5.016-2.451zm-203.098.154c.397 1.989.613 4.532.613 7.596v46.701c0 5.7-.401 9.799-1.301 12.199-.9 2.3-2.7 3.5-5.5 3.5l-.16-.01c.181.985.396 1.835.66 2.51.9 2.3 2.7 3.5 5.5 3.5s4.6-1.2 5.5-3.5c.9-2.4 1.301-6.499 1.301-12.199v-46.701c0-4.7-.5-8.199-1.4-10.299-.89-2.176-2.565-3.273-5.213-3.297zm34.813 1.195v80.801h6v-80.801h-6zm115.301 23v6h11.4v-6h-11.4zm66.428 10.635c-.241.09-.476.186-.729.266.314.055.613.14.912.225l-.184-.49zm-13.033 6.307c.202 1.377.305 3.023.305 4.959 0 23.2.202 35.1.602 35.9h5.646c-.158-5.7-.248-15.301-.248-29.9 0-4.4-.5-7.399-1.6-8.799-.891-1.134-2.45-1.866-4.705-2.16zm-104.895.359v40.5h6v-40.5h-6zm51.5 27.301v6h13v-6h-13z"/>
  </symbol>
  <!-- #endregion -->
  <!-- #region [ Horizon ] CONTACT -->
  <symbol id="contact" viewBox="0 0 355 100">
    <path d="M42.5 72.2c0 9.4-1.7 16.4-5.1 21-3.4 4.5-8.7 6.8-15.9 6.8-7.2 0-12.6-2.4-16.2-7.2-3.5-4.9-5.3-11.8-5.3-20.9v-42.6c0-14.6 3.8-23.7 11.5-27.3 2.8-1.3 6.2-2 10.2-2 13.8 0 20.6 8.7 20.6 26v13.4h-14.4v-12.5c0-5-.4-8.6-1.3-10.8-.9-2.2-2.5-3.3-5-3.3s-4.2 1.1-5.2 3.4-1.4 5.8-1.4 10.6v45.7c0 5.3.5 9 1.4 11.3.9 2.3 2.6 3.4 5.1 3.4s4.1-1.1 5.1-3.4c.9-2.3 1.4-6.1 1.4-11.4v-14h14.6v13.8zm27.6 0c0 5.9.4 10 1.3 12.3.9 2.3 2.7 3.5 5.5 3.5s4.6-1.2 5.5-3.5c.9-2.4 1.3-6.5 1.3-12.2v-46.7c0-4.7-.5-8.2-1.4-10.3-.9-2.2-2.6-3.3-5.3-3.3-2.6 0-4.4 1.1-5.5 3.3-1 2.2-1.5 5.6-1.5 10.3v46.6zm27.8-.6c0 9.5-1.7 16.7-5.1 21.4-3.4 4.7-8.9 7.1-16.4 7.1-7.5 0-13-2.4-16.5-7.1-3.5-4.7-5.2-11.9-5.2-21.4v-44.7c0-17.9 7.3-26.9 21.9-26.9 7.6 0 13 2.3 16.3 6.8 3.3 4.6 5 11.2 5 20v44.8zm14.9 28.4v-100h11.9l21.3 60-1.1-27.3v-32.7h13.7v100h-10.8l-21.8-62.1.9 26.2v35.9h-14.1zm66 0v-86.8h-11.7v-13.2h38.2v13.2h-11.3v86.8h-15.2zm61.7-30.1l-6.7-50.2h-.2l-6.1 50.2h13zm-31.4 30.1l14.3-100h20.1l15.2 100h-14.2l-2.4-17.8h-16.1l-2.2 17.8h-14.7zm101.5-27.8c0 9.4-1.7 16.4-5.1 21-3.4 4.5-8.7 6.8-15.9 6.8-7.2 0-12.6-2.4-16.2-7.2-3.6-4.9-5.3-11.8-5.3-20.9v-42.6c0-14.6 3.8-23.6 11.5-27.3 2.8-1.3 6.2-2 10.2-2 13.8 0 20.6 8.7 20.6 26v13.4h-14.4v-12.5c0-5-.4-8.6-1.3-10.8-.9-2.2-2.5-3.3-5-3.3s-4.2 1.1-5.2 3.4-1.4 5.8-1.4 10.6v45.7c0 5.3.5 9 1.4 11.3.9 2.3 2.6 3.4 5.1 3.4 2.4 0 4.1-1.1 5.1-3.4.9-2.3 1.4-6.1 1.4-11.4v-14h14.6v13.8zm18 27.8v-86.8h-11.7v-13.2h38.1v13.2h-11.3v86.8h-15.1z"/>
  </symbol>
  <symbol id="contact-shadow" viewBox="0 0 355 100">
    <path d="M21.699 0c-4 0-7.399.7-10.199 2-7.7 3.6-11.5 12.701-11.5 27.301v42.6c0 9.1 1.801 16 5.301 20.9 1.404 1.872 3.084 3.374 5.035 4.516-2.863-4.777-4.336-11.196-4.336-19.416v-42.6c0-14.6 3.8-23.701 11.5-27.301 2.8-1.3 6.199-2 10.199-2 4.286 0 7.896.84 10.838 2.516-3.351-5.667-8.949-8.516-16.838-8.516zm54.9 0c-14.6 0-21.9 9-21.9 26.9v44.699c0 9.5 1.701 16.7 5.201 21.4 1.349 1.812 2.999 3.28 4.943 4.402-2.783-4.673-4.145-11.318-4.145-19.803v-44.699c0-17.9 7.3-26.9 21.9-26.9 4.599 0 8.388.849 11.398 2.512-.344-.598-.709-1.169-1.098-1.711-3.3-4.5-8.701-6.801-16.301-6.801zm36.201 0v100h6v-94h8.029l-2.131-6h-11.898zm32.1 0v32.699l.604 15.006 6.496 18.295-1.1-27.301v-32.699h7.699v-6h-13.699zm22.199 0v13.199h6v-7.199h32.201v-6h-38.201zm56.301 0l-14.301 100h6.857l13.443-94h15.012l-.912-6h-20.1zm66.4 0c-4 0-7.401.7-10.201 2-7.7 3.7-11.5 12.701-11.5 27.301v42.6c0 9.1 1.701 16 5.301 20.9 1.396 1.861 3.065 3.357 5.002 4.496-2.913-4.775-4.303-11.188-4.303-19.396v-42.6c0-14.6 3.8-23.601 11.5-27.301 2.8-1.3 6.201-2 10.201-2 4.286 0 7.894.84 10.836 2.516-3.351-5.667-8.947-8.516-16.836-8.516zm27.1 0v13.199h6v-7.199h32.1v-6h-38.1zm-233.812 18.004c.397 1.989.611 4.532.611 7.596v46.701c0 5.7-.399 9.799-1.299 12.199-.9 2.3-2.7 3.5-5.5 3.5l-.162-.01c.181.985.398 1.835.662 2.51.9 2.3 2.7 3.5 5.5 3.5s4.6-1.2 5.5-3.5c.9-2.4 1.299-6.499 1.299-12.199v-46.701c0-4.7-.498-8.199-1.398-10.299-.89-2.175-2.566-3.272-5.213-3.297zm-55.488.797l-.262.016c.381 2.084.563 4.77.563 8.084v12.5h6v-6.5c0-5-.401-8.601-1.301-10.801-.9-2.2-2.5-3.299-5-3.299zm268.1 0l-.26.016c.381 2.084.561 4.77.561 8.084v12.5h6v-6.5c0-5-.401-8.601-1.301-10.801-.9-2.2-2.5-3.299-5-3.299zm-116.898.398v80.801h6v-80.801h-6zm149.799 0v80.801h6v-80.801h-6zm-89 6.5l-2.383 19.604 3.283 24.598h-6.271l-.729 6h13l-6.699-50.201h-.201zm-107.6 18.201l.422 12.295 15.379 43.805h3.895l-19.695-56.1zm-104 14.5v14c0 5.3-.5 9.1-1.4 11.4-.975 2.243-2.527 3.335-4.922 3.389.201 1.007.439 1.888.723 2.611.9 2.3 2.6 3.398 5.1 3.398 2.5 0 4.1-1.098 5.1-3.398.9-2.3 1.4-6.1 1.4-11.4v-14h8.6v-6h-14.6zm268.1 0v14c0 5.3-.5 9.1-1.4 11.4-.974 2.241-2.618 3.334-4.922 3.389.201 1.007.439 1.888.723 2.611.9 2.3 2.6 3.398 5.1 3.398 2.4 0 4.1-1.098 5.1-3.398.9-2.3 1.4-6.1 1.4-11.4v-14h8.6v-6h-14.6zm-53.191 29.799l1.592 11.801h5.191l-1.592-11.801h-5.191z"/>
  </symbol>
  <!-- #endregion -->
</svg>